<svg xmlns="http://www.w3.org/2000/svg" width="212" height="10" viewBox="0 0 212 10" arai-label="受付時間 8:30 18:30 第2、4月曜日、日、祝定休">
  <g id="open_hour" data-name="受付時間 8:30 18:30 第2 4月曜日 日 祝定休 " style="isolation: isolate">
    <g id="グループ_1656" data-name="グループ 1656" style="isolation: isolate">
      <path id="パス_1331" data-name="パス 1331" d="M576.205,477.838a6.327,6.327,0,0,1-2.129,2.546,12.629,12.629,0,0,0,3.518.87,4.312,4.312,0,0,0-.57.922,11.883,11.883,0,0,1-3.9-1.215,13.438,13.438,0,0,1-3.947,1.226,3.107,3.107,0,0,0-.54-.88,13.059,13.059,0,0,0,3.588-.923,6.975,6.975,0,0,1-1.819-1.927l.18-.084h-.43v-.9h5.247l.17-.031Zm-6.476-.063h-.87v-2.17h1.509a7.213,7.213,0,0,0-.57-1.248l.81-.24a5.656,5.656,0,0,1,.64,1.31l-.54.178h2.159a6.181,6.181,0,0,0-.45-1.478l.83-.189a6.127,6.127,0,0,1,.5,1.446l-.839.22H574.9a11.671,11.671,0,0,0,.8-1.688l.97.274c-.26.471-.55,1-.83,1.415H577.4v2.17h-.909v-1.311h-6.766Zm7.206-4.413a51.718,51.718,0,0,1-7.776.786,2.858,2.858,0,0,0-.2-.828,48.785,48.785,0,0,0,7.326-.755Zm-5.538,5.01a5.6,5.6,0,0,0,1.749,1.539,5.114,5.114,0,0,0,1.66-1.539Z" transform="translate(-568.639 -472.427)" fill="#333"/>
      <path id="パス_1332" data-name="パス 1332" d="M581.9,472.981a16.711,16.711,0,0,1-1.009,2.211v7.023h-.94v-5.5a9.438,9.438,0,0,1-.879,1.08,6.741,6.741,0,0,0-.56-1,11.421,11.421,0,0,0,2.469-4.119Zm5.777,2.893h-1.189v5.116c0,.681-.17.953-.59,1.1a7.159,7.159,0,0,1-2.208.169,4.2,4.2,0,0,0-.36-.975c.809.042,1.639.031,1.879.021s.319-.084.319-.314v-5.116h-3.907V474.9h3.907v-2.169h.96V474.9h1.189Zm-4.137,3.92a26.478,26.478,0,0,0-1.37-2.569l.81-.4c.48.786,1.129,1.845,1.429,2.473Z" transform="translate(-568.639 -472.427)" fill="#333"/>
      <path id="パス_1333" data-name="パス 1333" d="M591.827,480.206h-2.078v.88h-.86v-7.808h2.938Zm-2.078-6.048v2.107h1.2v-2.107Zm1.2,5.177v-2.212h-1.2v2.212Zm5.627-2.672v1.048h1.069v.859h-1.069v2.579c0,.5-.11.764-.44.912a4.7,4.7,0,0,1-1.639.156,3.743,3.743,0,0,0-.3-.911c.56.021,1.11.021,1.26.021s.209-.052.209-.2V478.57h-3.638v-.859h3.638v-1.048H592v-.86h2.379v-1.152h-2V473.8h2v-1.2h.93v1.2h2.058v.849h-2.058V475.8h2.428v.86Zm-3.279,2.169a7.726,7.726,0,0,1,1.25,1.74l-.79.5a7.78,7.78,0,0,0-1.209-1.792Z" transform="translate(-568.639 -472.427)" fill="#333"/>
      <path id="パス_1334" data-name="パス 1334" d="M599.948,476.671v5.567h-.919v-9.221h3.688v3.654Zm0-2.919v.724h1.889v-.724Zm1.889,2.2v-.778h-1.889v.778Zm5.447,5.072c0,.557-.11.872-.47,1.04a4.847,4.847,0,0,1-1.738.167,4.529,4.529,0,0,0-.29-.955h-2.7v.525h-.849v-4.4h3.748v3.844c.49.021.969.01,1.129.01.18-.01.23-.063.23-.242v-4.316h-2.839v-3.676h3.778Zm-5.2-2.888v.819h2.029v-.819Zm2.029,2.405v-.872h-2.029v.872Zm.28-6.785v.724h1.949v-.724Zm1.949,2.216v-.8H604.4v.8Z" transform="translate(-568.639 -472.427)" fill="#333"/>
      <path id="パス_1335" data-name="パス 1335" d="M609.787,474.913a.841.841,0,1,1,.839.887A.854.854,0,0,1,609.787,474.913Zm0,5.18a.84.84,0,1,1,.839.875A.849.849,0,0,1,609.787,480.093Z" transform="translate(-568.556 -472.427)" fill="#333"/>
      <path id="パス_1336" data-name="パス 1336" d="M613.589,479.5a2.307,2.307,0,0,1,1.319-1.992v-.042a2.182,2.182,0,0,1-.989-1.769,1.958,1.958,0,0,1,2.1-1.992,1.939,1.939,0,0,1,2.079,2.034,2.376,2.376,0,0,1-.97,1.78v.053a2.2,2.2,0,0,1,1.24,1.96,2.152,2.152,0,0,1-2.379,2.045A2.183,2.183,0,0,1,613.589,479.5Zm3.688,0c0-.9-.809-1.208-1.809-1.642a1.913,1.913,0,0,0-.86,1.525,1.32,1.32,0,0,0,1.4,1.315A1.161,1.161,0,0,0,617.277,479.5Zm-.15-3.687a1.114,1.114,0,0,0-1.129-1.23,1.028,1.028,0,0,0-1.05,1.113c0,.815.7,1.176,1.52,1.515A1.953,1.953,0,0,0,617.127,475.815Z" transform="translate(-568.547 -472.427)" fill="#333"/>
      <path id="パス_1337" data-name="パス 1337" d="M619.549,475.9a.771.771,0,1,1,1.539,0,.77.77,0,1,1-1.539,0Zm0,3.928a.771.771,0,1,1,1.539,0,.77.77,0,1,1-1.539,0Z" transform="translate(-568.537 -471.981)" fill="#333"/>
      <path id="パス_1338" data-name="パス 1338" d="M622.089,480.507l.559-.783a2.332,2.332,0,0,0,1.74.858,1.248,1.248,0,0,0,1.4-1.239c0-.837-.52-1.377-2.179-1.377v-.9c1.449,0,1.929-.561,1.929-1.292a1.027,1.027,0,0,0-1.129-1.092,2.029,2.029,0,0,0-1.47.742l-.6-.763a2.984,2.984,0,0,1,2.109-.953,1.984,1.984,0,0,1,2.248,1.97,1.815,1.815,0,0,1-1.269,1.77v.053a1.916,1.916,0,0,1,1.519,1.907,2.229,2.229,0,0,1-2.458,2.172A2.978,2.978,0,0,1,622.089,480.507Z" transform="translate(-568.53 -472.427)" fill="#333"/>
      <path id="パス_1339" data-name="パス 1339" d="M627.979,477.616c0-2.554.919-3.91,2.379-3.91s2.378,1.366,2.378,3.91-.909,3.962-2.378,3.962S627.979,480.169,627.979,477.616Zm3.658,0c0-2.183-.53-2.946-1.279-2.946s-1.279.763-1.279,2.946.529,3,1.279,3S631.637,479.8,631.637,477.616Z" transform="translate(-568.518 -472.427)" fill="#333"/>
      <path id="パス_1340" data-name="パス 1340" d="M635.338,477.539a1.462,1.462,0,0,0-1.233.89l-.616-.336a2.045,2.045,0,0,1,3.474-.5,1.349,1.349,0,0,0,2.353-.344l.617.336a2.126,2.126,0,0,1-1.856,1.254,2.149,2.149,0,0,1-1.619-.756A1.444,1.444,0,0,0,635.338,477.539Z" transform="translate(-568.506 -472.166)" fill="#333"/>
      <path id="パス_1341" data-name="パス 1341" d="M641.068,480.44h1.61v-5.225h-1.32v-.776a4.189,4.189,0,0,0,1.6-.594h.869v6.594h1.439v1.008h-4.2Z" transform="translate(-568.492 -472.427)" fill="#333"/>
      <path id="パス_1342" data-name="パス 1342" d="M646.369,479.5a2.306,2.306,0,0,1,1.319-1.992v-.042a2.182,2.182,0,0,1-.989-1.769,1.958,1.958,0,0,1,2.1-1.992,1.938,1.938,0,0,1,2.079,2.034,2.375,2.375,0,0,1-.969,1.78v.053a2.2,2.2,0,0,1,1.239,1.96,2.151,2.151,0,0,1-2.378,2.045A2.183,2.183,0,0,1,646.369,479.5Zm3.688,0c0-.9-.809-1.208-1.809-1.642a1.913,1.913,0,0,0-.86,1.525,1.32,1.32,0,0,0,1.4,1.315A1.162,1.162,0,0,0,650.057,479.5Zm-.15-3.687a1.114,1.114,0,0,0-1.129-1.23,1.028,1.028,0,0,0-1.05,1.113c0,.815.7,1.176,1.52,1.515A1.952,1.952,0,0,0,649.907,475.815Z" transform="translate(-568.48 -472.427)" fill="#333"/>
      <path id="パス_1343" data-name="パス 1343" d="M652.329,475.9a.771.771,0,1,1,1.539,0,.77.77,0,1,1-1.539,0Zm0,3.928a.771.771,0,1,1,1.539,0,.77.77,0,1,1-1.539,0Z" transform="translate(-568.471 -471.981)" fill="#333"/>
      <path id="パス_1344" data-name="パス 1344" d="M654.869,480.507l.559-.783a2.33,2.33,0,0,0,1.739.858,1.248,1.248,0,0,0,1.4-1.239c0-.837-.52-1.377-2.179-1.377v-.9c1.449,0,1.929-.561,1.929-1.292a1.028,1.028,0,0,0-1.13-1.092,2.029,2.029,0,0,0-1.469.742l-.6-.763a2.984,2.984,0,0,1,2.109-.953,1.984,1.984,0,0,1,2.248,1.97,1.816,1.816,0,0,1-1.269,1.77v.053a1.916,1.916,0,0,1,1.519,1.907,2.229,2.229,0,0,1-2.458,2.172A2.976,2.976,0,0,1,654.869,480.507Z" transform="translate(-568.463 -472.427)" fill="#333"/>
      <path id="パス_1345" data-name="パス 1345" d="M660.758,477.616c0-2.554.92-3.91,2.379-3.91s2.379,1.366,2.379,3.91-.91,3.962-2.379,3.962S660.758,480.169,660.758,477.616Zm3.659,0c0-2.183-.53-2.946-1.28-2.946s-1.279.763-1.279,2.946.529,3,1.279,3S664.417,479.8,664.417,477.616Z" transform="translate(-568.451 -472.427)" fill="#333"/>
      <path id="パス_1346" data-name="パス 1346" d="M670.134,472.427l.76.376a6.731,6.731,0,0,0,0,9.248l-.76.376a7.306,7.306,0,0,1,0-10Z" transform="translate(-568.438 -472.427)" fill="#333"/>
      <path id="パス_1347" data-name="パス 1347" d="M680.474,473.468v.776h-1.979a5.083,5.083,0,0,1,.5.859l-.809.335a5.722,5.722,0,0,0-.69-1.194h-.57a6.338,6.338,0,0,1-.969,1.184,4.706,4.706,0,0,0-.76-.545,4.058,4.058,0,0,0,.63-.638h-1.649a4.314,4.314,0,0,1,.35.849l-.8.345a6.263,6.263,0,0,0-.47-1.194h-.269a7.347,7.347,0,0,1-.92,1.247c-.18-.135-.549-.4-.759-.524a6.482,6.482,0,0,0,1.509-2.409l.879.24c-.09.22-.19.451-.29.671h2.439v.755a5.494,5.494,0,0,0,.929-1.666l.89.23c-.09.231-.19.461-.3.681Zm-.31,5.292s-.01.251-.02.376c-.12,1.425-.25,2.064-.5,2.337a.929.929,0,0,1-.689.3,9.717,9.717,0,0,1-1.25,0,2.175,2.175,0,0,0-.26-.891,7.454,7.454,0,0,0,1.079.052.511.511,0,0,0,.351-.083,2.6,2.6,0,0,0,.3-1.268h-2.748v2.64h-.91v-2.262a9.627,9.627,0,0,1-3.438,2.126,4.041,4.041,0,0,0-.6-.764,9.251,9.251,0,0,0,3.278-1.739h-1.619l-.09.315-.92-.136c.21-.7.47-1.771.63-2.619h2.758v-.871h-3.2v-.817h7.276v2.5h-3.168v.8Zm-6.646-.8c-.06.262-.121.535-.181.8h2.179v-.8Zm2.908-.817h2.248v-.871h-2.248Z" transform="translate(-568.425 -472.427)" fill="#333"/>
      <path id="パス_1348" data-name="パス 1348" d="M681.429,480.737c2.049-2.132,3.288-3.489,3.288-4.676,0-.827-.42-1.379-1.25-1.379a1.972,1.972,0,0,0-1.449.87l-.649-.678a2.828,2.828,0,0,1,2.238-1.167A2.119,2.119,0,0,1,685.826,476c0,1.389-1.189,2.789-2.719,4.486a11.587,11.587,0,0,1,1.2-.075h1.869v1.04h-4.747Z" transform="translate(-568.409 -472.427)" fill="#333"/>
      <path id="パス_1349" data-name="パス 1349" d="M690.346,477.2a1.16,1.16,0,1,1-1.16-1.159A1.161,1.161,0,0,1,690.346,477.2Z" transform="translate(-568.398 -472.204)" fill="#333"/>
      <path id="パス_1350" data-name="パス 1350" d="M695.076,479.431h-3.187v-.818l2.927-4.767h1.34v4.64h.93v.944h-.93v2.017h-1.08Zm0-.944v-1.923c0-.424.03-1.1.051-1.529h-.041c-.18.382-.379.744-.589,1.137l-1.449,2.315Z" transform="translate(-568.387 -472.427)" fill="#333"/>
      <path id="パス_1351" data-name="パス 1351" d="M705.635,480.913c0,.631-.16.936-.561,1.092a6.282,6.282,0,0,1-2.138.2,4.238,4.238,0,0,0-.4-1.03c.78.042,1.58.033,1.82.021.219,0,.3-.084.3-.3v-1.839h-4.537a5.892,5.892,0,0,1-1.709,3.194,3.634,3.634,0,0,0-.709-.715c1.559-1.409,1.709-3.468,1.709-5.117v-3.3h6.227Zm-.981-2.806v-1.554h-4.3a14.594,14.594,0,0,1-.089,1.554Zm-4.3-4.045v1.555h4.3v-1.555Z" transform="translate(-568.372 -472.427)" fill="#333"/>
      <path id="パス_1352" data-name="パス 1352" d="M716.974,481.872h-4.508v.315h-.839v-3.57a4.9,4.9,0,0,1-.57.556c-.061-.084-.151-.21-.25-.326v1.407h-1.828v.883h-.811v-7.888h2.639v5a6.6,6.6,0,0,0,1.369-2.027h-1.02v-.682h1.75v-.631h-1.58v-.64h1.58v-.609h-1.74v-.682h2.539v3.244h-.889l.3.095c-.1.221-.219.452-.349.684h1.239a7.385,7.385,0,0,0,.28-.779h-.23v-.682h1.789v-.631H714.2v-.64h1.649v-.609h-1.769v-.682h2.589v3.244h-1.81l.39.085c-.119.241-.24.473-.359.694h1.839v.745h-2.079v.672h1.849v.652h-1.849v.683h1.849v.652h-1.849v.724h2.329Zm-7.995-7.771v2.153h1.008V474.1Zm1.008,5.293V477.1h-1.008v2.29Zm3.848-1.649h-1.369v.672h1.369Zm0,1.323h-1.369v.683h1.369Zm-1.369,2.059h1.369V480.4h-1.369Z" transform="translate(-568.349 -472.427)" fill="#333"/>
      <path id="パス_1353" data-name="パス 1353" d="M725.744,473.256v8.83h-.99v-.642h-4.707v.684H719.1v-8.872Zm-5.7.989v2.569h4.707v-2.569Zm4.707,6.21v-2.673h-4.707v2.673Z" transform="translate(-568.329 -472.427)" fill="#333"/>
      <path id="パス_1354" data-name="パス 1354" d="M727.768,479.4l.82-.718a18.429,18.429,0,0,1,2.209,2.208l-.85.719A18.309,18.309,0,0,0,727.768,479.4Z" transform="translate(-568.317 -471.981)" fill="#333"/>
      <path id="パス_1355" data-name="パス 1355" d="M740.744,473.256v8.83h-.99v-.642h-4.707v.684H734.1v-8.872Zm-5.7.989v2.569h4.707v-2.569Zm4.707,6.21v-2.673h-4.707v2.673Z" transform="translate(-568.298 -472.427)" fill="#333"/>
      <path id="パス_1356" data-name="パス 1356" d="M742.768,479.4l.82-.718a18.429,18.429,0,0,1,2.209,2.208l-.85.719A18.309,18.309,0,0,0,742.768,479.4Z" transform="translate(-568.217 -471.981)" fill="#333"/>
      <path id="パス_1357" data-name="パス 1357" d="M751.3,479.229a14.009,14.009,0,0,0-1.05-1.278v4.286h-.909v-3.815a8.907,8.907,0,0,1-1.279,1.122,4.665,4.665,0,0,0-.451-.9,8.249,8.249,0,0,0,2.82-3.217h-2.459v-.881h1.369v-1.928h.909v1.928h.649l.161-.03.519.356a10.271,10.271,0,0,1-1.119,2.168c.439.4,1.209,1.163,1.419,1.383Zm4.827,2.127c.2,0,.23-.231.26-1.456a2.534,2.534,0,0,0,.779.366c-.079,1.478-.28,1.9-.949,1.9h-.78c-.78,0-.95-.283-.95-1.164v-3.552h-.8c-.111,2.253-.43,3.877-2.16,4.82a2.694,2.694,0,0,0-.589-.764c1.529-.785,1.758-2.127,1.838-4.055h-.919v-4.16h4.738v4.16h-1.209v3.543c0,.324.029.366.209.366Zm-3.4-4.788h2.948v-2.4h-2.948Z" transform="translate(-568.217 -472.427)" fill="#333"/>
      <path id="パス_1358" data-name="パス 1358" d="M762.855,481.04a9.989,9.989,0,0,0,1.411.094c.429,0,2.107,0,2.677-.021a3.032,3.032,0,0,0-.349.984h-2.379c-1.959,0-3.4-.345-4.308-1.99a5.355,5.355,0,0,1-1.409,2.18,5.082,5.082,0,0,0-.769-.671c1.1-.86,1.609-2.326,1.818-4.16l.96.094a13.589,13.589,0,0,1-.239,1.372,2.944,2.944,0,0,0,1.628,1.845V476.7h-2.308v-.933h5.627v.933h-2.36v1.539h2.859v.913h-2.859Zm-3.727-4.882h-.909v-2.41h3.657v-1.121h.989v1.121h3.7v2.41h-.949v-1.489h-6.486Z" transform="translate(-568.217 -472.427)" fill="#333"/>
      <path id="パス_1359" data-name="パス 1359" d="M771.156,472.981A16.05,16.05,0,0,1,770.1,475.2v7h-.92V476.6a9.766,9.766,0,0,1-1.02,1.185,6.57,6.57,0,0,0-.55-1.007,10.956,10.956,0,0,0,2.629-4.1Zm3.448,3.176a10.677,10.677,0,0,0,2.549,4,3.676,3.676,0,0,0-.7.787,11.942,11.942,0,0,1-2.328-3.828v5.117h-.92v-4.854a11.361,11.361,0,0,1-2.389,3.627,4.512,4.512,0,0,0-.689-.775,10.117,10.117,0,0,0,2.658-4.078h-2.248V475.2h2.668v-2.431h.92V475.2h2.748v.955Z" transform="translate(-568.217 -472.427)" fill="#333"/>
      <path id="パス_1360" data-name="パス 1360" d="M778.238,482.427l-.759-.376a6.739,6.739,0,0,0,0-9.248l.759-.376a7.306,7.306,0,0,1,0,10Z" transform="translate(-568.217 -472.427)" fill="#333"/>
    </g>
  </g>
</svg>
