<?xml version="1.0" encoding="utf-8"?>
<!-- Generator: Adobe Illustrator 16.0.3, SVG Export Plug-In . SVG Version: 6.00 Build 0)  -->
<!DOCTYPE svg PUBLIC "-//W3C//DTD SVG 1.1//EN" "http://www.w3.org/Graphics/SVG/1.1/DTD/svg11.dtd">
<svg version="1.1" id="レイヤー_1" xmlns="http://www.w3.org/2000/svg" xmlns:xlink="http://www.w3.org/1999/xlink" x="0px"
	 y="0px" width="80px" height="80px" viewBox="0 0 120 120" enable-background="new 0 0 120 120" xml:space="preserve">
<g>
	<path fill="#00B900" d="M94,120H26c-14.359,0-26-11.641-26-26V26C0,11.641,11.641,0,26,0h68c14.359,0,26,11.641,26,26v68
		C120,108.359,108.359,120,94,120"/>
	<path fill="#FFFFFF" d="M103.496,54.723c0-19.55-19.599-35.456-43.691-35.456c-24.089,0-43.689,15.906-43.689,35.456
		c0,17.526,15.543,32.206,36.539,34.98c1.423,0.308,3.36,0.938,3.849,2.154c0.441,1.105,0.288,2.835,0.141,3.95
		c0,0-0.512,3.083-0.623,3.741c-0.191,1.104-0.878,4.319,3.784,2.354c4.664-1.965,25.162-14.814,34.329-25.366h-0.002
		C100.463,69.594,103.496,62.548,103.496,54.723"/>
	<path fill="#00B900" d="M50.928,45.276h-3.065c-0.469,0-0.851,0.381-0.851,0.85v19.037c0,0.469,0.382,0.849,0.851,0.849h3.065
		c0.47,0,0.851-0.38,0.851-0.849V46.125C51.779,45.657,51.398,45.276,50.928,45.276"/>
	<path fill="#00B900" d="M72.022,45.276h-3.064c-0.471,0-0.851,0.381-0.851,0.85v11.31l-8.725-11.782
		c-0.02-0.03-0.043-0.059-0.066-0.086c-0.002-0.002-0.004-0.004-0.005-0.006c-0.017-0.018-0.035-0.036-0.052-0.052
		c-0.005-0.005-0.01-0.01-0.015-0.015c-0.015-0.012-0.03-0.026-0.046-0.037c-0.007-0.007-0.014-0.012-0.022-0.018
		c-0.014-0.01-0.029-0.02-0.044-0.03c-0.008-0.006-0.017-0.01-0.026-0.015c-0.015-0.009-0.03-0.018-0.045-0.026
		c-0.009-0.004-0.018-0.009-0.027-0.013c-0.016-0.007-0.032-0.015-0.049-0.02c-0.01-0.004-0.018-0.007-0.028-0.01
		c-0.016-0.007-0.033-0.012-0.05-0.017c-0.01-0.003-0.019-0.005-0.03-0.008c-0.016-0.004-0.032-0.007-0.049-0.01
		c-0.012-0.002-0.024-0.004-0.035-0.005c-0.015-0.003-0.03-0.004-0.045-0.006c-0.015-0.001-0.029-0.002-0.044-0.003
		c-0.011,0-0.02-0.001-0.03-0.001h-3.065c-0.469,0-0.851,0.381-0.851,0.85v19.037c0,0.469,0.382,0.849,0.851,0.849h3.065
		c0.47,0,0.851-0.38,0.851-0.849V53.857l8.735,11.796c0.061,0.085,0.135,0.155,0.216,0.21c0.003,0.002,0.006,0.004,0.009,0.007
		c0.018,0.011,0.035,0.022,0.053,0.031c0.008,0.005,0.016,0.009,0.024,0.014c0.013,0.007,0.026,0.015,0.04,0.021
		s0.027,0.011,0.042,0.017c0.009,0.003,0.017,0.007,0.024,0.01c0.021,0.007,0.039,0.014,0.059,0.02c0.004,0,0.009,0.002,0.013,0.002
		c0.068,0.019,0.142,0.028,0.218,0.028h3.064c0.47,0,0.851-0.38,0.851-0.849V46.125C72.873,45.657,72.492,45.276,72.022,45.276"/>
	<path fill="#00B900" d="M43.541,61.245h-8.327V46.126c0-0.47-0.381-0.85-0.851-0.85h-3.065c-0.469,0-0.851,0.38-0.851,0.85v19.035
		v0.002c0,0.229,0.092,0.436,0.239,0.587c0.003,0.004,0.006,0.01,0.011,0.015c0.004,0.003,0.009,0.006,0.012,0.011
		c0.154,0.147,0.36,0.238,0.588,0.238h0.001h12.243c0.47,0,0.85-0.382,0.85-0.853v-3.063C44.391,61.626,44.011,61.245,43.541,61.245
		"/>
	<path fill="#00B900" d="M88.946,50.043c0.47,0,0.85-0.381,0.85-0.851v-3.065c0-0.47-0.38-0.851-0.85-0.851H76.704h-0.002
		c-0.229,0-0.437,0.092-0.59,0.24c-0.003,0.004-0.007,0.006-0.01,0.009c-0.005,0.005-0.011,0.01-0.014,0.015
		c-0.146,0.152-0.236,0.358-0.236,0.586v0.001v19.034v0.002c0,0.229,0.091,0.436,0.238,0.587c0.002,0.005,0.008,0.011,0.012,0.015
		c0.003,0.003,0.008,0.008,0.013,0.01c0.152,0.146,0.358,0.239,0.587,0.239h0.002h12.242c0.47,0,0.85-0.383,0.85-0.853v-3.063
		c0-0.471-0.38-0.853-0.85-0.853H80.62v-3.218h8.326c0.47,0,0.85-0.38,0.85-0.851v-3.064c0-0.47-0.38-0.852-0.85-0.852H80.62v-3.217
		H88.946z"/>
</g>
</svg>
