<?xml version="1.0" encoding="utf-8"?>
<!-- Generator: Adobe Illustrator 24.3.0, SVG Export Plug-In . SVG Version: 6.00 Build 0)  -->
<svg version="1.1" id="_x32_" xmlns="http://www.w3.org/2000/svg" xmlns:xlink="http://www.w3.org/1999/xlink" x="0px" y="0px"
	 viewBox="0 0 512 512" style="enable-background:new 0 0 512 512;" xml:space="preserve">
<style type="text/css">
	.st0{fill:#4B4B4B;}
</style>
<g>
	<path class="st0" d="M256,0C114.6,0,0,114.6,0,256c0,141.4,114.7,255.3,255.9,256h0.3l0.3,0c27.1,0,49.5-8.5,65-22.6
		c15.5-14,23.7-33.3,23.7-52.7c0-9.1-1.9-18.3-5.5-27c6.1-3.5,10.1-6.6,11.3-7.4c4.2-3,16-18.8,7.7-31.8c-8.3-13-38-42.7-46.2-47.7
		c-8.1-5-21.6-0.1-28.1,9.4c-6.5,9.5-11.7,6.7-11.7,6.7s-18.5-15-44.1-66.6c-25.6-51.7-26.3-75.5-26.3-75.5s0.8-5.8,12.4-5.3
		c11.5,0.6,23.6-7.2,24.5-16.7c0.9-9.5-4.7-51.1-10-65.6c-5.3-14.5-25.1-14.7-29.9-13.1c-4.9,1.5-55,13.7-59,66.2
		c-4,52.5,9.6,100.2,28.9,139.3c19.4,39.1,49.1,78.8,93.3,107.4c17.9,11.6,35.1,13.1,49.5,10.7c2.5,5.5,3.7,11.3,3.7,17
		c0,11.3-4.6,22.4-14.1,31c-9.5,8.6-24.1,14.9-45.2,15l-0.5,0C130.8,482,29.4,381.1,29.4,256c0-62.6,25.3-119.2,66.4-160.2
		c41.1-41,97.6-66.4,160.2-66.4c62.6,0,119.2,25.3,160.2,66.4c41,41.1,66.4,97.6,66.4,160.2c0,38.7-9.7,75-26.7,106.8
		c-9.5,17.8-21.4,34.2-35.2,48.8c-5.6,5.9-5.3,15.2,0.6,20.8c5.9,5.6,15.2,5.3,20.8-0.6c15.5-16.5,28.9-35,39.7-55.1
		C501.1,340.7,512,299.6,512,256C512,114.6,397.4,0,256,0z"/>
</g>
</svg>
