<?xml version="1.0" encoding="utf-8"?>
<!-- Generator: Adobe Illustrator 24.3.0, SVG Export Plug-In . SVG Version: 6.00 Build 0)  -->
<svg version="1.1" id="_x32_" xmlns="http://www.w3.org/2000/svg" xmlns:xlink="http://www.w3.org/1999/xlink" x="0px" y="0px"
	 viewBox="0 0 512 512" style="enable-background:new 0 0 512 512;" xml:space="preserve">
<style type="text/css">
	.st0{fill:#ffffff;}
</style>
<path class="st0" d="M411,280.5H258.4c-12.7,0-23-10.3-23-23v-156c0-12.7,10.3-23,23-23c12.7,0,23,10.3,23,23v133H411
	c12.7,0,23,10.3,23,23C434,270.2,423.7,280.5,411,280.5z"/>
<path class="st0" d="M256,492.3c-63.1,0-122.5-24.6-167.1-69.2c-44.6-44.6-69.2-104-69.2-167.1S44.3,133.5,88.9,88.9
	c44.6-44.6,104-69.2,167.1-69.2s122.5,24.6,167.1,69.2c44.6,44.6,69.2,104,69.2,167.1s-24.6,122.5-69.2,167.1
	C378.5,467.7,319.1,492.3,256,492.3z M256,65.7C151.1,65.7,65.7,151.1,65.7,256S151.1,446.3,256,446.3S446.3,360.9,446.3,256
	S360.9,65.7,256,65.7z"/>
</svg>
