<?xml version="1.0" encoding="utf-8"?>
<!-- Generator: Adobe Illustrator 24.3.0, SVG Export Plug-In . SVG Version: 6.00 Build 0)  -->
<svg version="1.1" id="_x32_" xmlns="http://www.w3.org/2000/svg" xmlns:xlink="http://www.w3.org/1999/xlink" x="0px" y="0px"
	 viewBox="0 0 472.6 472.6" style="enable-background:new 0 0 472.6 472.6;" xml:space="preserve">
<style type="text/css">
	.st0{fill:#4B4B4B;}
</style>
<path class="st0" d="M236.3,472.6c-63.1,0-122.5-24.6-167.1-69.2S0,299.4,0,236.3S24.6,113.8,69.2,69.2S173.2,0,236.3,0
	s122.5,24.6,167.1,69.2s69.2,104,69.2,167.1S448,358.8,403.4,403.4S299.4,472.6,236.3,472.6z M236.3,46C131.4,46,46,131.4,46,236.3
	s85.4,190.3,190.3,190.3s190.3-85.4,190.3-190.3S341.2,46,236.3,46z"/>
<g>
	<polygon class="st0" points="141.8,91.5 141.8,381.1 236.3,333.3 330.8,381.1 330.8,91.5 	"/>
</g>
</svg>
