<svg width="80px" height="80px" id="レイヤー_1" data-name="レイヤー 1" xmlns="http://www.w3.org/2000/svg" viewBox="0 0 395 383.22"><defs><style>.cls-1{fill:#5c5c5c;}</style></defs><path class="cls-1" d="M261,162h111.7V151.76H261Zm203.35,3.76H408.66V124.63L345.32,61.29H225V165.76H169.32a50,50,0,0,0-50,50v125a50,50,0,0,0,50,50h52.5v53.75h190V390.76h52.5a50,50,0,0,0,50-50v-125A50,50,0,0,0,464.32,165.76Zm-79.63-41.57-38.23-.7-.69-37.83Zm7.13,300.32h-150V338.26h150ZM393.77,212H239.87V76.18H330.7l1.13,61.94,61.94,1.13ZM261,195h111.7V184.81H261Z" transform="translate(-119.32 -61.29)"/></svg>