<?xml version="1.0" encoding="utf-8"?>
<!-- Generator: Adobe Illustrator 24.3.0, SVG Export Plug-In . SVG Version: 6.00 Build 0)  -->
<svg version="1.1" id="レイヤー_1" xmlns="http://www.w3.org/2000/svg" xmlns:xlink="http://www.w3.org/1999/xlink" x="0px"
	 y="0px" viewBox="0 0 472.6 472.6" style="enable-background:new 0 0 472.6 472.6;" xml:space="preserve">
<style type="text/css">
	.st0{fill:#4C4B4C;}
</style>
<path class="st0" d="M403.4,69.2C358.8,24.6,299.4,0,236.3,0S113.8,24.6,69.2,69.2C24.6,113.8,0,173.2,0,236.3
	s24.6,122.5,69.2,167.1c44.6,44.6,104,69.2,167.1,69.2s122.5-24.6,167.1-69.2c44.6-44.6,69.2-104,69.2-167.1S448,113.8,403.4,69.2z
	 M357.6,382.8c-3-5-7-9.3-11.6-13c-9.8-7.9-22.4-13.1-34.7-16.4c-11.9-3.2-21.9-4-28.1-6.2c-3.1-1.1-5.2-2.4-6.6-4.3
	c-1.4-1.9-2.3-4.7-2.3-9.3c0-3.8-0.1-7,0.4-9.1c0.5-2.2,1.2-3.4,3.8-4.8c26.3-14.2,32.7-44.8,36.2-57.4c5.1-0.6,9.5-3.3,12.6-7.2
	c3.7-4.6,6-10.6,7.2-16.8c1.1-6.2,1-12.7-0.5-18.4c-1.3-4.8-3.9-9-7.9-11.7c5.8-28.7,0-51.8-9.5-67.6c-4.9-8.1-10.7-14.3-16.4-18.3
	c-5-3.6-10-5.5-14.6-5.5c-10.6-12.8-27-18.7-44.7-19c-0.8,0-1.6,0-2.4,0c-24.7,0.2-51.8,10.8-71.2,29.3c-20,19-31.7,46.9-22.6,79.5
	c0.2,0.8,0.5,1.6,0.8,2.4c-3.6,2.9-5.9,7.1-7.1,11.8c-1.4,5.7-1.4,12-0.2,18.2c1.2,6.1,3.6,12,7.2,16.4c3.1,3.8,7.5,6.5,12.5,7
	c3.5,12.6,9.9,43.2,36.2,57.4c2.6,1.4,3.3,2.7,3.8,4.8c0.5,2.2,0.4,5.3,0.4,9.1c0,4.6-0.9,7.4-2.3,9.3c-1.4,1.9-3.4,3.2-6.6,4.3
	c-6.2,2.2-16.2,3-28.1,6.2c-12.3,3.3-24.9,8.5-34.7,16.4c-4.6,3.7-8.6,8-11.6,13c-42.1-34.9-69-87.7-69-146.5
	C46,131.4,131.4,46,236.3,46s190.3,85.4,190.3,190.3C426.6,295.2,399.7,347.9,357.6,382.8z"/>
</svg>
