<?xml version="1.0" encoding="utf-8"?>
<!-- Generator: Adobe Illustrator 24.3.0, SVG Export Plug-In . SVG Version: 6.00 Build 0)  -->
<svg version="1.1" id="_x32_" xmlns="http://www.w3.org/2000/svg" xmlns:xlink="http://www.w3.org/1999/xlink" x="0px" y="0px"
	 viewBox="0 0 512 512" style="enable-background:new 0 0 512 512;" xml:space="preserve">
<style type="text/css">
	.st0{fill:#ffffff;}
</style>
<g>
	<path class="st0" d="M495.3,423.6c0,0-68.5-60-84.9-76.3c-24.1-23.9-33.7-35.5-25.2-54.9c37.2-75.8,24.3-169.9-38.7-232.9
		c-79.2-79.3-207.7-79.3-287,0c-79.2,79.3-79.2,207.7,0,287c63,63,157.1,75.8,232.8,38.7c19.5-8.5,31,1.1,55,25.2
		c16.4,16.4,76.3,84.9,76.3,84.9c31.1,31.1,55,12,69.4-2.4C507.2,478.5,526.4,454.6,495.3,423.6z M286,286
		c-45.9,45.9-120.3,45.9-166.2,0c-45.9-45.9-45.9-120.3,0-166.1C165.7,74,240.1,74,286,119.9C331.9,165.7,331.9,240.1,286,286z"/>
</g>
</svg>
