<?xml version="1.0" encoding="utf-8"?>
<!-- Generator: Adobe Illustrator 24.3.0, SVG Export Plug-In . SVG Version: 6.00 Build 0)  -->
<svg version="1.1" id="レイヤー_1" xmlns="http://www.w3.org/2000/svg" xmlns:xlink="http://www.w3.org/1999/xlink" x="0px"
	 y="0px" viewBox="0 0 115.9 19.9" style="enable-background:new 0 0 115.9 19.9;" xml:space="preserve">
<style type="text/css">
	.st0{fill:#FFFFFF;}
	.st1{fill:#221714;}
	.st2{fill:none;stroke:#221714;stroke-width:2.4926;}
	.st3{fill:none;stroke:#FFFFFF;stroke-width:1.2463;}
	.st4{fill:#D71718;}
	.st5{fill:none;stroke:#221714;stroke-width:1.2803;stroke-linecap:round;stroke-linejoin:round;}
	.st6{fill:#F5E929;}
</style>
<path class="st0" d="M19,10c-0.2,4.7-3.9,8.3-8.9,8.6c-4.9,0-8.9-3.8-8.9-8.6c0-4.8,4-8.7,8.9-8.7C15,1.3,19,5.2,19,10"/>
<path class="st0" d="M19,10c-0.2,4.7-3.9,8.3-8.9,8.6c-4.9,0-8.9-3.8-8.9-8.6c0-4.8,4-8.7,8.9-8.7C15,1.3,19,5.2,19,10"/>
<path class="st0" d="M19,10c-0.2,4.7-3.9,8.3-8.9,8.6c-4.9,0-8.9-3.8-8.9-8.6c0-4.8,4-8.7,8.9-8.7C15,1.3,19,5.2,19,10"/>
<path class="st0" d="M4.4,10.4L4.4,10.4c-0.1,0-0.1,0-0.1,0.1v0.1c0,0,0,0-0.1,0c0,0,0,0.1,0,0.1c0,0,0,0,0,0c0,0,0,0,0-0.1
	c0,0,0,0,0,0c0.1,0,0.1-0.1,0.2-0.2c0,0,0-0.1,0-0.1c0.1,0,0.2,0,0.2-0.1v-0.1c0,0,0.1,0,0.1,0C4.9,10.2,5,10.1,5.1,10
	c0,0,0.1,0,0.1,0c0,0.1,0,0.1,0,0.1c0,0-0.1,0.1-0.1,0.1c-0.1,0-0.1,0-0.2,0.1H4.9c-0.1,0.1-0.1,0.1-0.2,0.2H4.6
	c0,0-0.1,0.1-0.1,0.1c0,0,0,0,0,0c-0.1,0-0.2,0-0.2,0.1V11c-0.1,0-0.1,0.1-0.2,0.1c0,0,0,0-0.1,0c0,0-0.1,0.1-0.1,0.1
	c0,0,0-0.1-0.1-0.1c0,0,0,0.1-0.1,0.1c0-0.1,0-0.1,0-0.1c0,0,0,0,0,0v0c0-0.1-0.1,0-0.1,0h0c0,0-0.1,0.1-0.1,0.1v0
	c-0.1,0-0.1,0.1-0.1,0.1c0,0,0,0.1,0.1,0.1h0c0,0,0,0,0,0h0c0,0.1,0.1,0.1,0,0.2c0,0-0.1,0.1-0.1,0.1c-0.1,0,0,0.1,0,0.1
	c0,0,0,0,0,0c0,0,0,0.1,0.1,0.1c0.1,0,0.1,0,0.2,0c0.1,0,0-0.1,0.1-0.1h0.1c0,0,0.1-0.1,0.1-0.1c0,0,0-0.1,0-0.1c0,0,0.1,0,0.1,0
	c0,0,0.1,0,0.1-0.1c0-0.1,0-0.1,0-0.2c0,0,0.1,0,0.1-0.1c0.1,0,0.1-0.1,0.2-0.1c0,0,0.1,0,0.1-0.1v0h0c0.1,0,0-0.1,0.1-0.1
	c0,0,0,0,0,0c0,0,0.1-0.1,0.1-0.1c0,0,0,0,0.1-0.1v0c0,0,0.1-0.1,0.1-0.1c0,0,0,0,0-0.1h0c0,0,0,0,0.1,0v0c0,0,0.1,0,0.1,0l0,0
	c0,0,0.1,0.1,0.1,0.1c0,0,0,0,0,0c0,0,0,0,0,0.1c0,0.1,0.1,0.1,0.1,0.1c0.1-0.1,0.2-0.1,0.2-0.2c0,0,0,0,0,0c0,0,0.1,0,0.1-0.1
	c0,0,0,0,0.1,0c0,0,0-0.1,0-0.1h0c0,0,0,0,0-0.1c0,0,0-0.1,0.1-0.1c0.1,0,0.1,0.1,0.2,0.1h0c0,0,0,0,0,0c0.1,0,0.1,0,0.2-0.1
	c0,0,0,0,0,0c0.1,0,0.1-0.1,0.1-0.1c0,0,0,0,0,0v0h0.1c0,0,0,0.1,0,0.1c0,0-0.1,0-0.1,0.1c0,0.1,0,0.2,0.1,0.2c0.1,0,0.1,0,0.1-0.1
	h0c0,0,0,0,0,0c0.1,0,0.1,0,0.1-0.1c0.1,0,0.1,0,0.1-0.1c0,0,0.1,0,0.2,0C7,10.1,7,10,7.2,10c0.1-0.1,0.1-0.2,0.3-0.1
	c0.1-0.1,0.2-0.2,0.3-0.3c0,0,0.1,0,0.1,0c0,0,0,0,0,0c0,0,0.1,0,0.1,0c0,0,0,0,0.1-0.1c0,0,0,0,0-0.1c0,0,0,0,0,0
	c0-0.1,0.2-0.1,0.2-0.2c0.1,0,0.1-0.1,0.2-0.1v0c0,0,0,0,0.1,0c0,0,0,0,0,0c0,0,0,0,0,0h0c0,0,0-0.1,0.1-0.1v0c0,0,0,0,0,0
	c0,0,0.1,0.1,0.1,0.1c0.1,0,0.1-0.1,0.1-0.1V9c0,0-0.1-0.1-0.1,0C8.8,8.9,8.9,8.8,9,8.8c0,0,0.1,0.1,0.1,0.1c0-0.1,0.1-0.1,0.1-0.1
	c0-0.1,0-0.1,0-0.2c0.1,0,0-0.1,0.1-0.2h0.1c0.1,0,0.1-0.1,0.1-0.1c0,0,0-0.1,0.1-0.1h0c0,0,0.1,0,0.1-0.1h0.1c0,0,0.1-0.1,0.1-0.1
	c0,0,0.1,0,0.1,0c0,0-0.1,0-0.1,0.1v0c-0.1,0-0.1,0.1-0.2,0.1c0,0.1-0.1,0.1-0.2,0.1c0,0,0.1,0.1,0.1,0.1c0,0-0.1,0.1-0.1,0.1
	c0,0,0,0,0,0h0c0,0,0,0.1,0,0.1l0,0l0,0c0,0,0-0.1,0.1-0.1v0.1h0c0,0,0,0-0.1,0.1h0c-0.1,0-0.1,0.1-0.2,0.1c0,0-0.1,0-0.1,0v0
	c0,0-0.1,0.1-0.1,0.1c0,0,0,0.1,0,0.1c-0.1,0-0.2,0.1-0.3,0.1c0,0.1,0,0.1,0.1,0.2v0c0,0,0,0,0.1,0.1H9c0,0,0.1-0.1,0.1-0.1h0
	c0,0,0,0,0,0c0-0.1,0-0.1-0.1-0.1c0,0,0.1,0,0.1-0.1c0,0,0,0.1,0,0.1h0c0,0,0.1,0,0.1,0c0,0,0,0,0.1,0v0c0,0,0.1,0,0.1-0.1
	c0,0,0.1,0,0.1,0c0.1,0,0.1-0.1,0.1-0.1c0,0,0.1,0,0.1,0c0,0,0,0,0.1,0C9.8,9,9.8,9,9.9,9c0,0,0,0,0.1-0.1c0,0,0.1,0,0.1,0
	c0,0,0,0,0,0.1c0,0,0,0,0,0v0.1c0,0,0,0,0,0c0,0-0.1,0-0.1,0l0,0l0,0c0,0,0,0,0,0c-0.1,0-0.2,0.1-0.2,0.2c-0.1,0-0.2,0.1-0.3,0.2h0
	c0,0-0.1,0.1-0.1,0.1h0c0,0,0,0,0,0c0,0,0,0.1,0,0.1c0,0.1,0.2,0.1,0.2,0c0.1,0,0.1-0.1,0.1-0.1c0.1,0,0.1,0,0.2,0c0,0,0.1,0,0.1,0
	c0-0.1,0.1-0.1,0.1-0.2V9.4c0.1,0.1,0.1,0,0.2,0c0,0,0,0,0.1,0v0c0,0,0.1,0,0.1-0.1h0c0.1,0,0.1-0.1,0.2-0.1c0,0,0.1-0.1,0.1-0.1v0
	h0.1c0.1,0,0.1-0.1,0.2-0.1c0.1,0,0.1-0.1,0.2-0.1c0,0,0-0.1,0-0.1c0,0,0,0,0,0c0,0,0,0,0,0c0,0,0,0,0,0c0,0,0,0,0,0H11
	c0,0,0.1,0,0.1-0.1c0,0,0.1,0,0.1,0c0,0,0-0.1,0.1-0.1c0,0,0,0,0,0l0,0c0.1,0,0.1,0,0.2,0h0c0,0,0,0,0,0l0,0c0,0,0,0,0,0v0
	c0,0,0,0,0,0c0,0,0.1,0,0.1-0.1l0,0c0,0,0,0,0,0l0,0l0,0c0,0,0,0,0.1,0c0.1,0,0.1-0.1,0.1-0.1c0,0,0,0,0,0c0,0,0.1,0,0.1-0.1h0
	C12,8,12,8,12,8c0,0,0,0,0,0h0C12,8,12,8,12,8l0,0c0,0,0,0,0,0c0,0,0,0,0,0h0c0,0,0,0,0,0l0,0c-0.1,0.1-0.2,0.1-0.1,0.2
	c0,0.1,0.1,0.2,0.2,0.1c0.1,0,0.1-0.1,0.1-0.1l0,0l0,0c0,0,0,0.1,0.1,0.2c0.1,0,0.1,0,0.2,0c0.1-0.1,0.1,0,0.2,0c0,0,0-0.1,0-0.1h0
	c0-0.1,0.1-0.1,0.1-0.1v0c0,0,0.1-0.1,0.1,0c0-0.1,0.1,0,0.1,0l0,0l0,0h0c0,0,0-0.1,0-0.1h0c0,0,0-0.1,0.1-0.1c0.1-0.1,0.1,0,0.2,0
	c0,0,0,0,0.1,0c0,0,0.1,0,0.1,0c0,0,0,0,0,0c0,0,0-0.1,0-0.1c0.1,0,0.1,0,0.1-0.1h0c0,0,0.1,0,0.1-0.1c0,0,0,0,0,0c0,0,0,0,0,0
	c0,0,0.1,0,0.1,0l0,0c0,0,0.1-0.1,0.1-0.1c0-0.1,0,0,0,0c0,0,0,0,0,0c0,0,0,0,0,0c-0.1,0.1-0.1,0.1-0.2,0.2c-0.1,0-0.1,0.1-0.2,0.1
	c-0.1,0-0.1,0-0.1,0.1l0,0c-0.1,0,0,0.1-0.1,0.1c-0.1,0-0.1,0-0.1,0.1c-0.1,0-0.2,0.1-0.2,0.1c0,0,0,0-0.1,0c0,0,0,0,0,0h0
	c-0.1,0.1-0.2,0.1-0.1,0.2c0,0,0,0,0,0c0.1,0,0.1,0,0.1-0.1c0,0,0.1,0,0.1,0c0,0,0,0,0,0v0c0,0,0,0,0.1-0.1c0,0,0.1,0,0.1,0
	c0,0,0-0.1,0-0.1c0.1,0,0.1,0,0.1,0c0.1,0,0.1-0.1,0.1-0.1c0,0,0,0,0,0c0,0,0,0,0,0l0,0c0,0,0,0,0,0c0.1,0,0.1-0.1,0.1-0.1l0,0
	c0,0,0.1,0,0.1,0C14,8,14,7.9,14.1,7.9c0.1,0,0.1,0,0.1,0c0.1,0,0.1-0.1,0.1-0.1v0c0,0,0.1,0,0.1-0.1c0.1,0,0.1-0.1,0.2-0.1
	c0,0,0-0.1,0-0.1c0,0,0,0,0,0c0-0.1,0.1-0.1,0.2-0.1l0,0c0,0,0,0,0,0c0,0,0-0.1,0.1-0.1c0,0,0,0,0,0c0,0,0-0.1,0.1-0.1
	c0,0,0.1,0,0.2,0c0.1,0,0.1-0.1,0.1-0.1c0,0,0.1,0,0.1,0c0.1-0.1,0.1-0.1,0.2-0.2c0,0,0,0,0,0c0,0,0,0,0,0c0,0,0,0,0,0
	c0,0,0.1,0,0.1,0c0,0,0,0,0.1-0.1c0,0,0,0,0,0c0,0,0,0.1,0,0.1h-0.1C15.5,7,15.4,7,15.4,7.1c0,0.1,0.1,0.1,0.1,0.1
	c-0.1,0-0.1,0.1-0.2,0.1c0,0-0.1,0-0.1,0c-0.1,0.1-0.2,0.1-0.2,0.2h0c0,0,0,0,0,0.1h0c0,0,0-0.1-0.1-0.1l0,0c0,0,0,0,0,0l0,0
	c0,0,0,0,0,0c-0.1,0-0.1,0.1-0.1,0.1c0,0.1,0,0.1,0,0.1h0c0,0-0.1,0-0.1,0.1c0,0-0.1,0-0.1,0c0,0-0.1,0-0.1,0
	c-0.1,0.1-0.1,0.2-0.2,0.2c-0.1,0-0.1,0-0.2,0c-0.1,0,0,0.1-0.1,0.1c-0.1,0-0.1,0.1-0.2,0.1c0,0,0,0-0.1,0c0,0,0,0,0,0v0
	c0,0.1,0.1,0.1,0.1,0.2h-0.1c-0.1,0.1-0.1,0.1-0.2,0.1h0c-0.1,0-0.1,0.1-0.1,0.1c0,0-0.1,0-0.1,0c0,0,0,0,0,0l0,0l0,0
	c0,0-0.1,0-0.1,0.1h-0.1c-0.1,0-0.1,0.1-0.1,0.1c0,0,0,0,0,0c0,0-0.1,0.1-0.1,0.1c-0.1,0-0.2,0.1-0.2,0.1l0,0c-0.1,0,0,0.1-0.1,0.1
	c-0.1,0-0.1,0-0.1,0.1v0h-0.1c0,0-0.1,0-0.1,0.1c0,0,0,0,0,0h-0.1c-0.1,0-0.1,0.1-0.1,0.1c0,0,0,0.1,0,0.1c0,0.1,0.1,0.1,0.2,0.1
	c0,0,0.1-0.1,0.1-0.1c0,0,0-0.1,0.1-0.1l0,0c0,0,0.1-0.1,0.1-0.1c0.1,0,0.1-0.1,0.2-0.2c0,0,0,0,0.1,0l0,0c0,0,0,0,0,0
	C12.9,9.4,13,9.3,13,9.3l0,0c0,0,0,0,0-0.1h0.1c0,0,0.1-0.1,0.1-0.1c0,0,0.1,0,0.1-0.1v0c0.1,0,0.1,0,0.2,0c0,0,0.1,0,0.1-0.1h0.1
	c0.1,0,0.1-0.1,0.2-0.1c0.1,0,0.2,0,0.2,0c0,0,0,0,0,0c0,0,0,0,0,0c0,0-0.1,0-0.1,0C14,9,14,9,14.1,9.1c0.1,0,0.1,0,0.1,0
	c0.1,0,0.1-0.1,0.1-0.2l0,0l0,0c0,0,0,0,0,0c0,0,0-0.1,0-0.1h0c0,0,0,0,0.1-0.1c0,0,0-0.1,0-0.1c0,0,0.1-0.1,0.1-0.1
	c0-0.1,0.1-0.1,0.1-0.1v0c0.1,0.1,0.1,0.2,0,0.2c0,0-0.1,0.1-0.1,0.1c0,0,0,0,0.1,0.1l0,0l0,0c0,0,0.1,0,0.2-0.1c0,0,0,0,0.1,0
	c0,0,0.1-0.1,0.1-0.1h0c0.1-0.1,0.2-0.1,0.3-0.2c0.1,0,0.2,0,0.2,0c0-0.1,0.1,0,0.1,0c0,0,0,0,0-0.1c0.1,0,0.1,0,0.1,0
	c0.1-0.1,0.1-0.1,0.2-0.2c0,0,0-0.1,0-0.1l0,0c0,0,0,0,0-0.1c0,0,0.1,0,0.1,0h0c0,0,0,0,0,0c0,0,0.1,0,0.1,0c0,0,0-0.1,0-0.1
	c0,0,0,0.1,0,0.1h0c0,0,0,0,0,0c0.1,0,0.1,0,0.1,0l0,0c0.1,0,0.1-0.1,0.1-0.1l0,0c0,0,0,0,0.1,0l0,0l0,0l0,0c0,0,0,0,0,0
	c0,0,0,0,0,0c0,0,0.1,0,0.1-0.1c-0.1,0,0-0.1,0-0.1c0,0,0,0,0,0c0.1,0,0.1,0.1,0.2,0c0,0,0.1,0,0.1,0c0.1,0,0.1-0.1,0.1-0.2
	c0.1,0,0.3,0.1,0.4-0.1h0c0,0,0,0,0,0c0.1,0,0.1,0,0.1-0.1l0,0c0,0,0,0,0-0.1h0c0,0,0,0.1,0,0.1c-0.1,0-0.1,0.1-0.1,0.1
	c0,0-0.1,0-0.1,0c-0.1,0.1-0.1,0.1-0.2,0.2c0.1,0.1,0.3,0.1,0.4,0v0c0,0,0,0,0,0c0,0,0-0.1,0-0.1c0,0,0,0,0,0c0,0,0,0,0,0
	c0.1,0,0.1,0,0.2,0c0,0,0,0,0,0h-0.1c0,0-0.1,0.1-0.1,0.1c0,0-0.1,0-0.1,0c0,0-0.1,0.1-0.1,0.1h0c0,0,0,0,0,0c0,0,0,0-0.1,0
	c0,0-0.1,0-0.1,0.1C17.1,8,17,8,17,8.1h-0.1c0,0,0,0,0,0c0,0-0.1,0-0.1,0c0,0,0,0,0,0c0,0,0,0.1,0,0.1c0,0-0.1,0-0.1,0
	c0,0-0.1,0.1-0.1,0.1c-0.1,0-0.1,0.1-0.1,0.1c-0.1,0-0.2,0.1-0.3,0.2c0,0-0.1,0-0.1,0C16,8.6,16,8.7,16,8.8c-0.1,0-0.1,0-0.2,0.1
	h-0.1c-0.1,0,0,0.1,0,0.1c-0.1,0-0.1,0.1-0.2,0.1v0c0,0.1,0.1,0.1,0.1,0.1c0,0,0.1-0.1,0.1-0.1h0c0.1-0.1,0.1,0,0.2,0
	c0,0-0.1,0.1-0.1,0.1c0,0-0.1,0-0.1,0c0,0-0.1,0.1-0.1,0.1c0,0.1,0,0.1,0.1,0.1c0,0-0.1,0-0.1,0.1h0c0,0,0,0,0,0h0
	c0,0-0.1,0.1-0.1,0.1v0c0,0,0,0,0.1,0.1c0,0,0.1,0,0.1,0.1c-0.1,0-0.1,0.1-0.1,0.1c0,0,0,0,0.1,0.1c0,0,0,0,0,0h0
	c0-0.1,0.1,0,0.1-0.1l0,0c0,0,0.1-0.1,0.1-0.1l0,0c0.1,0,0.1-0.1,0.1-0.1h0c0.1,0,0.2-0.1,0.3-0.1c0.1,0,0.1-0.1,0.1-0.1h0
	c0,0,0.1-0.1,0.1-0.1c0,0,0,0,0,0l0,0c0,0,0.1,0,0.1,0c0,0,0,0,0.1,0c0,0,0,0,0-0.1c0.1,0,0.1,0,0.1-0.1l0,0c0,0,0-0.1,0-0.1
	c0.1,0,0.2,0,0.2-0.1c0.1,0,0.1,0,0.2-0.1c0.1,0,0.1,0,0.1-0.1c0,0,0.1,0,0.1,0h0.1c0,0,0,0.1,0,0.1c0,0-0.1,0-0.1,0l0,0l0,0l0,0
	c-0.1,0.1-0.1,0.1-0.2,0.1l0,0l0,0c0,0,0,0,0,0c0,0-0.1,0.1-0.1,0.1c0,0-0.1,0.1-0.1,0.1c-0.1,0-0.1,0.1-0.2,0.2h0
	c-0.1,0-0.1,0.1-0.1,0.1c0,0-0.1,0-0.1,0c0,0,0,0-0.1,0.1h-0.1c-0.1,0.1-0.2,0.2-0.4,0.2c0,0,0,0,0,0c0,0,0,0,0,0c0,0-0.1,0-0.1,0.1
	c0,0,0,0.1,0.1,0.1v0c0,0,0,0,0,0h0c0,0,0,0,0.1-0.1v0c0.1,0,0.1-0.1,0.2-0.1c0,0,0,0,0.1,0c0,0,0,0,0,0c0,0,0,0,0,0l0,0
	c0.1,0,0.1,0,0.1-0.1c0,0,0,0,0.1,0c0.1-0.1,0.1-0.1,0.2-0.1c0,0,0,0,0.1,0c0,0,0,0,0.1,0c0.1-0.1,0.1-0.1,0.2-0.2c0,0,0.1,0,0.1,0
	c0.1,0,0.1-0.1,0.1-0.1h0.1c0,0,0,0,0,0c0,0,0,0,0,0c0,0,0,0,0.1,0c0,0,0.1,0,0.1,0c0,0,0.1-0.1,0.1-0.1c0.1,0,0.1,0,0.2,0
	c0,0,0.1,0,0.1-0.1l0,0l0,0c0,0,0,0,0,0c0,0,0,0,0,0c0,0,0,0,0,0c0,0,0,0,0-0.1c0,0,0,0,0,0c0,0,0.1,0.1,0.1,0.1
	c0.1,0,0.1-0.1,0.1-0.2c0.1,0,0.2,0,0.3,0c0.1,0,0.1-0.1,0.1-0.2l0,0c0,0,0,0,0,0c0.1,0,0,0,0.1,0.1c0,0,0,0,0,0c0,0,0,0,0,0
	c0,0,0,0,0,0h0c0,0,0,0,0,0c0,0,0,0,0,0c0,0,0,0,0,0c0,0,0,0,0,0c0.1,0,0,0.1,0,0.2c0,0,0,0,0,0c0,0,0,0,0,0.1c0,0,0,0,0,0
	c0,0.1,0,0.1,0,0.2c0,0,0,0,0,0c0,0,0,0,0,0.1c0,0.1,0,0.3,0,0.4c0,0.1,0,0.1,0,0.1c0,0,0,0,0,0c0,0,0,0,0,0c0,0,0,0,0,0
	c0,0,0,0,0,0l0,0c-0.1,0,0,0.1,0,0.1c-0.1,0.1,0,0.2,0,0.3v0.1c0,0,0,0,0,0c0,0,0,0,0,0h0l0,0l0,0c0,0,0,0,0,0.1c0,0.1,0,0.1,0,0.2
	c0,0,0,0,0,0.1c0,0,0,0,0,0c0,0,0,0,0,0.1c-0.1,0.1,0,0.2-0.1,0.2c0.1,0.1,0,0.1,0,0.2c0,0,0,0,0,0c-0.1,0,0,0.1,0,0.2c0,0,0,0,0,0
	c0,0,0,0,0,0.1c0,0,0,0,0,0.1c0,0.1-0.1,0.2-0.1,0.3c0,0.1-0.1,0.3-0.1,0.4c0,0,0,0,0,0c0,0.1-0.1,0.2-0.1,0.3c0,0,0,0,0,0
	c0,0,0,0.1-0.1,0.1v0c0,0-0.1,0-0.1,0c0,0,0,0,0,0c-0.1,0.2-0.1,0.3-0.2,0.5c0,0.1-0.1,0.2-0.1,0.3c0,0-0.1,0-0.1,0l0,0
	c0,0.1-0.1,0.1-0.1,0.2c-0.1,0.1-0.1,0.2-0.2,0.3c0,0,0,0,0,0c-0.1,0.1-0.1,0.1-0.2,0.2c0,0,0,0,0,0c0,0.1-0.1,0.1-0.1,0.1
	c0,0.1-0.1,0.1-0.1,0.1v0c-0.1,0-0.1,0.1-0.1,0.1c0,0,0,0,0,0v0c-0.1,0.1-0.2,0.2-0.3,0.4v0h0c0,0,0,0,0,0v0c0,0-0.1,0-0.1,0.1
	c0,0,0,0,0,0c-0.2,0.2-0.3,0.4-0.5,0.5c0,0,0,0-0.1-0.1c0,0,0,0,0,0c0.1,0.1,0,0.1-0.1,0.1l0,0c0,0,0,0.1-0.1,0.1h0
	c-0.1,0.1-0.2,0.2-0.4,0.3h0c-0.1,0-0.1,0.1-0.2,0.1h0c-0.1,0.1-0.2,0.1-0.2,0.2h0c0,0-0.1,0.1-0.1,0.1c-0.1,0-0.1,0-0.2,0.1h-0.1
	c-0.1,0-0.1,0.1-0.2,0.1c-0.1,0-0.1,0.1-0.2,0.1c-0.1,0-0.1,0.1-0.2,0.1h-0.1c-0.1,0-0.1,0.1-0.1,0.1l0,0c0,0-0.1,0-0.1,0
	c0,0,0,0-0.1,0.1l0,0c-0.1,0.1-0.1,0.1-0.2,0.1c0,0,0,0,0,0c-0.1,0.1-0.1,0.1-0.2,0.1l0,0c-0.1,0-0.1,0.1-0.1,0.1l0,0c0,0,0,0-0.1,0
	c0,0.1-0.1,0.1-0.1,0.1l0,0c-0.1,0-0.1,0-0.2,0.1l0,0c0,0,0,0,0,0c-0.1,0-0.2,0.1-0.3,0.1c-0.2,0.1-0.4,0.1-0.6,0.2l0,0
	c-0.1,0-0.1,0-0.2,0.1c-0.1,0-0.2,0-0.3,0.1c0,0-0.1,0-0.1,0l0,0c0,0,0,0,0,0c0,0-0.1,0-0.1,0c-0.1,0-0.2,0-0.2,0.1c0,0,0,0,0,0l0,0
	l0,0c-0.1,0.1-0.3,0.1-0.4,0.1c0,0-0.1,0-0.1,0c-0.1,0-0.3,0-0.4,0c0,0-0.1,0-0.1,0c0,0,0,0,0,0c0,0-0.1,0-0.1,0l0,0
	c0,0-0.1,0-0.1,0l0,0l0,0l0,0c0,0,0,0-0.1,0c-0.1,0-0.1,0-0.2,0l0,0l0,0c0,0,0,0,0,0c0,0,0,0,0,0c0,0-0.1,0-0.1,0l0,0
	c-0.1,0-0.1,0-0.2,0l0,0c0,0-0.1,0-0.1,0l0,0c-0.1,0-0.2-0.1-0.3-0.1c-0.1-0.1-0.2,0-0.3-0.1c0,0,0,0,0,0c0,0,0,0,0,0c0,0,0,0,0,0
	c0,0,0,0,0,0c0,0,0,0-0.1,0c0-0.1-0.1,0-0.1,0c0,0,0,0,0,0c0,0,0,0,0,0c-0.1,0-0.1,0-0.1-0.1c0,0-0.1,0-0.1,0c0,0-0.1,0-0.1,0
	c0,0,0,0-0.1,0H7.7c0,0,0,0,0,0c0,0,0,0,0,0c-0.1,0-0.1,0-0.2-0.1l0,0c-0.1-0.1-0.3-0.1-0.4-0.1c-0.1,0-0.1,0-0.2-0.1l0,0
	c-0.1,0-0.2-0.1-0.3-0.1l0,0c-0.1,0-0.2-0.1-0.2-0.1c0,0,0,0,0,0c-0.1,0-0.2-0.1-0.2-0.1c0,0,0,0,0,0c-0.1,0-0.2-0.1-0.3-0.1
	c-0.1,0-0.2-0.1-0.3-0.1c0,0,0,0,0,0c0,0,0,0,0,0h0c-0.1-0.1-0.2-0.1-0.3-0.2l0,0c0,0-0.1,0-0.1-0.1l0,0c-0.2-0.1-0.3-0.2-0.5-0.4h0
	c-0.1-0.1-0.1-0.1-0.2-0.1h0c-0.1-0.1-0.1-0.1-0.2-0.2h0C4,16.4,4,16.3,3.9,16.2h0c-0.1-0.1-0.2-0.2-0.2-0.2v0
	c-0.1-0.1-0.2-0.2-0.3-0.3c-0.1-0.1-0.1-0.1-0.2-0.2c0,0,0-0.1,0-0.1c0,0,0,0,0,0v0c-0.2-0.2-0.3-0.3-0.4-0.5v0c0,0,0,0,0,0
	c-0.1-0.2-0.2-0.3-0.3-0.5v0c-0.3-0.4-0.4-0.7-0.6-1.1c0-0.1-0.1-0.2-0.1-0.3c-0.1-0.1-0.1-0.3-0.2-0.4c0,0,0,0,0,0
	c0-0.1,0-0.1-0.1-0.2c0-0.1-0.1-0.2-0.1-0.3c-0.1-0.2-0.1-0.4-0.1-0.6v0c0-0.1-0.1-0.3-0.1-0.4c0,0,0,0,0,0c0-0.2,0-0.5,0-0.7
	c0,0,0-0.1,0-0.1c0-0.1,0-0.2,0-0.2c0,0,0,0,0,0c0,0,0,0,0,0c0-0.2,0-0.5,0-0.7c0,0,0,0,0-0.1c0,0,0,0,0,0c0.1-0.2,0.1-0.5,0.1-0.7
	c0,0,0,0,0,0l0,0c0,0,0,0,0,0c0-0.1,0-0.1,0-0.2c0-0.1,0-0.1,0.1-0.2c0-0.1,0-0.2,0.1-0.2c0.1-0.1,0.1-0.2,0.1-0.2
	C1.6,7.1,1.6,7,1.7,6.9c0-0.1,0-0.1,0.1-0.2c0,0,0-0.1,0-0.1C1.9,6.5,1.9,6.3,2,6.2c0,0,0,0,0,0l0,0c0.1-0.2,0.2-0.5,0.4-0.7v0
	c0,0,0,0,0,0c0-0.1,0.1-0.1,0.1-0.2c0,0,0.1,0,0.1,0v0c0,0,0,0,0.1-0.1v0C2.7,5,2.7,5,2.8,4.9v0c0.1,0,0.1-0.1,0.1-0.1v0
	C3,4.7,3,4.6,3,4.6c0.1-0.1,0.2-0.2,0.3-0.3c0,0,0.1-0.1,0.1-0.1c0,0,0.1,0,0.1-0.1c0,0,0.1,0,0.1-0.1c0,0,0.1-0.1,0.1-0.1v0
	c0.1-0.1,0.2-0.1,0.2-0.2h0C4,3.6,4,3.6,4.1,3.5l0,0c0,0,0-0.1,0.1-0.1c0.1,0,0.1-0.1,0.2-0.2c0.1-0.1,0.2-0.1,0.3-0.2h0
	C4.7,3,4.8,3,4.8,3h0C5,2.8,5.2,2.7,5.4,2.6c0,0,0,0,0,0h0c0,0,0.1-0.1,0.1-0.1c0,0,0,0,0,0c0-0.1,0.1-0.1,0.1-0.1
	c0.1,0,0.1-0.1,0.1-0.1l0,0c0,0,0,0,0,0h0c0,0,0.1,0,0.1,0l0,0c0,0,0,0,0,0h0c0.1-0.1,0.2-0.1,0.3-0.1l0,0c0,0,0.1,0,0.1,0l0,0
	c0,0,0,0,0-0.1h0c0,0,0,0,0,0l0,0C6.5,2,6.6,2,6.7,1.9c0,0,0,0,0,0c0,0,0.1,0,0.1,0c0,0,0.1,0,0.1,0c0,0,0,0,0,0
	c0.1,0,0.1,0,0.2-0.1l0,0c0.1,0,0.1,0,0.1-0.1h0c0,0,0.1,0,0.1,0c0,0,0.1,0,0.1,0c0,0,0,0,0,0c0,0,0,0,0,0l0,0l0,0c0,0,0.1,0,0.1,0
	c0,0,0,0,0,0c0.1,0,0.1,0,0.2,0c0,0,0,0,0,0c0,0,0.1,0,0.1,0c0,0,0,0,0,0C8,1.5,8,1.5,8.1,1.5c0,0,0,0,0,0h0.1c0,0,0,0,0,0h0.2
	c0,0,0,0,0,0c0,0,0,0,0,0c0,0,0.1,0,0.1,0c0,0,0,0,0,0h0.1l0,0c0,0,0,0,0,0c0,0,0,0,0,0c0,0,0,0,0,0c0-0.1,0.1,0,0.2,0c0,0,0,0,0,0
	h0.1c0,0,0,0,0,0c0.1,0,0.2,0,0.3,0c0,0,0.1,0,0.1,0c0,0,0,0,0,0c0,0,0.1,0,0.1,0c0,0,0,0,0,0l0,0c0,0,0,0,0,0c0,0,0.1,0,0.1,0l0,0
	l0,0c0,0,0,0,0,0l0,0l0,0c0,0,0,0,0,0c0.2,0,0.3,0,0.5,0c0.1,0,0.1-0.1,0.2,0h0.1c0.2,0,0.3,0,0.5,0c0,0,0,0,0,0c0.1,0,0.1,0,0.2,0
	c0.1,0,0.2,0,0.2,0c0.1,0,0.1,0,0.2,0c0,0,0,0,0,0c0.1,0,0.1,0,0.1,0c0,0,0,0,0,0c0,0,0.1,0,0.1,0.1c0,0,0,0,0,0c0,0,0.1,0,0.1,0
	c0,0,0,0,0,0l0,0c0.1,0,0.1,0,0.1,0c0.1,0,0.1,0,0.2,0.1l0,0c0,0.1,0.1,0,0.2,0c0,0,0.1,0,0.1,0c0,0,0,0,0,0h0.1c0,0,0,0,0,0l0,0
	c0.1,0.1,0.1,0,0.2,0.1c0,0,0,0,0,0c0.1,0,0.1,0,0.2,0c0,0,0,0,0,0l0,0c0,0,0.1,0,0.1,0l0,0c0.1,0.1,0.1,0.1,0.2,0.1
	C13.5,2,13.6,2,13.6,2h0.1c0,0,0.1,0.1,0.1,0.1c0,0,0,0,0,0h0c0.1,0.1,0.1,0.1,0.2,0.1h0c-0.1,0.2-0.2,0.2-0.4,0.3v0
	c-0.1,0-0.1,0-0.2,0.1v0h0c0,0,0,0.1-0.1,0.1l0,0c0,0-0.1,0-0.2,0.1l0,0c0,0,0,0,0,0c0,0,0,0,0,0c-0.1,0-0.1,0.1-0.1,0.1
	c-0.2,0.1-0.3,0.2-0.4,0.3h-0.1c-0.1,0.1-0.2,0.2-0.2,0.2c-0.1,0-0.1,0-0.1,0.1c-0.1,0-0.2,0-0.2,0.1c0,0-0.1,0-0.1,0
	c0,0,0,0.1-0.1,0.1h0c0,0-0.1,0.1-0.1,0.1c0,0,0,0-0.1,0l0,0l0,0c-0.1,0.1-0.2,0.2-0.2,0.2c0,0,0,0-0.1,0c0,0-0.1,0-0.1,0
	c0,0,0,0,0,0c0,0-0.1,0-0.1,0c0,0,0,0,0,0c0,0-0.1,0-0.1,0c0,0-0.1,0.1-0.1,0.1c-0.1,0-0.2,0.1-0.3,0.2c0,0,0,0.1,0,0.1l0,0
	c0,0,0,0,0,0.1c0,0,0,0,0,0c0,0,0,0-0.1,0c0,0-0.1,0.1-0.1,0.1c-0.1,0-0.1,0-0.1,0.1c0,0,0,0,0,0c-0.1,0-0.1,0.1-0.1,0.1
	c0,0-0.1,0-0.1,0c0,0,0,0,0,0c0,0-0.1,0-0.1,0l0,0C10.1,5,10.1,5,10.1,5.1c-0.1,0-0.1,0-0.1,0.1c0,0,0,0-0.1,0l0,0l0,0c0,0,0,0,0,0
	c-0.1,0-0.1,0.1-0.1,0.2c-0.1,0-0.1,0.1-0.2,0.1c-0.1,0-0.1,0.1-0.2,0.1h0c-0.1,0-0.1,0.1-0.2,0.1h0C9.1,5.8,9,5.8,9,5.9H8.9
	c0,0-0.1,0.1-0.1,0.1C8.8,6,8.7,6,8.7,6c0,0.1-0.1,0.1-0.1,0.1l0,0c0,0.1-0.1,0.1-0.1,0.1l0,0c0,0,0,0,0,0c0,0,0,0,0,0
	c-0.1,0-0.1,0-0.1,0v0.1C8.3,6.4,8.2,6.4,8.1,6.5c0,0-0.1,0.1-0.1,0.1l0,0l0,0c0,0,0,0,0,0l0,0l0,0C7.9,6.6,7.8,6.7,7.9,6.7
	c0,0,0,0-0.1,0c0,0,0,0,0,0l0,0c0,0,0,0.1-0.1,0.1c-0.1,0-0.1,0-0.1,0v0.1c0,0,0,0,0,0C7.4,7,7.3,7.1,7.2,7.2c0,0,0,0,0,0.1
	c-0.1,0-0.2,0-0.2,0.1l0,0l0,0c0,0,0,0,0,0c0,0,0,0-0.1,0.1c0,0,0,0,0,0.1c0,0-0.1,0.1-0.1,0.1c0,0,0,0-0.1,0c0,0.1-0.1,0.2-0.2,0.2
	C6.5,7.7,6.4,7.8,6.4,7.9c0,0.1,0,0.1,0.1,0.1c0,0,0,0,0,0l0,0c0.1-0.1,0.1-0.1,0.2-0.1c0-0.1,0.2-0.1,0.2-0.2V7.6l0,0
	c0,0,0,0,0-0.1l0,0c0,0,0-0.1,0.1-0.1l0,0l0,0l0,0c0,0,0,0,0.1,0c0,0,0,0,0.1-0.1c0,0,0,0,0-0.1c0.1,0,0.1,0,0.1,0c0,0,0,0,0,0
	c0,0,0.1,0,0.1-0.1c0,0,0,0,0,0c0,0,0,0,0,0h0c0,0,0.1-0.1,0.1-0.1v0l0,0c0,0,0.1-0.1,0.1-0.1c0.1-0.1,0.1,0,0.2,0
	C7.9,7,7.9,7,8,6.9c0,0,0-0.1,0.1-0.1c0,0,0.1,0,0.1-0.1V6.7c0.1,0,0.1,0,0.2,0c0,0,0.1,0,0.1-0.1v0c0,0,0-0.1,0.1-0.1
	c0.1,0,0.1-0.1,0.2-0.1c0,0,0.1,0,0.1,0v0c0,0,0,0,0,0c0,0,0,0,0.1-0.1v0c0,0,0,0,0.1-0.1c0,0,0,0,0,0c0.1,0,0.1-0.2,0.2-0.1
	c0-0.1,0.1-0.1,0.1-0.1h0.1c0,0,0.1,0,0.1-0.1h0.1c0.1,0,0.1-0.1,0.2-0.1c0,0,0.1,0,0.1,0c0,0,0.1-0.1,0.1-0.1c0,0,0,0,0,0
	c0-0.1,0.1-0.1,0.1-0.1h0c0,0,0,0,0-0.1c0.1,0,0.1-0.1,0.2-0.1h0.1c0,0.1,0,0.1-0.1,0.1c0,0,0,0-0.1,0c0,0-0.1,0.1-0.1,0.1l0,0
	c-0.1,0-0.2,0.1-0.3,0.2C9.6,5.8,9.5,5.9,9.4,6c0,0-0.1,0-0.1,0c0,0,0,0,0,0h0c-0.1,0-0.1,0.1-0.1,0.1l0,0c0,0-0.1,0-0.1,0.1v0
	C9,6.3,9,6.3,9,6.3C9,6.4,9.1,6.4,9.2,6.4c0,0,0,0,0,0c0,0,0,0,0,0h0c0.1-0.1,0-0.1,0.1-0.2h0.1c0,0,0,0,0,0h0.1c0,0,0,0,0,0
	c0.1,0,0.2-0.1,0.2-0.1c0.1,0,0,0.1,0,0.1c-0.1,0-0.1,0-0.2,0c0,0-0.1,0.1-0.1,0.1c0,0,0,0-0.1,0c0,0-0.1,0.1-0.1,0.1c0,0,0,0-0.1,0
	l0,0c0,0,0,0,0,0l0,0c-0.1,0-0.1,0-0.1,0.1c0,0,0,0.1,0,0.1c0,0,0,0,0,0c0,0,0,0,0,0c0-0.1,0-0.2,0-0.2c0,0,0-0.1-0.1-0.1H8.9
	c0,0,0-0.1-0.1,0c0,0-0.1,0-0.1,0.1v0h0C8.6,6.5,8.6,6.6,8.5,6.6c0,0,0,0.1,0.1,0.1h0c0,0,0,0,0,0c0,0,0,0,0.1,0v0
	c0,0-0.1,0-0.1,0.1c-0.1,0-0.1,0-0.2,0.1H8.4c0,0,0,0,0,0c0,0.1,0,0.1-0.1,0.2v0.1c0,0,0,0-0.1,0.1v0.1c0,0-0.1,0-0.1,0l0,0
	c0,0,0,0,0,0l0,0C8,7.4,8,7.5,7.9,7.6c0,0,0,0,0,0C7.8,7.6,7.7,7.7,7.6,7.8c-0.1,0-0.1,0.1-0.1,0.1c0,0,0-0.1-0.1-0.1
	c0,0-0.1,0-0.1,0l0,0C7.3,7.8,7.2,7.8,7.1,7.9l0,0c0,0-0.1,0-0.1,0.1C7,8,7,8,7,8C7,8.1,7,8.1,7,8.1l0,0c0,0,0,0.1,0,0.1
	c0,0-0.1,0-0.1,0C6.9,8.3,6.8,8.4,6.7,8.4c0,0,0,0,0,0h0c0,0,0,0,0,0.1c-0.1,0-0.1,0-0.1,0.1c0,0,0,0.1,0,0.1
	C6.4,8.7,6.3,8.8,6.2,8.9c0,0,0,0-0.1,0c0,0,0,0.1-0.1,0.1v0c0,0-0.1,0-0.1,0.1h0c0,0.1-0.1,0-0.1,0.1l0,0c0,0-0.1,0-0.1,0
	c-0.1,0,0,0.1-0.1,0.1l0,0c0,0-0.1,0-0.1,0C5.6,9.2,5.5,9.2,5.5,9.3c0,0,0,0.1,0,0.1c0,0,0,0,0,0c0,0,0.1,0,0,0.1l0,0h0
	c-0.1,0-0.1,0.1-0.1,0.2c0,0,0,0-0.1,0h0c0,0,0,0,0,0c0,0-0.1,0-0.1,0c0,0,0,0,0,0c0,0,0,0.1,0,0.1C5.1,9.8,5,9.9,4.9,10
	c-0.1,0-0.1,0-0.2,0.1v0c-0.1,0-0.1,0.1-0.1,0.1c0,0,0,0,0,0c0,0-0.1,0-0.1,0c0,0,0,0,0,0C4.5,10.3,4.4,10.3,4.4,10.4
	C4.4,10.5,4.4,10.4,4.4,10.4"/>
<path class="st0" d="M4.5,12.5C4.5,12.5,4.5,12.6,4.5,12.5c0.2,0.1,0.3,0,0.4,0c0,0,0-0.1,0.1-0.1c0,0,0,0,0.1,0c0,0,0-0.1,0-0.1
	c0.1,0,0.1,0,0.2,0c0,0,0-0.1,0.1-0.1c0,0,0.1,0,0.1,0c0,0,0-0.1,0-0.1c0,0,0,0,0.1,0c0,0,0,0,0,0c0,0.1,0,0.1,0,0.2c0,0,0,0,0,0
	c0,0,0,0,0,0.1c0,0.1,0,0.1,0,0.1c0,0,0,0.1,0.1,0.1h0c0,0,0,0,0,0h0c0,0,0.1,0.1,0.1,0.1c0.1,0.1,0,0.3,0,0.4c-0.1,0,0,0-0.1,0.1
	v0.1c0.1,0,0.1,0.1,0.1,0.1l0,0c0,0,0,0,0,0.1h0c0,0,0,0,0,0c0,0,0.1,0,0.1-0.1c0,0,0,0.1,0.1,0.1c0,0,0,0,0,0c0,0,0,0.1,0.1,0.1
	c0,0,0,0.1,0,0.1c0,0,0,0-0.1,0v0c0,0,0,0-0.1,0c0,0.1-0.1,0.1-0.1,0.1C5.9,14,6,14,6,14c0,0,0-0.1,0.1-0.1h0.1c0.1,0,0.1,0,0.1,0.1
	c0,0,0.1,0,0.1,0c0,0,0,0,0,0c0,0,0.1,0.1,0.1,0c0,0,0,0.1,0.1,0.1h0c0,0,0,0.1,0.1,0.1c0,0,0.1,0,0.1,0c0,0,0,0,0,0
	c0.1,0,0.2,0,0.2-0.1l0,0c0,0,0,0,0,0c0.1,0,0.1-0.1,0.1-0.1c0,0,0.1,0,0.1,0c0,0,0,0,0,0.1c0,0,0,0-0.1,0c-0.1,0-0.1,0.1-0.1,0.1v0
	c-0.1,0-0.2,0-0.2,0.1c0,0,0,0-0.1,0c-0.1,0.1-0.1,0.1-0.2,0.1c0,0,0,0.1-0.1,0.1c0,0.1,0.1,0.1,0.1,0.2c0,0,0,0,0,0v0.1h0
	c0,0,0,0,0,0v0c0,0-0.1,0.1-0.1,0.1c0,0,0.1,0.1,0.1,0.1c0.1,0,0.3,0,0.4,0c0,0.1,0,0.1-0.1,0.1c0,0,0,0.1,0,0.1c0.1,0,0.1,0,0.2,0
	c0,0,0,0.1,0.1,0.1h0c0,0,0-0.1,0-0.1h0c0,0,0.1-0.1,0.1,0c0,0,0,0.1-0.1,0.1c0,0,0,0.1,0.1,0.2c0,0,0.1,0,0.1,0v0c0,0,0,0,0,0v0
	c0,0,0,0-0.1,0c0,0-0.1,0-0.1,0c0,0,0,0.1,0,0.1h0c-0.1,0,0,0.1,0,0.1c0,0,0,0,0,0c-0.1,0-0.1,0.1-0.1,0.1c0,0,0,0-0.1,0
	c0,0,0,0,0,0h0c0,0,0,0,0,0c0,0,0,0,0,0c0,0,0.1,0,0.1,0l0,0c0.1-0.1,0-0.1,0-0.2c0-0.1,0.1-0.1,0.1-0.1c0,0,0-0.1,0-0.1h0
	c0,0-0.1-0.1-0.1,0v0c0,0-0.1,0-0.1,0c0,0-0.1,0-0.1,0c0,0,0,0.1,0,0.1c0,0,0,0,0,0c0,0.1-0.1,0-0.2,0c0-0.1,0-0.2-0.1-0.2h0
	c0-0.1,0-0.1,0-0.1c0,0-0.1,0-0.1,0c0,0,0,0,0,0c0,0-0.1,0-0.1,0c-0.1,0.1-0.1,0.1-0.2,0.1c0,0,0,0.1,0,0.1H6.2c0,0,0-0.1,0-0.1
	c0,0-0.1-0.1-0.1-0.1c0-0.1,0-0.1,0-0.1c0-0.1-0.1,0-0.1,0l0,0c0,0-0.1,0.1-0.1,0.1h0c0,0,0,0.1,0,0.1h0c0,0,0-0.1-0.1-0.1h0
	c0,0,0-0.1,0-0.1c0,0-0.1-0.1-0.1-0.1c0,0,0.1,0,0.1,0v-0.1h0c0,0,0,0,0,0c0,0,0-0.1,0-0.1c0,0,0.1-0.1,0.1-0.1c0-0.1-0.1,0-0.1,0
	c0,0,0,0.1,0,0.1c-0.1,0-0.1,0-0.2,0c0,0,0,0,0,0v0c0,0-0.1,0-0.1,0c0,0.1-0.1,0.1-0.1,0.1c0,0-0.1,0-0.1-0.1c0-0.1,0-0.2,0-0.2
	c0,0,0,0,0,0c0.1,0,0.1-0.1,0.2-0.1v0h0c0,0,0.1,0,0.1-0.1v0c0,0,0,0,0,0l0,0l0,0c0,0,0,0,0.1-0.1c0.1,0,0.1-0.1,0.1-0.1
	c0,0,0-0.1-0.1-0.1h0c0,0,0.1,0,0.1-0.1c0,0,0.1-0.1,0-0.1c0,0,0,0-0.1,0H5.7c0,0,0,0-0.1,0.1c-0.1,0-0.1,0-0.1,0.1v0
	c-0.1,0-0.1,0.1-0.1,0.2c0,0-0.1,0-0.1,0.1l0,0c-0.1,0.1-0.1,0.1-0.2,0.2v0.1C5,14.4,5,14.5,5,14.5v0c0,0.1-0.1,0.1-0.2,0.1v-0.1
	c0,0-0.1,0-0.1,0c0-0.1-0.1-0.2-0.2-0.2c0,0.1,0,0.1-0.1,0.2c-0.1,0-0.1,0-0.2,0c0,0,0,0,0,0c0,0,0,0,0,0c-0.1,0-0.2,0-0.3-0.1
	c0,0,0,0,0,0c0,0,0-0.1-0.1-0.1c-0.1,0-0.2,0-0.2,0c0,0,0-0.1-0.1-0.1h0c-0.1-0.1-0.1-0.1-0.2-0.2c0,0-0.1,0-0.1,0
	c-0.1-0.1-0.1-0.2-0.2-0.2c-0.1,0-0.1,0-0.2,0c0,0,0,0-0.1-0.1c0,0,0,0,0,0v0c0,0-0.1,0-0.1,0c0,0,0,0,0,0c-0.1,0-0.1,0-0.2,0v0
	c-0.1-0.1-0.1-0.1-0.2-0.2c-0.2,0-0.3-0.1-0.3-0.2c0-0.1,0-0.1,0-0.2C2,13,2,13,2,13c0-0.1-0.1,0-0.1-0.1c0,0,0,0,0,0c0,0,0,0,0,0
	c0-0.1,0-0.1,0-0.1c0-0.1-0.1-0.1-0.1-0.1v0c0.1,0,0.1-0.1,0.1-0.1h0c0.1,0,0-0.1,0-0.1c0,0,0,0,0,0l0,0c0,0,0.1,0,0.1-0.1
	c0-0.1,0-0.2,0.1-0.2c0,0,0-0.1,0.1-0.1c0,0,0-0.1,0-0.1c0,0,0.1,0,0.1,0v0c0-0.1,0.1-0.1,0.1-0.1c0.1,0,0.1-0.1,0.1-0.1
	c0,0,0.1-0.1,0.1-0.1h0v0h0c0,0,0,0.1,0,0.1l0,0c0,0,0,0.1,0,0.1c0,0-0.1,0-0.1,0c0,0.1,0,0.1,0.1,0.1c0,0,0,0.1-0.1,0.1
	c0,0,0,0.1,0,0.1h0c0,0,0,0,0,0c0,0,0,0.1,0,0.1c0,0,0,0,0,0c0,0,0.1,0,0.1,0c0,0,0,0,0-0.1c0,0.1,0,0.1,0,0.1c0.1,0,0.1,0,0.1,0
	v-0.1c0.1,0,0.1,0,0.2,0c0.1,0,0.1,0,0.2-0.1v0c0,0,0,0,0,0c0,0,0,0,0,0v0.1c0,0,0,0,0,0l0,0c-0.1,0.1,0,0.1,0,0.2
	c0,0,0.1,0.1,0.1,0.1c0.1,0,0.2,0,0.2,0c0,0,0,0,0,0c0,0,0,0,0,0h0c0,0,0,0,0,0c0,0,0.1,0,0.1,0c0,0,0.1,0,0.1,0
	c0.1,0,0.1,0.1,0.1,0.1c0.1,0,0.3,0,0.4,0c0,0,0.1,0,0.1-0.1c0,0,0.1,0,0.1,0C4.4,12.5,4.4,12.5,4.5,12.5L4.5,12.5z"/>
<path class="st0" d="M4.8,11.6c0.1-0.1,0.1-0.1,0.1-0.2c0,0,0,0,0,0c0,0-0.1,0.1-0.1,0.1v0c-0.1,0-0.1,0.1-0.1,0.1v0c0,0,0,0,0,0
	C4.7,11.7,4.8,11.7,4.8,11.6"/>
<path class="st0" d="M3,11.8C3,11.8,3,11.7,3,11.8C2.9,11.8,2.9,11.8,3,11.8C2.9,11.9,2.9,11.9,3,11.8C2.9,11.9,3,11.9,3,11.8"/>
<path class="st0" d="M4.2,12.2C4.2,12.2,4.2,12.1,4.2,12.2C4.2,12.1,4.2,12.1,4.2,12.2c0.2-0.1,0.3-0.2,0.3-0.3v0c0,0,0.1,0,0.1,0
	v-0.1c0,0-0.1-0.1-0.1-0.1c-0.1,0-0.1,0.1-0.1,0.1l0,0c0,0-0.1,0-0.1,0c-0.1,0-0.1,0.1-0.2,0.1c0,0,0,0,0,0.1
	c-0.1,0-0.1,0.1-0.1,0.1C4.1,12.2,4.1,12.2,4.2,12.2"/>
<path class="st0" d="M3.8,12c0,0,0.1-0.1,0.1-0.1c0-0.1,0-0.1-0.1-0.1C3.8,11.8,3.8,11.9,3.8,12C3.7,12,3.7,12,3.8,12
	C3.8,12,3.8,12,3.8,12"/>
<path class="st0" d="M3.5,10.6C3.5,10.5,3.5,10.5,3.5,10.6L3.5,10.6c0.1-0.1,0.2-0.2,0.1-0.2c-0.1,0-0.1,0-0.1,0.1
	c0,0.1-0.1,0.1-0.2,0.2c0,0,0,0.1,0,0.1c0,0,0,0,0.1,0l0,0C3.4,10.6,3.4,10.6,3.5,10.6C3.4,10.6,3.5,10.6,3.5,10.6"/>
<path class="st0" d="M4.6,11.2c0,0,0-0.1,0-0.1c-0.1,0-0.1,0-0.1,0.1v0c-0.1,0,0,0.1-0.1,0.1l0,0c-0.1,0-0.1,0.1-0.2,0.1
	c0,0.1,0.1,0.1,0.1,0.1c0.1,0,0.1-0.1,0.1-0.1l0,0C4.5,11.3,4.6,11.3,4.6,11.2"/>
<path class="st0" d="M5.5,12.1c0,0,0-0.1,0-0.1h0c-0.1,0,0,0.1-0.1,0.1v0c0,0,0,0,0,0C5.5,12.2,5.5,12.1,5.5,12.1"/>
<path class="st0" d="M6.4,11.4C6.4,11.3,6.5,11.3,6.4,11.4l0.1-0.1c0,0,0,0,0,0h0c0,0-0.1,0-0.1,0c0,0-0.1,0.1-0.1,0.1c0,0,0,0,0,0
	c0,0,0,0,0,0h0c-0.1,0,0,0.1,0,0.1c0,0,0,0,0-0.1h0C6.3,11.4,6.3,11.4,6.4,11.4C6.3,11.4,6.4,11.4,6.4,11.4
	C6.4,11.4,6.4,11.4,6.4,11.4"/>
<path class="st0" d="M7,10.9c0-0.1,0-0.1,0-0.1c-0.1,0-0.1,0.1-0.2,0.1c0,0.1,0,0.1,0.1,0.1C6.9,11,7,11,7,10.9"/>
<path class="st0" d="M13.6,10.8c0,0,0.1,0,0.1,0c0,0,0-0.1,0-0.1C13.7,10.7,13.6,10.7,13.6,10.8C13.6,10.7,13.6,10.8,13.6,10.8"/>
<path class="st0" d="M14.3,10.6c0,0,0.1,0,0.1,0l0,0c0,0,0,0,0,0c0-0.1,0-0.2-0.1-0.2c0,0-0.1-0.1-0.1-0.1c0,0-0.1,0-0.1,0
	c0,0-0.1,0-0.1,0.1c0,0.1,0,0.1,0,0.1C14.2,10.6,14.2,10.6,14.3,10.6"/>
<path class="st0" d="M14.7,10.4L14.7,10.4c0.1-0.1,0.1-0.1,0.1-0.1c0,0,0-0.1-0.1-0.1c-0.1,0-0.1,0-0.1,0c0,0,0-0.1,0-0.1
	c0,0-0.1,0-0.1,0c0,0,0,0.1,0,0.1c0,0-0.1,0.1-0.1,0.1c0,0,0,0,0,0v0c0.1,0,0.1,0.1,0.1,0.1C14.5,10.5,14.6,10.5,14.7,10.4
	L14.7,10.4C14.7,10.5,14.7,10.5,14.7,10.4"/>
<path class="st0" d="M15.2,10.1C15.2,10.1,15.2,10.1,15.2,10.1c0.1-0.1,0.1-0.1,0.1-0.2c0,0-0.1,0-0.1-0.1c0,0,0.1-0.1,0.1-0.1
	c0,0,0-0.1,0-0.1h0C15.1,9.8,15,9.8,15,10c0,0,0,0,0,0V10c-0.1,0-0.1,0.1-0.2,0.1c0,0.1,0,0.1,0.1,0.1c0.1,0,0.1,0,0.2,0h0
	C15.2,10.2,15.2,10.2,15.2,10.1"/>
<path class="st0" d="M14.9,9.7C14.9,9.7,14.9,9.7,14.9,9.7C14.9,9.7,14.9,9.7,14.9,9.7l0.1,0c0,0,0,0,0,0c0,0,0,0,0,0
	c0,0,0.1-0.1,0.1-0.1c0,0-0.1-0.1-0.1-0.1c-0.1,0-0.1,0-0.1,0.1c-0.1,0-0.1,0.1-0.1,0.2C14.8,9.7,14.8,9.8,14.9,9.7"/>
<path class="st0" d="M15.3,9.4C15.3,9.4,15.3,9.4,15.3,9.4c0.1-0.1,0.1-0.1,0-0.2h0c0,0,0,0-0.1,0c0,0,0,0,0,0c0,0,0,0.1,0,0.1h0
	c0,0,0,0,0,0c0,0,0,0.1,0,0.1C15.2,9.5,15.2,9.4,15.3,9.4"/>
<path class="st0" d="M8.8,10.1C8.8,10.1,8.8,10,8.8,10.1C8.8,10,8.8,10,8.8,10.1C8.9,10,8.9,10,8.9,10c0,0,0,0,0,0C9,9.9,9,10,9,9.9
	c0,0,0-0.1,0-0.1c-0.1,0-0.1,0-0.1,0.1H8.8C8.8,9.9,8.7,10,8.6,10c0,0,0,0,0,0v0c0,0,0,0,0,0c0,0.1,0,0.1,0.1,0.1
	C8.7,10.2,8.7,10.1,8.8,10.1L8.8,10.1C8.7,10.1,8.8,10.1,8.8,10.1"/>
<path class="st0" d="M8.6,9.9C8.7,9.9,8.6,9.8,8.6,9.9L8.6,9.9C8.7,9.8,8.7,9.8,8.6,9.9c0.1-0.1,0.1-0.1,0.2-0.1c0,0,0-0.1,0-0.1
	c0-0.1,0-0.1,0-0.1v0c0,0-0.1-0.1-0.1-0.1c-0.1,0-0.1,0-0.2,0.1c0,0.1,0,0.2-0.1,0.2c0,0.1,0,0.1-0.1,0.2c0,0,0,0.1,0.1,0.1
	C8.5,9.9,8.5,9.9,8.6,9.9C8.6,9.9,8.6,9.9,8.6,9.9L8.6,9.9z"/>
<path class="st0" d="M8.2,10.1c0.1,0,0.1-0.1,0.2-0.1V9.9C8.3,9.8,8.2,9.7,8.2,9.7c-0.1,0-0.1,0.1,0,0.2C8.2,10,8.1,10,8.2,10.1
	C8.2,10,8.2,10.1,8.2,10.1"/>
<path class="st0" d="M8.1,10.5c0.1,0,0.1-0.1,0.2-0.2v-0.1c0,0-0.1-0.1-0.1,0C8.2,10.3,8,10.4,8,10.5C8,10.5,8.1,10.5,8.1,10.5
	L8.1,10.5z"/>
<path class="st0" d="M7.6,10.5C7.7,10.5,7.7,10.5,7.6,10.5C7.7,10.5,7.7,10.5,7.6,10.5c0.1-0.1,0.1-0.1,0.1-0.2c0,0,0,0,0,0
	c0,0-0.1,0-0.1,0c0,0,0,0-0.1,0c-0.1,0.1-0.1,0.1-0.2,0.2c-0.1,0-0.1,0.1-0.2,0.2c0,0,0,0.1,0,0.1c0,0,0,0,0,0v-0.1c0,0,0,0,0,0l0,0
	c0,0,0.1-0.1,0.1-0.1h0c0,0,0.1,0,0.1-0.1v0C7.6,10.5,7.6,10.5,7.6,10.5"/>
<path class="st0" d="M7.8,10.1c0.1,0,0.1-0.1,0.1-0.2c0-0.1-0.1-0.1-0.1,0l0,0C7.6,9.9,7.6,10,7.5,10.1c0,0,0,0.1,0.1,0.1h0
	c0,0,0.1-0.1,0.1-0.1l0,0c0,0,0,0,0,0C7.7,10.1,7.7,10.1,7.8,10.1C7.8,10.1,7.8,10.1,7.8,10.1"/>
<path class="st0" d="M7,10.6C7,10.6,7,10.5,7,10.6c-0.1-0.1-0.1-0.1-0.2,0v0c0,0,0,0,0,0C6.9,10.6,6.9,10.6,7,10.6"/>
<polygon class="st0" points="5,10.9 5,10.9 5,10.9 "/>
<path class="st0" d="M3.7,10.2C3.8,10.2,3.8,10.2,3.7,10.2c0-0.1,0-0.1,0-0.1c-0.1,0-0.1,0.1-0.1,0.2c0,0,0,0,0.1,0.1
	C3.7,10.4,3.7,10.3,3.7,10.2C3.7,10.3,3.7,10.3,3.7,10.2"/>
<path class="st0" d="M4.5,9.6c0-0.1,0.1-0.1,0.2-0.2c0,0,0-0.1,0-0.1h0c0,0,0,0.1,0,0.1C4.5,9.4,4.5,9.5,4.4,9.5c0,0,0,0.1,0,0.1
	c0,0,0,0,0.1,0.1L4.5,9.6C4.5,9.6,4.5,9.6,4.5,9.6"/>
<path class="st0" d="M5.1,9.1c0.1,0,0-0.1,0-0.1C5,8.9,5,9,5,9.1C5,9.1,5.1,9.1,5.1,9.1"/>
<path class="st0" d="M5.4,8.9C5.4,8.9,5.4,8.8,5.4,8.9c0-0.1-0.1-0.1-0.1-0.1c-0.1,0-0.1,0.1,0,0.1C5.3,8.9,5.3,8.9,5.4,8.9"/>
<path class="st0" d="M5.5,8.7C5.5,8.7,5.5,8.7,5.5,8.7L5.5,8.7c-0.1-0.1-0.2,0-0.1,0.1L5.5,8.7C5.5,8.8,5.5,8.7,5.5,8.7"/>
<path class="st0" d="M5.6,8.6c0-0.1-0.1,0-0.1,0c0,0-0.1,0,0,0.1C5.5,8.6,5.5,8.7,5.6,8.6L5.6,8.6C5.6,8.7,5.6,8.6,5.6,8.6"/>
<path class="st0" d="M5.8,8.4C5.8,8.4,5.8,8.4,5.8,8.4C5.9,8.4,6,8.3,6,8.3c0,0,0-0.1,0-0.1c0,0,0,0,0,0c0,0,0,0-0.1,0.1H5.9
	C5.8,8.3,5.7,8.4,5.6,8.5v0c0,0,0,0.1,0.1,0.1C5.7,8.6,5.8,8.5,5.8,8.4C5.8,8.5,5.8,8.5,5.8,8.4"/>
<path class="st0" d="M2.5,12.5C2.5,12.5,2.4,12.5,2.5,12.5c-0.1,0-0.1,0.1-0.1,0.1h0c-0.1,0,0-0.1-0.1-0.1
	C2.3,12.5,2.4,12.5,2.5,12.5c-0.1-0.1-0.1-0.1,0-0.1v0h0c0,0,0-0.1,0.1-0.1c0.1,0,0.1,0.1,0.1,0.2H2.5z"/>
<path class="st0" d="M2.2,12.4c0,0-0.1,0.1-0.1,0.1c0,0,0-0.1,0-0.1c0.1,0,0.1-0.1,0.1-0.2c0.1,0,0.1,0,0.1,0
	C2.3,12.3,2.2,12.3,2.2,12.4"/>
<polygon class="st0" points="6.3,14.8 6.3,14.8 6.4,14.8 "/>
<path class="st0" d="M16.5,9.2L16.5,9.2c0.1,0,0.1-0.1,0.1-0.1c-0.1,0-0.1,0-0.2,0.1C16.4,9.2,16.4,9.2,16.5,9.2
	C16.4,9.2,16.5,9.3,16.5,9.2"/>
<path class="st0" d="M15.6,7.9c-0.1,0-0.1,0.1,0,0.1c0,0,0.1,0.1,0.1,0V7.9c0,0,0,0,0,0c0,0,0-0.1,0-0.1C15.6,7.8,15.6,7.8,15.6,7.9
	"/>
<path class="st0" d="M13.7,8.5c0,0.1,0.1,0,0.1,0c0,0,0-0.1,0-0.1C13.8,8.4,13.7,8.4,13.7,8.5L13.7,8.5z"/>
<path class="st0" d="M11.7,8.4C11.7,8.4,11.7,8.4,11.7,8.4C11.7,8.4,11.7,8.4,11.7,8.4c0.1-0.1,0-0.1,0-0.1c-0.1,0-0.1,0.1-0.1,0.1
	C11.6,8.5,11.6,8.5,11.7,8.4"/>
<path class="st0" d="M11.4,8.6L11.4,8.6C11.4,8.6,11.4,8.6,11.4,8.6C11.4,8.6,11.4,8.6,11.4,8.6"/>
<path class="st0" d="M11.2,8.8c0-0.1,0.1-0.1,0-0.2c-0.1,0.1-0.1,0.1-0.2,0.1C11.1,8.8,11.1,8.8,11.2,8.8
	C11.2,8.8,11.2,8.8,11.2,8.8"/>
<path class="st0" d="M7.8,7.4C7.8,7.4,7.8,7.5,7.8,7.4L7.7,7.5c0,0.1,0.1,0.1,0.2,0c0,0,0,0,0-0.1h0c0,0,0,0,0,0c0,0,0-0.1,0-0.1
	C7.9,7.3,7.9,7.3,7.8,7.4L7.8,7.4C7.8,7.4,7.8,7.4,7.8,7.4"/>
<path class="st0" d="M8.2,7L8.2,7C8.2,7,8.2,7,8.2,7c0.1-0.1,0.1-0.1,0.2-0.2c0,0,0-0.1-0.1-0.1C8.2,6.8,8.2,6.9,8.2,7
	C8.1,7,8.1,7,8.2,7"/>
<path class="st0" d="M8.4,6.8c0,0,0.1,0,0.1-0.1c0,0,0-0.1-0.1-0.1c0,0,0,0,0,0c0,0-0.1,0-0.1,0V6.8C8.4,6.7,8.4,6.7,8.4,6.8
	C8.4,6.8,8.4,6.8,8.4,6.8"/>
<path class="st0" d="M6.7,9.6C6.7,9.6,6.7,9.6,6.7,9.6c0.1-0.1,0.1-0.1,0.1-0.1l0,0c0,0,0,0,0.1,0c0,0,0-0.1,0-0.1
	C7,9.4,7,9.4,7,9.4v0l0,0c0,0,0.1,0,0.1-0.1c0,0,0.1,0,0.1,0V9.2c0,0,0,0,0,0V9.1C7.3,9.1,7.3,9,7.4,9c0,0,0,0,0,0.1h0c0,0,0,0,0,0
	v0c0,0,0.1,0,0.1,0c0,0,0-0.1,0-0.1c0,0,0-0.1,0.1-0.1h0c0,0,0,0,0,0h0c0.1,0,0.1-0.1,0.1-0.1c0.1,0,0.1-0.1,0.2-0.1
	c0,0,0-0.1,0-0.1c0,0,0,0,0,0c0.1,0,0.1,0,0.1,0V8.4c0-0.1,0.1,0,0.1,0c0,0,0.1,0,0.1-0.1c0,0,0.1,0.1,0.1,0.1c0.1,0,0.1,0,0.1-0.1
	c0.1,0,0.1-0.1,0.2-0.1c0,0,0,0,0.1,0C8.8,8.1,8.9,8,9,8l0,0c0,0,0-0.1,0.1-0.1h0c0,0,0,0,0,0c0-0.1,0-0.1,0-0.1v0h0.1
	c0.1-0.1,0.1-0.1,0.2-0.1c0,0,0.1,0.1,0.1,0c0.1,0,0.1-0.1,0.1-0.1h0c0,0,0,0,0,0h0c0,0,0.1,0,0.1-0.1l0,0c0,0,0,0,0,0h0
	c0,0,0,0,0,0h0c0.1-0.1,0.1-0.1,0.2-0.2v0h0c0.1,0,0.1-0.1,0.1-0.1c0,0,0.1,0,0.1,0h0.1c0-0.1,0.1-0.1,0.1-0.1c0,0-0.1-0.1-0.1-0.1
	c0,0-0.1,0.1-0.1,0.1v0c0,0-0.1,0.1-0.1,0.1c0,0-0.1,0-0.1,0c0,0,0,0.1,0,0.1H10c0,0,0,0.1-0.1,0.1c0,0-0.1,0-0.1,0v0
	c0,0.1-0.1,0.1-0.1,0.1c0,0,0,0,0,0h0c0,0.1-0.1,0.1-0.2,0.1c0,0,0,0,0,0c-0.1,0-0.1,0-0.2,0.1c0,0-0.1,0-0.1,0H9.1
	C9.1,7.6,9,7.7,8.9,7.7l0,0l0,0l0,0c0,0,0,0,0,0c0,0,0,0,0,0C8.7,7.8,8.7,7.8,8.7,7.9c-0.1,0-0.1,0-0.2,0.1v0H8.4c0,0,0,0.1-0.1,0.1
	c-0.1,0-0.1,0.1-0.2,0.1h0c0,0,0,0,0,0.1c0,0,0,0,0,0v0C8,8.3,8,8.3,8,8.3v0c-0.1,0-0.1,0.1-0.2,0.1c0,0-0.1,0.1-0.1,0.1
	c0,0,0,0,0,0c0,0-0.1,0.1-0.1,0.1h0c-0.1,0,0,0.1-0.1,0.1C7.4,8.8,7.3,8.9,7.2,8.8c0,0,0,0,0,0.1c0,0-0.1,0-0.1,0v0
	C7,9,7,9.1,6.9,9.1c0,0,0,0,0,0c0,0,0,0,0,0v0C6.8,9.3,6.7,9.2,6.6,9.3c0,0,0,0.1,0,0.1c0,0-0.1,0-0.1,0v0c-0.1,0-0.1,0.1-0.1,0.2
	c0,0,0-0.1-0.1-0.1c0,0-0.1,0-0.1,0.1v0c-0.1,0-0.1,0-0.2,0.1c0,0-0.1,0-0.1,0C6,9.7,5.9,9.8,5.9,9.8h0c-0.1,0.1-0.1,0.2,0,0.3
	c0,0,0,0,0,0c0.1,0,0.1-0.1,0.2-0.2V9.9c0,0,0.1-0.1,0.1-0.1c0,0,0,0,0,0c0,0,0.1,0,0.1,0c0,0,0.1,0,0.1,0c0,0,0.1-0.1,0.1-0.1
	c0,0,0,0,0.1-0.1C6.6,9.6,6.7,9.7,6.7,9.6"/>
<path class="st0" d="M6.3,9.4C6.3,9.4,6.4,9.4,6.3,9.4c0.1-0.1,0.1,0,0.1,0c0,0,0,0,0,0v0c0-0.1-0.1-0.1-0.2-0.1
	c-0.1,0-0.1,0.1-0.2,0.1c0,0-0.1,0-0.1,0l0,0c0,0,0,0,0,0c-0.1,0-0.1,0.1-0.2,0.2c0.1,0.1,0.1,0,0.2,0.1c0,0,0,0,0-0.1
	C6.1,9.6,6.2,9.5,6.3,9.4"/>
<path class="st0" d="M10.5,7.7c0-0.1,0.1-0.1,0.1-0.1h0c0,0,0-0.1,0-0.1l0,0c0,0,0,0,0,0h0c0,0,0.1-0.1,0.1-0.1
	c0-0.1,0.2-0.1,0.1-0.2c0.1,0,0.1,0,0.1,0v0c0,0,0.1-0.1,0.1-0.1c0,0-0.1-0.1-0.1,0c-0.1,0-0.2,0-0.2,0.1v0c0,0-0.1,0-0.1,0.1h0
	c0,0-0.1,0.1-0.1,0.1c0,0,0,0-0.1,0c0,0,0,0,0,0.1l0,0c0,0-0.1,0.1-0.1,0.1c-0.1,0-0.1,0-0.1,0.1c0,0.1-0.1,0.1-0.1,0.1
	c0,0-0.1,0-0.1,0c0,0,0,0-0.1,0.1c0,0,0,0.1,0,0.1C10.3,7.8,10.3,7.8,10.5,7.7L10.5,7.7C10.4,7.8,10.4,7.7,10.5,7.7"/>
<path class="st0" d="M10.1,8.7L10.1,8.7C10.1,8.6,10.1,8.6,10.1,8.7c0.2-0.1,0.2-0.2,0.3-0.2v0c0,0-0.1,0-0.1,0c0,0,0,0.1-0.1,0.1
	h-0.1c0,0,0,0,0,0c-0.1,0-0.1,0-0.1,0.1H10C9.9,8.6,9.9,8.6,9.8,8.7c0,0,0,0,0,0c-0.1,0-0.1,0-0.1,0.1c0,0,0.1,0,0.1,0c0,0,0,0,0,0
	c0,0,0.1,0,0.1,0h0C10,8.8,10.1,8.7,10.1,8.7"/>
<path class="st0" d="M8.9,7c0.1,0,0.1-0.1,0.1-0.2c0,0-0.1,0-0.1-0.1h0c0,0-0.1,0.1-0.1,0.1c0,0,0,0.1,0.1,0.1C8.8,7,8.9,6.9,8.9,7"
	/>
<path class="st0" d="M10.3,5.8C10.3,5.8,10.3,5.8,10.3,5.8c0.1,0,0.1,0,0.1-0.1v0c0.1,0,0.1-0.1,0.2-0.1c0.1,0,0.1-0.1,0.2-0.1
	c0-0.1-0.1-0.1-0.2-0.1c0,0,0,0.1-0.1,0.1c0,0-0.1,0-0.1,0c-0.1,0.1-0.1,0.1-0.2,0.1c0,0,0,0,0,0C10.2,5.7,10.2,5.7,10.3,5.8
	c-0.1-0.1-0.2-0.1-0.2,0c0,0,0,0.1,0.1,0.1C10.2,5.9,10.2,5.9,10.3,5.8C10.2,5.9,10.2,5.8,10.3,5.8"/>
<path class="st0" d="M12.9,3.9C12.9,3.9,12.9,3.9,12.9,3.9L12.9,3.9C12.8,3.9,12.8,4,12.8,4c0,0-0.1,0-0.1,0c0,0,0,0.1,0,0.1
	c0,0-0.1,0-0.1,0c-0.1,0.1-0.1,0.1-0.2,0.1c0,0,0,0.1-0.1,0.1c-0.1,0-0.1,0-0.1,0c0,0-0.1,0.1-0.1,0.1h0c-0.1,0.1-0.1,0.1-0.2,0.1
	c-0.1,0,0,0.1-0.1,0.1c-0.1,0-0.2,0-0.2,0.1v0l0,0c-0.1,0-0.1,0.1-0.2,0.2l0,0c0,0-0.1,0.1-0.1,0c0,0.1-0.1,0.1-0.2,0.2h0
	c0,0,0,0,0,0c-0.1,0-0.1,0-0.1,0.1v0.1c0,0,0,0.1,0.1,0.1c0.1,0,0.1,0,0.2-0.1c0,0,0,0,0,0c0,0,0.1,0,0.1-0.1h0.1
	C11.3,5.1,11.4,5,11.4,5c0,0,0.1,0,0.1,0c0,0,0.1-0.1,0.1-0.1h0.1c0,0,0.1-0.1,0.1-0.1c0,0,0.1,0,0.1,0v0c0.1,0,0.1-0.1,0.1-0.1H12
	c0.1,0,0.1-0.1,0.1-0.1c0,0,0.1,0,0.1,0c0,0,0-0.1,0-0.1h0.1c0,0,0,0,0,0h0.1c0.1,0,0.1-0.1,0.2-0.1c0,0,0,0,0,0c0,0,0.1,0,0.1,0
	l0,0c0,0,0,0,0,0v0c0,0,0.1,0,0.1,0c0,0,0-0.1,0.1-0.1c0.1,0,0.1-0.1,0.1-0.1C13,4,13,4,13.1,3.9v0c0,0,0.1,0,0.1-0.1
	C13.1,3.8,13.1,3.8,12.9,3.9C13,3.8,13,3.8,12.9,3.9C13,3.8,13,3.9,12.9,3.9"/>
<path class="st0" d="M17.8,7.5C17.8,7.6,17.8,7.6,17.8,7.5L17.8,7.5C17.8,7.5,17.8,7.5,17.8,7.5C17.8,7.5,17.8,7.5,17.8,7.5
	L17.8,7.5c-0.1,0-0.1,0-0.1,0c0,0,0,0,0,0.1c0,0,0,0,0,0l0,0c0,0,0,0.1-0.1,0.1l0,0c0,0,0,0,0,0c0,0,0,0,0.1,0l0,0c0,0,0,0,0,0
	c-0.1-0.1,0-0.1,0-0.1H17.8C17.8,7.5,17.8,7.5,17.8,7.5C17.8,7.5,17.9,7.5,17.8,7.5L18,7.4c0,0,0-0.1,0-0.1H18c0,0,0,0.1-0.1,0.1
	C18,7.5,17.9,7.4,17.8,7.5L17.8,7.5c0.1,0,0.1,0,0.1,0c0,0,0,0,0,0L17.8,7.5C17.9,7.5,17.9,7.5,17.8,7.5C17.9,7.5,17.9,7.5,17.8,7.5
	C17.9,7.5,17.8,7.5,17.8,7.5"/>
<path class="st0" d="M18,7.1c0.1,0,0.1,0,0.2,0c0,0.1,0,0.1,0,0.2c0,0,0,0.1,0.1,0.1c0.1,0,0.1-0.1,0.2-0.2c0,0,0.1,0.1,0.1,0.1
	c0-0.1-0.1-0.1-0.1-0.2c0-0.1,0-0.1-0.1-0.1c0,0,0-0.1,0-0.1c0,0-0.1,0.1-0.1,0.1c0-0.1-0.1-0.1-0.1,0c0,0-0.1,0.1-0.1,0.1v0
	C18,7,18,7,17.9,7.1h-0.1c-0.1,0-0.1,0.1-0.2,0.1c0,0,0,0-0.1,0.1c0,0,0,0.1,0,0.1c0,0,0.1,0,0.1,0c0.1,0,0.1,0,0.2,0
	C17.9,7.3,17.9,7.2,18,7.1C17.9,7.2,17.9,7.2,18,7.1C17.9,7.1,18,7.1,18,7.1"/>
<path class="st0" d="M12.1,7.9c0.1-0.1,0.1-0.2,0.2-0.2c0.1,0,0.1-0.1,0.1-0.1s0,0,0.1,0c0.1-0.1,0.2-0.2,0.3-0.2
	c0.1-0.1,0.2,0,0.1,0c-0.1,0.1-0.3,0.1-0.2,0.2c0,0.1,0.1,0,0.1,0c0.1,0,0.2,0,0.1,0.1c-0.1,0.1-0.3,0.1-0.3,0.2
	c-0.1,0,0.1-0.1,0.1-0.1c0,0-0.1-0.1-0.1,0c-0.1,0-0.2,0.1-0.3,0.1C12.2,7.9,12.1,8,12.1,7.9L12.1,7.9z"/>
<path class="st0" d="M17.6,8.9c0.1,0,0.2-0.2,0.3-0.2c0.1,0,0.3-0.1,0.3-0.1c0,0,0.2-0.2,0.1-0.1c-0.1,0.1-0.1,0.1-0.1,0.2
	c0,0.1,0.1,0.1,0,0.1c-0.1,0-0.1-0.1-0.2-0.1c-0.1,0-0.1,0-0.2,0.1C17.8,8.8,17.7,8.9,17.6,8.9C17.7,8.9,17.6,8.9,17.6,8.9"/>
<path class="st0" d="M9.8,8c0.1-0.1,0.3-0.2,0.3-0.2c0,0,0.2,0,0,0.1C9.9,8,9.9,8.1,9.8,8.1c-0.1,0.1-0.1,0-0.1,0L9.8,8z"/>
<path class="st1" d="M19,10c-0.2,4.7-3.9,8.3-8.9,8.6c-4.9,0-8.9-3.8-8.9-8.6c0-4.8,4-8.7,8.9-8.7C15,1.3,19,5.2,19,10"/>
<path class="st2" d="M19,10c-0.2,4.7-3.9,8.3-8.9,8.6c-4.9,0-8.9-3.8-8.9-8.6c0-4.8,4-8.7,8.9-8.7C15,1.3,19,5.2,19,10z"/>
<path class="st0" d="M19,10c-0.2,4.7-3.9,8.3-8.9,8.6c-4.9,0-8.9-3.8-8.9-8.6c0-4.8,4-8.7,8.9-8.7C15,1.3,19,5.2,19,10"/>
<path class="st3" d="M19,10c-0.2,4.7-3.9,8.3-8.9,8.6c-4.9,0-8.9-3.8-8.9-8.6c0-4.8,4-8.7,8.9-8.7C15,1.3,19,5.2,19,10z"/>
<path class="st4" d="M19,10c-0.2,4.7-3.9,8.3-8.9,8.6c-4.9,0-8.9-3.8-8.9-8.6c0-4.8,4-8.7,8.9-8.7C15,1.3,19,5.2,19,10"/>
<path class="st1" d="M4.4,10.4L4.4,10.4c-0.1,0-0.1,0-0.1,0.1v0.1c0,0,0,0-0.1,0c0,0,0,0.1,0,0.1c0,0,0,0,0,0c0,0,0,0,0-0.1
	c0,0,0,0,0,0c0.1,0,0.1-0.1,0.2-0.2c0,0,0-0.1,0-0.1c0.1,0,0.2,0,0.2-0.1v-0.1c0,0,0.1,0,0.1,0C4.9,10.2,5,10.1,5.1,10
	c0,0,0.1,0,0.1,0c0,0.1,0,0.1,0,0.1c0,0-0.1,0.1-0.1,0.1c-0.1,0-0.1,0-0.2,0.1H4.9c-0.1,0.1-0.1,0.1-0.2,0.2H4.6
	c0,0-0.1,0.1-0.1,0.1c0,0,0,0,0,0c-0.1,0-0.2,0-0.2,0.1V11c-0.1,0-0.1,0.1-0.2,0.1c0,0,0,0-0.1,0c0,0-0.1,0.1-0.1,0.1
	c0,0,0-0.1-0.1-0.1c0,0,0,0.1-0.1,0.1c0-0.1,0-0.1,0-0.1c0,0,0,0,0,0v0c0-0.1-0.1,0-0.1,0h0c0,0-0.1,0.1-0.1,0.1v0
	c-0.1,0-0.1,0.1-0.1,0.1c0,0,0,0.1,0.1,0.1h0c0,0,0,0,0,0h0c0,0.1,0.1,0.1,0,0.2c0,0-0.1,0.1-0.1,0.1c-0.1,0,0,0.1,0,0.1
	c0,0,0,0,0,0c0,0,0,0.1,0.1,0.1c0.1,0,0.1,0,0.2,0c0.1,0,0-0.1,0.1-0.1h0.1c0,0,0.1-0.1,0.1-0.1c0,0,0-0.1,0-0.1c0,0,0.1,0,0.1,0
	c0,0,0.1,0,0.1-0.1c0-0.1,0-0.1,0-0.2c0,0,0.1,0,0.1-0.1c0.1,0,0.1-0.1,0.2-0.1c0,0,0.1,0,0.1-0.1v0h0c0.1,0,0-0.1,0.1-0.1
	c0,0,0,0,0,0c0,0,0.1-0.1,0.1-0.1c0,0,0,0,0.1-0.1v0c0,0,0.1-0.1,0.1-0.1c0,0,0,0,0-0.1h0c0,0,0,0,0.1,0v0c0,0,0.1,0,0.1,0l0,0
	c0,0,0.1,0.1,0.1,0.1c0,0,0,0,0,0c0,0,0,0,0,0.1c0,0.1,0.1,0.1,0.1,0.1c0.1-0.1,0.2-0.1,0.2-0.2c0,0,0,0,0,0c0,0,0.1,0,0.1-0.1
	c0,0,0,0,0.1,0c0,0,0-0.1,0-0.1h0c0,0,0,0,0-0.1c0,0,0-0.1,0.1-0.1c0.1,0,0.1,0.1,0.2,0.1h0c0,0,0,0,0,0c0.1,0,0.1,0,0.2-0.1
	c0,0,0,0,0,0c0.1,0,0.1-0.1,0.1-0.1c0,0,0,0,0,0v0h0.1c0,0,0,0.1,0,0.1c0,0-0.1,0-0.1,0.1c0,0.1,0,0.2,0.1,0.2c0.1,0,0.1,0,0.1-0.1
	h0c0,0,0,0,0,0c0.1,0,0.1,0,0.1-0.1c0.1,0,0.1,0,0.1-0.1c0,0,0.1,0,0.2,0C7,10.1,7,10,7.2,10c0.1-0.1,0.1-0.2,0.3-0.1
	c0.1-0.1,0.2-0.2,0.3-0.3c0,0,0.1,0,0.1,0c0,0,0,0,0,0c0,0,0.1,0,0.1,0c0,0,0,0,0.1-0.1c0,0,0,0,0-0.1c0,0,0,0,0,0
	c0-0.1,0.2-0.1,0.2-0.2c0.1,0,0.1-0.1,0.2-0.1v0c0,0,0,0,0.1,0c0,0,0,0,0,0c0,0,0,0,0,0h0c0,0,0-0.1,0.1-0.1v0c0,0,0,0,0,0
	c0,0,0.1,0.1,0.1,0.1c0.1,0,0.1-0.1,0.1-0.1V9c0,0-0.1-0.1-0.1,0C8.8,8.9,8.9,8.8,9,8.8c0,0,0.1,0.1,0.1,0.1c0-0.1,0.1-0.1,0.1-0.1
	c0-0.1,0-0.1,0-0.2c0.1,0,0-0.1,0.1-0.2h0.1c0.1,0,0.1-0.1,0.1-0.1c0,0,0-0.1,0.1-0.1h0c0,0,0.1,0,0.1-0.1h0.1c0,0,0.1-0.1,0.1-0.1
	c0,0,0.1,0,0.1,0c0,0-0.1,0-0.1,0.1v0c-0.1,0-0.1,0.1-0.2,0.1c0,0.1-0.1,0.1-0.2,0.1c0,0,0.1,0.1,0.1,0.1c0,0-0.1,0.1-0.1,0.1
	c0,0,0,0,0,0h0c0,0,0,0.1,0,0.1l0,0l0,0c0,0,0-0.1,0.1-0.1v0.1h0c0,0,0,0-0.1,0.1h0c-0.1,0-0.1,0.1-0.2,0.1c0,0-0.1,0-0.1,0v0
	c0,0-0.1,0.1-0.1,0.1c0,0,0,0.1,0,0.1c-0.1,0-0.2,0.1-0.3,0.1c0,0.1,0,0.1,0.1,0.2v0c0,0,0,0,0.1,0.1H9c0,0,0.1-0.1,0.1-0.1h0
	c0,0,0,0,0,0c0-0.1,0-0.1-0.1-0.1c0,0,0.1,0,0.1-0.1c0,0,0,0.1,0,0.1h0c0,0,0.1,0,0.1,0c0,0,0,0,0.1,0v0c0,0,0.1,0,0.1-0.1
	c0,0,0.1,0,0.1,0c0.1,0,0.1-0.1,0.1-0.1c0,0,0.1,0,0.1,0c0,0,0,0,0.1,0C9.8,9,9.8,9,9.9,9c0,0,0,0,0.1-0.1c0,0,0.1,0,0.1,0
	c0,0,0,0,0,0.1c0,0,0,0,0,0v0.1c0,0,0,0,0,0c0,0-0.1,0-0.1,0l0,0l0,0c0,0,0,0,0,0c-0.1,0-0.2,0.1-0.2,0.2c-0.1,0-0.2,0.1-0.3,0.2h0
	c0,0-0.1,0.1-0.1,0.1h0c0,0,0,0,0,0c0,0,0,0.1,0,0.1c0,0.1,0.2,0.1,0.2,0c0.1,0,0.1-0.1,0.1-0.1c0.1,0,0.1,0,0.2,0c0,0,0.1,0,0.1,0
	c0-0.1,0.1-0.1,0.1-0.2V9.4c0.1,0.1,0.1,0,0.2,0c0,0,0,0,0.1,0v0c0,0,0.1,0,0.1-0.1h0c0.1,0,0.1-0.1,0.2-0.1c0,0,0.1-0.1,0.1-0.1v0
	h0.1c0.1,0,0.1-0.1,0.2-0.1c0.1,0,0.1-0.1,0.2-0.1c0,0,0-0.1,0-0.1c0,0,0,0,0,0c0,0,0,0,0,0c0,0,0,0,0,0c0,0,0,0,0,0H11
	c0,0,0.1,0,0.1-0.1c0,0,0.1,0,0.1,0c0,0,0-0.1,0.1-0.1c0,0,0,0,0,0l0,0c0.1,0,0.1,0,0.2,0h0c0,0,0,0,0,0l0,0c0,0,0,0,0,0v0
	c0,0,0,0,0,0c0,0,0.1,0,0.1-0.1l0,0c0,0,0,0,0,0l0,0l0,0c0,0,0,0,0.1,0c0.1,0,0.1-0.1,0.1-0.1c0,0,0,0,0,0c0,0,0.1,0,0.1-0.1h0
	C12,8,12,8,12,8c0,0,0,0,0,0h0C12,8,12,8,12,8l0,0c0,0,0,0,0,0c0,0,0,0,0,0h0c0,0,0,0,0,0l0,0c-0.1,0.1-0.2,0.1-0.1,0.2
	c0,0.1,0.1,0.2,0.2,0.1c0.1,0,0.1-0.1,0.1-0.1l0,0l0,0c0,0,0,0.1,0.1,0.2c0.1,0,0.1,0,0.2,0c0.1-0.1,0.1,0,0.2,0c0,0,0-0.1,0-0.1h0
	c0-0.1,0.1-0.1,0.1-0.1v0c0,0,0.1-0.1,0.1,0c0-0.1,0.1,0,0.1,0l0,0l0,0h0c0,0,0-0.1,0-0.1h0c0,0,0-0.1,0.1-0.1c0.1-0.1,0.1,0,0.2,0
	c0,0,0,0,0.1,0c0,0,0.1,0,0.1,0c0,0,0,0,0,0c0,0,0-0.1,0-0.1c0.1,0,0.1,0,0.1-0.1h0c0,0,0.1,0,0.1-0.1c0,0,0,0,0,0c0,0,0,0,0,0
	c0,0,0.1,0,0.1,0l0,0c0,0,0.1-0.1,0.1-0.1c0-0.1,0,0,0,0c0,0,0,0,0,0c0,0,0,0,0,0c-0.1,0.1-0.1,0.1-0.2,0.2c-0.1,0-0.1,0.1-0.2,0.1
	c-0.1,0-0.1,0-0.1,0.1l0,0c-0.1,0,0,0.1-0.1,0.1c-0.1,0-0.1,0-0.1,0.1c-0.1,0-0.2,0.1-0.2,0.1c0,0,0,0-0.1,0c0,0,0,0,0,0h0
	c-0.1,0.1-0.2,0.1-0.1,0.2c0,0,0,0,0,0c0.1,0,0.1,0,0.1-0.1c0,0,0.1,0,0.1,0c0,0,0,0,0,0v0c0,0,0,0,0.1-0.1c0,0,0.1,0,0.1,0
	c0,0,0-0.1,0-0.1c0.1,0,0.1,0,0.1,0c0.1,0,0.1-0.1,0.1-0.1c0,0,0,0,0,0c0,0,0,0,0,0l0,0c0,0,0,0,0,0c0.1,0,0.1-0.1,0.1-0.1l0,0
	c0,0,0.1,0,0.1,0C14,8,14,7.9,14.1,7.9c0.1,0,0.1,0,0.1,0c0.1,0,0.1-0.1,0.1-0.1v0c0,0,0.1,0,0.1-0.1c0.1,0,0.1-0.1,0.2-0.1
	c0,0,0-0.1,0-0.1c0,0,0,0,0,0c0-0.1,0.1-0.1,0.2-0.1l0,0c0,0,0,0,0,0c0,0,0-0.1,0.1-0.1c0,0,0,0,0,0c0,0,0-0.1,0.1-0.1
	c0,0,0.1,0,0.2,0c0.1,0,0.1-0.1,0.1-0.1c0,0,0.1,0,0.1,0c0.1-0.1,0.1-0.1,0.2-0.2c0,0,0,0,0,0c0,0,0,0,0,0c0,0,0,0,0,0
	c0,0,0.1,0,0.1,0c0,0,0,0,0.1-0.1c0,0,0,0,0,0c0,0,0,0.1,0,0.1h-0.1C15.5,7,15.4,7,15.4,7.1c0,0.1,0.1,0.1,0.1,0.1
	c-0.1,0-0.1,0.1-0.2,0.1c0,0-0.1,0-0.1,0c-0.1,0.1-0.2,0.1-0.2,0.2h0c0,0,0,0,0,0.1h0c0,0,0-0.1-0.1-0.1l0,0c0,0,0,0,0,0l0,0
	c0,0,0,0,0,0c-0.1,0-0.1,0.1-0.1,0.1c0,0.1,0,0.1,0,0.1h0c0,0-0.1,0-0.1,0.1c0,0-0.1,0-0.1,0c0,0-0.1,0-0.1,0
	c-0.1,0.1-0.1,0.2-0.2,0.2c-0.1,0-0.1,0-0.2,0c-0.1,0,0,0.1-0.1,0.1c-0.1,0-0.1,0.1-0.2,0.1c0,0,0,0-0.1,0c0,0,0,0,0,0v0
	c0,0.1,0.1,0.1,0.1,0.2h-0.1c-0.1,0.1-0.1,0.1-0.2,0.1h0c-0.1,0-0.1,0.1-0.1,0.1c0,0-0.1,0-0.1,0c0,0,0,0,0,0l0,0l0,0
	c0,0-0.1,0-0.1,0.1h-0.1c-0.1,0-0.1,0.1-0.1,0.1c0,0,0,0,0,0c0,0-0.1,0.1-0.1,0.1c-0.1,0-0.2,0.1-0.2,0.1l0,0c-0.1,0,0,0.1-0.1,0.1
	c-0.1,0-0.1,0-0.1,0.1v0h-0.1c0,0-0.1,0-0.1,0.1c0,0,0,0,0,0h-0.1c-0.1,0-0.1,0.1-0.1,0.1c0,0,0,0.1,0,0.1c0,0.1,0.1,0.1,0.2,0.1
	c0,0,0.1-0.1,0.1-0.1c0,0,0-0.1,0.1-0.1l0,0c0,0,0.1-0.1,0.1-0.1c0.1,0,0.1-0.1,0.2-0.2c0,0,0,0,0.1,0l0,0c0,0,0,0,0,0
	C12.9,9.4,13,9.3,13,9.3l0,0c0,0,0,0,0-0.1h0.1c0,0,0.1-0.1,0.1-0.1c0,0,0.1,0,0.1-0.1v0c0.1,0,0.1,0,0.2,0c0,0,0.1,0,0.1-0.1h0.1
	c0.1,0,0.1-0.1,0.2-0.1c0.1,0,0.2,0,0.2,0c0,0,0,0,0,0c0,0,0,0,0,0c0,0-0.1,0-0.1,0C14,9,14,9,14.1,9.1c0.1,0,0.1,0,0.1,0
	c0.1,0,0.1-0.1,0.1-0.2l0,0l0,0c0,0,0,0,0,0c0,0,0-0.1,0-0.1h0c0,0,0,0,0.1-0.1c0,0,0-0.1,0-0.1c0,0,0.1-0.1,0.1-0.1
	c0-0.1,0.1-0.1,0.1-0.1v0c0.1,0.1,0.1,0.2,0,0.2c0,0-0.1,0.1-0.1,0.1c0,0,0,0,0.1,0.1l0,0l0,0c0,0,0.1,0,0.2-0.1c0,0,0,0,0.1,0
	c0,0,0.1-0.1,0.1-0.1h0c0.1-0.1,0.2-0.1,0.3-0.2c0.1,0,0.2,0,0.2,0c0-0.1,0.1,0,0.1,0c0,0,0,0,0-0.1c0.1,0,0.1,0,0.1,0
	c0.1-0.1,0.1-0.1,0.2-0.2c0,0,0-0.1,0-0.1l0,0c0,0,0,0,0-0.1c0,0,0.1,0,0.1,0h0c0,0,0,0,0,0c0,0,0.1,0,0.1,0c0,0,0-0.1,0-0.1
	c0,0,0,0.1,0,0.1h0c0,0,0,0,0,0c0.1,0,0.1,0,0.1,0l0,0c0.1,0,0.1-0.1,0.1-0.1l0,0c0,0,0,0,0.1,0l0,0l0,0l0,0c0,0,0,0,0,0
	c0,0,0,0,0,0c0,0,0.1,0,0.1-0.1c-0.1,0,0-0.1,0-0.1c0,0,0,0,0,0c0.1,0,0.1,0.1,0.2,0c0,0,0.1,0,0.1,0c0.1,0,0.1-0.1,0.1-0.2
	c0.1,0,0.3,0.1,0.4-0.1h0c0,0,0,0,0,0c0.1,0,0.1,0,0.1-0.1l0,0c0,0,0,0,0-0.1h0c0,0,0,0.1,0,0.1c-0.1,0-0.1,0.1-0.1,0.1
	c0,0-0.1,0-0.1,0c-0.1,0.1-0.1,0.1-0.2,0.2c0.1,0.1,0.3,0.1,0.4,0v0c0,0,0,0,0,0c0,0,0-0.1,0-0.1c0,0,0,0,0,0c0,0,0,0,0,0
	c0.1,0,0.1,0,0.2,0c0,0,0,0,0,0h-0.1c0,0-0.1,0.1-0.1,0.1c0,0-0.1,0-0.1,0c0,0-0.1,0.1-0.1,0.1h0c0,0,0,0,0,0c0,0,0,0-0.1,0
	c0,0-0.1,0-0.1,0.1C17.1,8,17,8,17,8.1h-0.1c0,0,0,0,0,0c0,0-0.1,0-0.1,0c0,0,0,0,0,0c0,0,0,0.1,0,0.1c0,0-0.1,0-0.1,0
	c0,0-0.1,0.1-0.1,0.1c-0.1,0-0.1,0.1-0.1,0.1c-0.1,0-0.2,0.1-0.3,0.2c0,0-0.1,0-0.1,0C16,8.6,16,8.7,16,8.8c-0.1,0-0.1,0-0.2,0.1
	h-0.1c-0.1,0,0,0.1,0,0.1c-0.1,0-0.1,0.1-0.2,0.1v0c0,0.1,0.1,0.1,0.1,0.1c0,0,0.1-0.1,0.1-0.1h0c0.1-0.1,0.1,0,0.2,0
	c0,0-0.1,0.1-0.1,0.1c0,0-0.1,0-0.1,0c0,0-0.1,0.1-0.1,0.1c0,0.1,0,0.1,0.1,0.1c0,0-0.1,0-0.1,0.1h0c0,0,0,0,0,0h0
	c0,0-0.1,0.1-0.1,0.1v0c0,0,0,0,0.1,0.1c0,0,0.1,0,0.1,0.1c-0.1,0-0.1,0.1-0.1,0.1c0,0,0,0,0.1,0.1c0,0,0,0,0,0h0
	c0-0.1,0.1,0,0.1-0.1l0,0c0,0,0.1-0.1,0.1-0.1l0,0c0.1,0,0.1-0.1,0.1-0.1h0c0.1,0,0.2-0.1,0.3-0.1c0.1,0,0.1-0.1,0.1-0.1h0
	c0,0,0.1-0.1,0.1-0.1c0,0,0,0,0,0l0,0c0,0,0.1,0,0.1,0c0,0,0,0,0.1,0c0,0,0,0,0-0.1c0.1,0,0.1,0,0.1-0.1l0,0c0,0,0-0.1,0-0.1
	c0.1,0,0.2,0,0.2-0.1c0.1,0,0.1,0,0.2-0.1c0.1,0,0.1,0,0.1-0.1c0,0,0.1,0,0.1,0h0.1c0,0,0,0.1,0,0.1c0,0-0.1,0-0.1,0l0,0l0,0l0,0
	c-0.1,0.1-0.1,0.1-0.2,0.1l0,0l0,0c0,0,0,0,0,0c0,0-0.1,0.1-0.1,0.1c0,0-0.1,0.1-0.1,0.1c-0.1,0-0.1,0.1-0.2,0.2h0
	c-0.1,0-0.1,0.1-0.1,0.1c0,0-0.1,0-0.1,0c0,0,0,0-0.1,0.1h-0.1c-0.1,0.1-0.2,0.2-0.4,0.2c0,0,0,0,0,0c0,0,0,0,0,0c0,0-0.1,0-0.1,0.1
	c0,0,0,0.1,0.1,0.1v0c0,0,0,0,0,0h0c0,0,0,0,0.1-0.1v0c0.1,0,0.1-0.1,0.2-0.1c0,0,0,0,0.1,0c0,0,0,0,0,0c0,0,0,0,0,0l0,0
	c0.1,0,0.1,0,0.1-0.1c0,0,0,0,0.1,0c0.1-0.1,0.1-0.1,0.2-0.1c0,0,0,0,0.1,0c0,0,0,0,0.1,0c0.1-0.1,0.1-0.1,0.2-0.2c0,0,0.1,0,0.1,0
	c0.1,0,0.1-0.1,0.1-0.1h0.1c0,0,0,0,0,0c0,0,0,0,0,0c0,0,0,0,0.1,0c0,0,0.1,0,0.1,0c0,0,0.1-0.1,0.1-0.1c0.1,0,0.1,0,0.2,0
	c0,0,0.1,0,0.1-0.1l0,0l0,0c0,0,0,0,0,0c0,0,0,0,0,0c0,0,0,0,0,0c0,0,0,0,0-0.1c0,0,0,0,0,0c0,0,0.1,0.1,0.1,0.1
	c0.1,0,0.1-0.1,0.1-0.2c0.1,0,0.2,0,0.3,0c0.1,0,0.1-0.1,0.1-0.2l0,0c0,0,0,0,0,0c0.1,0,0,0,0.1,0.1c0,0,0,0,0,0c0,0,0,0,0,0
	c0,0,0,0,0,0h0c0,0,0,0,0,0c0,0,0,0,0,0c0,0,0,0,0,0c0,0,0,0,0,0c0.1,0,0,0.1,0,0.2c0,0,0,0,0,0c0,0,0,0,0,0.1c0,0,0,0,0,0
	c0,0.1,0,0.1,0,0.2c0,0,0,0,0,0c0,0,0,0,0,0.1c0,0.1,0,0.3,0,0.4c0,0.1,0,0.1,0,0.1c0,0,0,0,0,0c0,0,0,0,0,0c0,0,0,0,0,0
	c0,0,0,0,0,0l0,0c-0.1,0,0,0.1,0,0.1c-0.1,0.1,0,0.2,0,0.3v0.1c0,0,0,0,0,0c0,0,0,0,0,0h0l0,0l0,0c0,0,0,0,0,0.1c0,0.1,0,0.1,0,0.2
	c0,0,0,0,0,0.1c0,0,0,0,0,0c0,0,0,0,0,0.1c-0.1,0.1,0,0.2-0.1,0.2c0.1,0.1,0,0.1,0,0.2c0,0,0,0,0,0c-0.1,0,0,0.1,0,0.2c0,0,0,0,0,0
	c0,0,0,0,0,0.1c0,0,0,0,0,0.1c0,0.1-0.1,0.2-0.1,0.3c0,0.1-0.1,0.3-0.1,0.4c0,0,0,0,0,0c0,0.1-0.1,0.2-0.1,0.3c0,0,0,0,0,0
	c0,0,0,0.1-0.1,0.1v0c0,0-0.1,0-0.1,0c0,0,0,0,0,0c-0.1,0.2-0.1,0.3-0.2,0.5c0,0.1-0.1,0.2-0.1,0.3c0,0-0.1,0-0.1,0l0,0
	c0,0.1-0.1,0.1-0.1,0.2c-0.1,0.1-0.1,0.2-0.2,0.3c0,0,0,0,0,0c-0.1,0.1-0.1,0.1-0.2,0.2c0,0,0,0,0,0c0,0.1-0.1,0.1-0.1,0.1
	c0,0.1-0.1,0.1-0.1,0.1v0c-0.1,0-0.1,0.1-0.1,0.1c0,0,0,0,0,0v0c-0.1,0.1-0.2,0.2-0.3,0.4v0h0c0,0,0,0,0,0v0c0,0-0.1,0-0.1,0.1
	c0,0,0,0,0,0c-0.2,0.2-0.3,0.4-0.5,0.5c0,0,0,0-0.1-0.1c0,0,0,0,0,0c0.1,0.1,0,0.1-0.1,0.1l0,0c0,0,0,0.1-0.1,0.1h0
	c-0.1,0.1-0.2,0.2-0.4,0.3h0c-0.1,0-0.1,0.1-0.2,0.1h0c-0.1,0.1-0.2,0.1-0.2,0.2h0c0,0-0.1,0.1-0.1,0.1c-0.1,0-0.1,0-0.2,0.1h-0.1
	c-0.1,0-0.1,0.1-0.2,0.1c-0.1,0-0.1,0.1-0.2,0.1c-0.1,0-0.1,0.1-0.2,0.1h-0.1c-0.1,0-0.1,0.1-0.1,0.1l0,0c0,0-0.1,0-0.1,0
	c0,0,0,0-0.1,0.1l0,0c-0.1,0.1-0.1,0.1-0.2,0.1c0,0,0,0,0,0c-0.1,0.1-0.1,0.1-0.2,0.1l0,0c-0.1,0-0.1,0.1-0.1,0.1l0,0c0,0,0,0-0.1,0
	c0,0.1-0.1,0.1-0.1,0.1l0,0c-0.1,0-0.1,0-0.2,0.1l0,0c0,0,0,0,0,0c-0.1,0-0.2,0.1-0.3,0.1c-0.2,0.1-0.4,0.1-0.6,0.2l0,0
	c-0.1,0-0.1,0-0.2,0.1c-0.1,0-0.2,0-0.3,0.1c0,0-0.1,0-0.1,0l0,0c0,0,0,0,0,0c0,0-0.1,0-0.1,0c-0.1,0-0.2,0-0.2,0.1c0,0,0,0,0,0l0,0
	l0,0c-0.1,0.1-0.3,0.1-0.4,0.1c0,0-0.1,0-0.1,0c-0.1,0-0.3,0-0.4,0c0,0-0.1,0-0.1,0c0,0,0,0,0,0c0,0-0.1,0-0.1,0l0,0
	c0,0-0.1,0-0.1,0l0,0l0,0l0,0c0,0,0,0-0.1,0c-0.1,0-0.1,0-0.2,0l0,0l0,0c0,0,0,0,0,0c0,0,0,0,0,0c0,0-0.1,0-0.1,0l0,0
	c-0.1,0-0.1,0-0.2,0l0,0c0,0-0.1,0-0.1,0l0,0c-0.1,0-0.2-0.1-0.3-0.1c-0.1-0.1-0.2,0-0.3-0.1c0,0,0,0,0,0c0,0,0,0,0,0c0,0,0,0,0,0
	c0,0,0,0,0,0c0,0,0,0-0.1,0c0-0.1-0.1,0-0.1,0c0,0,0,0,0,0c0,0,0,0,0,0c-0.1,0-0.1,0-0.1-0.1c0,0-0.1,0-0.1,0c0,0-0.1,0-0.1,0
	c0,0,0,0-0.1,0H7.7c0,0,0,0,0,0c0,0,0,0,0,0c-0.1,0-0.1,0-0.2-0.1l0,0c-0.1-0.1-0.3-0.1-0.4-0.1c-0.1,0-0.1,0-0.2-0.1l0,0
	c-0.1,0-0.2-0.1-0.3-0.1l0,0c-0.1,0-0.2-0.1-0.2-0.1c0,0,0,0,0,0c-0.1,0-0.2-0.1-0.2-0.1c0,0,0,0,0,0c-0.1,0-0.2-0.1-0.3-0.1
	c-0.1,0-0.2-0.1-0.3-0.1c0,0,0,0,0,0c0,0,0,0,0,0h0c-0.1-0.1-0.2-0.1-0.3-0.2l0,0c0,0-0.1,0-0.1-0.1l0,0c-0.2-0.1-0.3-0.2-0.5-0.4h0
	c-0.1-0.1-0.1-0.1-0.2-0.1h0c-0.1-0.1-0.1-0.1-0.2-0.2h0C4,16.4,4,16.3,3.9,16.2h0c-0.1-0.1-0.2-0.2-0.2-0.2v0
	c-0.1-0.1-0.2-0.2-0.3-0.3c-0.1-0.1-0.1-0.1-0.2-0.2c0,0,0-0.1,0-0.1c0,0,0,0,0,0v0c-0.2-0.2-0.3-0.3-0.4-0.5v0c0,0,0,0,0,0
	c-0.1-0.2-0.2-0.3-0.3-0.5v0c-0.3-0.4-0.4-0.7-0.6-1.1c0-0.1-0.1-0.2-0.1-0.3c-0.1-0.1-0.1-0.3-0.2-0.4c0,0,0,0,0,0
	c0-0.1,0-0.1-0.1-0.2c0-0.1-0.1-0.2-0.1-0.3c-0.1-0.2-0.1-0.4-0.1-0.6v0c0-0.1-0.1-0.3-0.1-0.4c0,0,0,0,0,0c0-0.2,0-0.5,0-0.7
	c0,0,0-0.1,0-0.1c0-0.1,0-0.2,0-0.2c0,0,0,0,0,0c0,0,0,0,0,0c0-0.2,0-0.5,0-0.7c0,0,0,0,0-0.1c0,0,0,0,0,0c0.1-0.2,0.1-0.5,0.1-0.7
	c0,0,0,0,0,0l0,0c0,0,0,0,0,0c0-0.1,0-0.1,0-0.2c0-0.1,0-0.1,0.1-0.2c0-0.1,0-0.2,0.1-0.2c0.1-0.1,0.1-0.2,0.1-0.2
	C1.6,7.1,1.6,7,1.7,6.9c0-0.1,0-0.1,0.1-0.2c0,0,0-0.1,0-0.1C1.9,6.5,1.9,6.3,2,6.2c0,0,0,0,0,0l0,0c0.1-0.2,0.2-0.5,0.4-0.7v0
	c0,0,0,0,0,0c0-0.1,0.1-0.1,0.1-0.2c0,0,0.1,0,0.1,0v0c0,0,0,0,0.1-0.1v0C2.7,5,2.7,5,2.8,4.9v0c0.1,0,0.1-0.1,0.1-0.1v0
	C3,4.7,3,4.6,3,4.6c0.1-0.1,0.2-0.2,0.3-0.3c0,0,0.1-0.1,0.1-0.1c0,0,0.1,0,0.1-0.1c0,0,0.1,0,0.1-0.1c0,0,0.1-0.1,0.1-0.1v0
	c0.1-0.1,0.2-0.1,0.2-0.2h0C4,3.6,4,3.6,4.1,3.5l0,0c0,0,0-0.1,0.1-0.1c0.1,0,0.1-0.1,0.2-0.2c0.1-0.1,0.2-0.1,0.3-0.2h0
	C4.7,3,4.8,3,4.8,3h0C5,2.8,5.2,2.7,5.4,2.6c0,0,0,0,0,0h0c0,0,0.1-0.1,0.1-0.1c0,0,0,0,0,0c0-0.1,0.1-0.1,0.1-0.1
	c0.1,0,0.1-0.1,0.1-0.1l0,0c0,0,0,0,0,0h0c0,0,0.1,0,0.1,0l0,0c0,0,0,0,0,0h0c0.1-0.1,0.2-0.1,0.3-0.1l0,0c0,0,0.1,0,0.1,0l0,0
	c0,0,0,0,0-0.1h0c0,0,0,0,0,0l0,0C6.5,2,6.6,2,6.7,1.9c0,0,0,0,0,0c0,0,0.1,0,0.1,0c0,0,0.1,0,0.1,0c0,0,0,0,0,0
	c0.1,0,0.1,0,0.2-0.1l0,0c0.1,0,0.1,0,0.1-0.1h0c0,0,0.1,0,0.1,0c0,0,0.1,0,0.1,0c0,0,0,0,0,0c0,0,0,0,0,0l0,0l0,0c0,0,0.1,0,0.1,0
	c0,0,0,0,0,0c0.1,0,0.1,0,0.2,0c0,0,0,0,0,0c0,0,0.1,0,0.1,0c0,0,0,0,0,0C8,1.5,8,1.5,8.1,1.5c0,0,0,0,0,0h0.1c0,0,0,0,0,0h0.2
	c0,0,0,0,0,0c0,0,0,0,0,0c0,0,0.1,0,0.1,0c0,0,0,0,0,0h0.1l0,0c0,0,0,0,0,0c0,0,0,0,0,0c0,0,0,0,0,0c0-0.1,0.1,0,0.2,0c0,0,0,0,0,0
	h0.1c0,0,0,0,0,0c0.1,0,0.2,0,0.3,0c0,0,0.1,0,0.1,0c0,0,0,0,0,0c0,0,0.1,0,0.1,0c0,0,0,0,0,0l0,0c0,0,0,0,0,0c0,0,0.1,0,0.1,0l0,0
	l0,0c0,0,0,0,0,0l0,0l0,0c0,0,0,0,0,0c0.2,0,0.3,0,0.5,0c0.1,0,0.1-0.1,0.2,0h0.1c0.2,0,0.3,0,0.5,0c0,0,0,0,0,0c0.1,0,0.1,0,0.2,0
	c0.1,0,0.2,0,0.2,0c0.1,0,0.1,0,0.2,0c0,0,0,0,0,0c0.1,0,0.1,0,0.1,0c0,0,0,0,0,0c0,0,0.1,0,0.1,0.1c0,0,0,0,0,0c0,0,0.1,0,0.1,0
	c0,0,0,0,0,0l0,0c0.1,0,0.1,0,0.1,0c0.1,0,0.1,0,0.2,0.1l0,0c0,0.1,0.1,0,0.2,0c0,0,0.1,0,0.1,0c0,0,0,0,0,0h0.1c0,0,0,0,0,0l0,0
	c0.1,0.1,0.1,0,0.2,0.1c0,0,0,0,0,0c0.1,0,0.1,0,0.2,0c0,0,0,0,0,0l0,0c0,0,0.1,0,0.1,0l0,0c0.1,0.1,0.1,0.1,0.2,0.1
	C13.5,2,13.6,2,13.6,2h0.1c0,0,0.1,0.1,0.1,0.1c0,0,0,0,0,0h0c0.1,0.1,0.1,0.1,0.2,0.1h0c-0.1,0.2-0.2,0.2-0.4,0.3v0
	c-0.1,0-0.1,0-0.2,0.1v0h0c0,0,0,0.1-0.1,0.1l0,0c0,0-0.1,0-0.2,0.1l0,0c0,0,0,0,0,0c0,0,0,0,0,0c-0.1,0-0.1,0.1-0.1,0.1
	c-0.2,0.1-0.3,0.2-0.4,0.3h-0.1c-0.1,0.1-0.2,0.2-0.2,0.2c-0.1,0-0.1,0-0.1,0.1c-0.1,0-0.2,0-0.2,0.1c0,0-0.1,0-0.1,0
	c0,0,0,0.1-0.1,0.1h0c0,0-0.1,0.1-0.1,0.1c0,0,0,0-0.1,0l0,0l0,0c-0.1,0.1-0.2,0.2-0.2,0.2c0,0,0,0-0.1,0c0,0-0.1,0-0.1,0
	c0,0,0,0,0,0c0,0-0.1,0-0.1,0c0,0,0,0,0,0c0,0-0.1,0-0.1,0c0,0-0.1,0.1-0.1,0.1c-0.1,0-0.2,0.1-0.3,0.2c0,0,0,0.1,0,0.1l0,0
	c0,0,0,0,0,0.1c0,0,0,0,0,0c0,0,0,0-0.1,0c0,0-0.1,0.1-0.1,0.1c-0.1,0-0.1,0-0.1,0.1c0,0,0,0,0,0c-0.1,0-0.1,0.1-0.1,0.1
	c0,0-0.1,0-0.1,0c0,0,0,0,0,0c0,0-0.1,0-0.1,0l0,0C10.1,5,10.1,5,10.1,5.1c-0.1,0-0.1,0-0.1,0.1c0,0,0,0-0.1,0l0,0l0,0c0,0,0,0,0,0
	c-0.1,0-0.1,0.1-0.1,0.2c-0.1,0-0.1,0.1-0.2,0.1c-0.1,0-0.1,0.1-0.2,0.1h0c-0.1,0-0.1,0.1-0.2,0.1h0C9.1,5.8,9,5.8,9,5.9H8.9
	c0,0-0.1,0.1-0.1,0.1C8.8,6,8.7,6,8.7,6c0,0.1-0.1,0.1-0.1,0.1l0,0c0,0.1-0.1,0.1-0.1,0.1l0,0c0,0,0,0,0,0c0,0,0,0,0,0
	c-0.1,0-0.1,0-0.1,0v0.1C8.3,6.4,8.2,6.4,8.1,6.5c0,0-0.1,0.1-0.1,0.1l0,0l0,0c0,0,0,0,0,0l0,0l0,0C7.9,6.6,7.8,6.7,7.9,6.7
	c0,0,0,0-0.1,0c0,0,0,0,0,0l0,0c0,0,0,0.1-0.1,0.1c-0.1,0-0.1,0-0.1,0v0.1c0,0,0,0,0,0C7.4,7,7.3,7.1,7.2,7.2c0,0,0,0,0,0.1
	c-0.1,0-0.2,0-0.2,0.1l0,0l0,0c0,0,0,0,0,0c0,0,0,0-0.1,0.1c0,0,0,0,0,0.1c0,0-0.1,0.1-0.1,0.1c0,0,0,0-0.1,0c0,0.1-0.1,0.2-0.2,0.2
	C6.5,7.7,6.4,7.8,6.4,7.9c0,0.1,0,0.1,0.1,0.1c0,0,0,0,0,0l0,0c0.1-0.1,0.1-0.1,0.2-0.1c0-0.1,0.2-0.1,0.2-0.2V7.6l0,0
	c0,0,0,0,0-0.1l0,0c0,0,0-0.1,0.1-0.1l0,0l0,0l0,0c0,0,0,0,0.1,0c0,0,0,0,0.1-0.1c0,0,0,0,0-0.1c0.1,0,0.1,0,0.1,0c0,0,0,0,0,0
	c0,0,0.1,0,0.1-0.1c0,0,0,0,0,0c0,0,0,0,0,0h0c0,0,0.1-0.1,0.1-0.1v0l0,0c0,0,0.1-0.1,0.1-0.1c0.1-0.1,0.1,0,0.2,0
	C7.9,7,7.9,7,8,6.9c0,0,0-0.1,0.1-0.1c0,0,0.1,0,0.1-0.1V6.7c0.1,0,0.1,0,0.2,0c0,0,0.1,0,0.1-0.1v0c0,0,0-0.1,0.1-0.1
	c0.1,0,0.1-0.1,0.2-0.1c0,0,0.1,0,0.1,0v0c0,0,0,0,0,0c0,0,0,0,0.1-0.1v0c0,0,0,0,0.1-0.1c0,0,0,0,0,0c0.1,0,0.1-0.2,0.2-0.1
	c0-0.1,0.1-0.1,0.1-0.1h0.1c0,0,0.1,0,0.1-0.1h0.1c0.1,0,0.1-0.1,0.2-0.1c0,0,0.1,0,0.1,0c0,0,0.1-0.1,0.1-0.1c0,0,0,0,0,0
	c0-0.1,0.1-0.1,0.1-0.1h0c0,0,0,0,0-0.1c0.1,0,0.1-0.1,0.2-0.1h0.1c0,0.1,0,0.1-0.1,0.1c0,0,0,0-0.1,0c0,0-0.1,0.1-0.1,0.1l0,0
	c-0.1,0-0.2,0.1-0.3,0.2C9.6,5.8,9.5,5.9,9.4,6c0,0-0.1,0-0.1,0c0,0,0,0,0,0h0c-0.1,0-0.1,0.1-0.1,0.1l0,0c0,0-0.1,0-0.1,0.1v0
	C9,6.3,9,6.3,9,6.3C9,6.4,9.1,6.4,9.2,6.4c0,0,0,0,0,0c0,0,0,0,0,0h0c0.1-0.1,0-0.1,0.1-0.2h0.1c0,0,0,0,0,0h0.1c0,0,0,0,0,0
	c0.1,0,0.2-0.1,0.2-0.1c0.1,0,0,0.1,0,0.1c-0.1,0-0.1,0-0.2,0c0,0-0.1,0.1-0.1,0.1c0,0,0,0-0.1,0c0,0-0.1,0.1-0.1,0.1c0,0,0,0-0.1,0
	l0,0c0,0,0,0,0,0l0,0c-0.1,0-0.1,0-0.1,0.1c0,0,0,0.1,0,0.1c0,0,0,0,0,0c0,0,0,0,0,0c0-0.1,0-0.2,0-0.2c0,0,0-0.1-0.1-0.1H8.9
	c0,0,0-0.1-0.1,0c0,0-0.1,0-0.1,0.1v0h0C8.6,6.5,8.6,6.6,8.5,6.6c0,0,0,0.1,0.1,0.1h0c0,0,0,0,0,0c0,0,0,0,0.1,0v0
	c0,0-0.1,0-0.1,0.1c-0.1,0-0.1,0-0.2,0.1H8.4c0,0,0,0,0,0c0,0.1,0,0.1-0.1,0.2v0.1c0,0,0,0-0.1,0.1v0.1c0,0-0.1,0-0.1,0l0,0
	c0,0,0,0,0,0l0,0C8,7.4,8,7.5,7.9,7.6c0,0,0,0,0,0C7.8,7.6,7.7,7.7,7.6,7.8c-0.1,0-0.1,0.1-0.1,0.1c0,0,0-0.1-0.1-0.1
	c0,0-0.1,0-0.1,0l0,0C7.3,7.8,7.2,7.8,7.1,7.9l0,0c0,0-0.1,0-0.1,0.1C7,8,7,8,7,8C7,8.1,7,8.1,7,8.1l0,0c0,0,0,0.1,0,0.1
	c0,0-0.1,0-0.1,0C6.9,8.3,6.8,8.4,6.7,8.4c0,0,0,0,0,0h0c0,0,0,0,0,0.1c-0.1,0-0.1,0-0.1,0.1c0,0,0,0.1,0,0.1
	C6.4,8.7,6.3,8.8,6.2,8.9c0,0,0,0-0.1,0c0,0,0,0.1-0.1,0.1v0c0,0-0.1,0-0.1,0.1h0c0,0.1-0.1,0-0.1,0.1l0,0c0,0-0.1,0-0.1,0
	c-0.1,0,0,0.1-0.1,0.1l0,0c0,0-0.1,0-0.1,0C5.6,9.2,5.5,9.2,5.5,9.3c0,0,0,0.1,0,0.1c0,0,0,0,0,0c0,0,0.1,0,0,0.1l0,0h0
	c-0.1,0-0.1,0.1-0.1,0.2c0,0,0,0-0.1,0h0c0,0,0,0,0,0c0,0-0.1,0-0.1,0c0,0,0,0,0,0c0,0,0,0.1,0,0.1C5.1,9.8,5,9.9,4.9,10
	c-0.1,0-0.1,0-0.2,0.1v0c-0.1,0-0.1,0.1-0.1,0.1c0,0,0,0,0,0c0,0-0.1,0-0.1,0c0,0,0,0,0,0C4.5,10.3,4.4,10.3,4.4,10.4
	C4.4,10.5,4.4,10.4,4.4,10.4"/>
<path class="st4" d="M4.5,12.5C4.5,12.5,4.5,12.6,4.5,12.5c0.2,0.1,0.3,0,0.4,0c0,0,0-0.1,0.1-0.1c0,0,0,0,0.1,0c0,0,0-0.1,0-0.1
	c0.1,0,0.1,0,0.2,0c0,0,0-0.1,0.1-0.1c0,0,0.1,0,0.1,0c0,0,0-0.1,0-0.1c0,0,0,0,0.1,0c0,0,0,0,0,0c0,0.1,0,0.1,0,0.2c0,0,0,0,0,0
	c0,0,0,0,0,0.1c0,0.1,0,0.1,0,0.1c0,0,0,0.1,0.1,0.1h0c0,0,0,0,0,0h0c0,0,0.1,0.1,0.1,0.1c0.1,0.1,0,0.3,0,0.4c-0.1,0,0,0-0.1,0.1
	v0.1c0.1,0,0.1,0.1,0.1,0.1l0,0c0,0,0,0,0,0.1h0c0,0,0,0,0,0c0,0,0.1,0,0.1-0.1c0,0,0,0.1,0.1,0.1c0,0,0,0,0,0c0,0,0,0.1,0.1,0.1
	c0,0,0,0.1,0,0.1c0,0,0,0-0.1,0v0c0,0,0,0-0.1,0c0,0.1-0.1,0.1-0.1,0.1C5.9,14,6,14,6,14c0,0,0-0.1,0.1-0.1h0.1c0.1,0,0.1,0,0.1,0.1
	c0,0,0.1,0,0.1,0c0,0,0,0,0,0c0,0,0.1,0.1,0.1,0c0,0,0,0.1,0.1,0.1h0c0,0,0,0.1,0.1,0.1c0,0,0.1,0,0.1,0c0,0,0,0,0,0
	c0.1,0,0.2,0,0.2-0.1l0,0c0,0,0,0,0,0c0.1,0,0.1-0.1,0.1-0.1c0,0,0.1,0,0.1,0c0,0,0,0,0,0.1c0,0,0,0-0.1,0c-0.1,0-0.1,0.1-0.1,0.1v0
	c-0.1,0-0.2,0-0.2,0.1c0,0,0,0-0.1,0c-0.1,0.1-0.1,0.1-0.2,0.1c0,0,0,0.1-0.1,0.1c0,0.1,0.1,0.1,0.1,0.2c0,0,0,0,0,0v0.1h0
	c0,0,0,0,0,0v0c0,0-0.1,0.1-0.1,0.1c0,0,0.1,0.1,0.1,0.1c0.1,0,0.3,0,0.4,0c0,0.1,0,0.1-0.1,0.1c0,0,0,0.1,0,0.1c0.1,0,0.1,0,0.2,0
	c0,0,0,0.1,0.1,0.1h0c0,0,0-0.1,0-0.1h0c0,0,0.1-0.1,0.1,0c0,0,0,0.1-0.1,0.1c0,0,0,0.1,0.1,0.2c0,0,0.1,0,0.1,0v0c0,0,0,0,0,0v0
	c0,0,0,0-0.1,0c0,0-0.1,0-0.1,0c0,0,0,0.1,0,0.1h0c-0.1,0,0,0.1,0,0.1c0,0,0,0,0,0c-0.1,0-0.1,0.1-0.1,0.1c0,0,0,0-0.1,0
	c0,0,0,0,0,0h0c0,0,0,0,0,0c0,0,0,0,0,0c0,0,0.1,0,0.1,0l0,0c0.1-0.1,0-0.1,0-0.2c0-0.1,0.1-0.1,0.1-0.1c0,0,0-0.1,0-0.1h0
	c0,0-0.1-0.1-0.1,0v0c0,0-0.1,0-0.1,0c0,0-0.1,0-0.1,0c0,0,0,0.1,0,0.1c0,0,0,0,0,0c0,0.1-0.1,0-0.2,0c0-0.1,0-0.2-0.1-0.2h0
	c0-0.1,0-0.1,0-0.1c0,0-0.1,0-0.1,0c0,0,0,0,0,0c0,0-0.1,0-0.1,0c-0.1,0.1-0.1,0.1-0.2,0.1c0,0,0,0.1,0,0.1H6.2c0,0,0-0.1,0-0.1
	c0,0-0.1-0.1-0.1-0.1c0-0.1,0-0.1,0-0.1c0-0.1-0.1,0-0.1,0l0,0c0,0-0.1,0.1-0.1,0.1h0c0,0,0,0.1,0,0.1h0c0,0,0-0.1-0.1-0.1h0
	c0,0,0-0.1,0-0.1c0,0-0.1-0.1-0.1-0.1c0,0,0.1,0,0.1,0v-0.1h0c0,0,0,0,0,0c0,0,0-0.1,0-0.1c0,0,0.1-0.1,0.1-0.1c0-0.1-0.1,0-0.1,0
	c0,0,0,0.1,0,0.1c-0.1,0-0.1,0-0.2,0c0,0,0,0,0,0v0c0,0-0.1,0-0.1,0c0,0.1-0.1,0.1-0.1,0.1c0,0-0.1,0-0.1-0.1c0-0.1,0-0.2,0-0.2
	c0,0,0,0,0,0c0.1,0,0.1-0.1,0.2-0.1v0h0c0,0,0.1,0,0.1-0.1v0c0,0,0,0,0,0l0,0l0,0c0,0,0,0,0.1-0.1c0.1,0,0.1-0.1,0.1-0.1
	c0,0,0-0.1-0.1-0.1h0c0,0,0.1,0,0.1-0.1c0,0,0.1-0.1,0-0.1c0,0,0,0-0.1,0H5.7c0,0,0,0-0.1,0.1c-0.1,0-0.1,0-0.1,0.1v0
	c-0.1,0-0.1,0.1-0.1,0.2c0,0-0.1,0-0.1,0.1l0,0c-0.1,0.1-0.1,0.1-0.2,0.2v0.1C5,14.4,5,14.5,5,14.5v0c0,0.1-0.1,0.1-0.2,0.1v-0.1
	c0,0-0.1,0-0.1,0c0-0.1-0.1-0.2-0.2-0.2c0,0.1,0,0.1-0.1,0.2c-0.1,0-0.1,0-0.2,0c0,0,0,0,0,0c0,0,0,0,0,0c-0.1,0-0.2,0-0.3-0.1
	c0,0,0,0,0,0c0,0,0-0.1-0.1-0.1c-0.1,0-0.2,0-0.2,0c0,0,0-0.1-0.1-0.1h0c-0.1-0.1-0.1-0.1-0.2-0.2c0,0-0.1,0-0.1,0
	c-0.1-0.1-0.1-0.2-0.2-0.2c-0.1,0-0.1,0-0.2,0c0,0,0,0-0.1-0.1c0,0,0,0,0,0v0c0,0-0.1,0-0.1,0c0,0,0,0,0,0c-0.1,0-0.1,0-0.2,0v0
	c-0.1-0.1-0.1-0.1-0.2-0.2c-0.2,0-0.3-0.1-0.3-0.2c0-0.1,0-0.1,0-0.2C2,13,2,13,2,13c0-0.1-0.1,0-0.1-0.1c0,0,0,0,0,0c0,0,0,0,0,0
	c0-0.1,0-0.1,0-0.1c0-0.1-0.1-0.1-0.1-0.1v0c0.1,0,0.1-0.1,0.1-0.1h0c0.1,0,0-0.1,0-0.1c0,0,0,0,0,0l0,0c0,0,0.1,0,0.1-0.1
	c0-0.1,0-0.2,0.1-0.2c0,0,0-0.1,0.1-0.1c0,0,0-0.1,0-0.1c0,0,0.1,0,0.1,0v0c0-0.1,0.1-0.1,0.1-0.1c0.1,0,0.1-0.1,0.1-0.1
	c0,0,0.1-0.1,0.1-0.1h0v0h0c0,0,0,0.1,0,0.1l0,0c0,0,0,0.1,0,0.1c0,0-0.1,0-0.1,0c0,0.1,0,0.1,0.1,0.1c0,0,0,0.1-0.1,0.1
	c0,0,0,0.1,0,0.1h0c0,0,0,0,0,0c0,0,0,0.1,0,0.1c0,0,0,0,0,0c0,0,0.1,0,0.1,0c0,0,0,0,0-0.1c0,0.1,0,0.1,0,0.1c0.1,0,0.1,0,0.1,0
	v-0.1c0.1,0,0.1,0,0.2,0c0.1,0,0.1,0,0.2-0.1v0c0,0,0,0,0,0c0,0,0,0,0,0v0.1c0,0,0,0,0,0l0,0c-0.1,0.1,0,0.1,0,0.2
	c0,0,0.1,0.1,0.1,0.1c0.1,0,0.2,0,0.2,0c0,0,0,0,0,0c0,0,0,0,0,0h0c0,0,0,0,0,0c0,0,0.1,0,0.1,0c0,0,0.1,0,0.1,0
	c0.1,0,0.1,0.1,0.1,0.1c0.1,0,0.3,0,0.4,0c0,0,0.1,0,0.1-0.1c0,0,0.1,0,0.1,0C4.4,12.5,4.4,12.5,4.5,12.5L4.5,12.5z"/>
<path class="st4" d="M4.8,11.6c0.1-0.1,0.1-0.1,0.1-0.2c0,0,0,0,0,0c0,0-0.1,0.1-0.1,0.1v0c-0.1,0-0.1,0.1-0.1,0.1v0c0,0,0,0,0,0
	C4.7,11.7,4.8,11.7,4.8,11.6"/>
<path class="st4" d="M3,11.8C3,11.8,3,11.7,3,11.8C2.9,11.8,2.9,11.8,3,11.8C2.9,11.9,2.9,11.9,3,11.8C2.9,11.9,3,11.9,3,11.8"/>
<path class="st4" d="M4.2,12.2C4.2,12.2,4.2,12.1,4.2,12.2C4.2,12.1,4.2,12.1,4.2,12.2c0.2-0.1,0.3-0.2,0.3-0.3v0c0,0,0.1,0,0.1,0
	v-0.1c0,0-0.1-0.1-0.1-0.1c-0.1,0-0.1,0.1-0.1,0.1l0,0c0,0-0.1,0-0.1,0c-0.1,0-0.1,0.1-0.2,0.1c0,0,0,0,0,0.1
	c-0.1,0-0.1,0.1-0.1,0.1C4.1,12.2,4.1,12.2,4.2,12.2"/>
<path class="st4" d="M3.8,12c0,0,0.1-0.1,0.1-0.1c0-0.1,0-0.1-0.1-0.1C3.8,11.8,3.8,11.9,3.8,12C3.7,12,3.7,12,3.8,12
	C3.8,12,3.8,12,3.8,12"/>
<path class="st4" d="M3.5,10.6C3.5,10.5,3.5,10.5,3.5,10.6L3.5,10.6c0.1-0.1,0.2-0.2,0.1-0.2c-0.1,0-0.1,0-0.1,0.1
	c0,0.1-0.1,0.1-0.2,0.2c0,0,0,0.1,0,0.1c0,0,0,0,0.1,0l0,0C3.4,10.6,3.4,10.6,3.5,10.6C3.4,10.6,3.5,10.6,3.5,10.6"/>
<path class="st4" d="M4.6,11.2c0,0,0-0.1,0-0.1c-0.1,0-0.1,0-0.1,0.1v0c-0.1,0,0,0.1-0.1,0.1l0,0c-0.1,0-0.1,0.1-0.2,0.1
	c0,0.1,0.1,0.1,0.1,0.1c0.1,0,0.1-0.1,0.1-0.1l0,0C4.5,11.3,4.6,11.3,4.6,11.2"/>
<path class="st4" d="M5.5,12.1c0,0,0-0.1,0-0.1h0c-0.1,0,0,0.1-0.1,0.1v0c0,0,0,0,0,0C5.5,12.2,5.5,12.1,5.5,12.1"/>
<path class="st4" d="M6.4,11.4C6.4,11.3,6.5,11.3,6.4,11.4l0.1-0.1c0,0,0,0,0,0h0c0,0-0.1,0-0.1,0c0,0-0.1,0.1-0.1,0.1c0,0,0,0,0,0
	c0,0,0,0,0,0h0c-0.1,0,0,0.1,0,0.1c0,0,0,0,0-0.1h0C6.3,11.4,6.3,11.4,6.4,11.4C6.3,11.4,6.4,11.4,6.4,11.4
	C6.4,11.4,6.4,11.4,6.4,11.4"/>
<path class="st4" d="M7,10.9c0-0.1,0-0.1,0-0.1c-0.1,0-0.1,0.1-0.2,0.1c0,0.1,0,0.1,0.1,0.1C6.9,11,7,11,7,10.9"/>
<path class="st4" d="M13.6,10.8c0,0,0.1,0,0.1,0c0,0,0-0.1,0-0.1C13.7,10.7,13.6,10.7,13.6,10.8C13.6,10.7,13.6,10.8,13.6,10.8"/>
<path class="st4" d="M14.3,10.6c0,0,0.1,0,0.1,0l0,0c0,0,0,0,0,0c0-0.1,0-0.2-0.1-0.2c0,0-0.1-0.1-0.1-0.1c0,0-0.1,0-0.1,0
	c0,0-0.1,0-0.1,0.1c0,0.1,0,0.1,0,0.1C14.2,10.6,14.2,10.6,14.3,10.6"/>
<path class="st4" d="M14.7,10.4L14.7,10.4c0.1-0.1,0.1-0.1,0.1-0.1c0,0,0-0.1-0.1-0.1c-0.1,0-0.1,0-0.1,0c0,0,0-0.1,0-0.1
	c0,0-0.1,0-0.1,0c0,0,0,0.1,0,0.1c0,0-0.1,0.1-0.1,0.1c0,0,0,0,0,0v0c0.1,0,0.1,0.1,0.1,0.1C14.5,10.5,14.6,10.5,14.7,10.4
	L14.7,10.4C14.7,10.5,14.7,10.5,14.7,10.4"/>
<path class="st4" d="M15.2,10.1C15.2,10.1,15.2,10.1,15.2,10.1c0.1-0.1,0.1-0.1,0.1-0.2c0,0-0.1,0-0.1-0.1c0,0,0.1-0.1,0.1-0.1
	c0,0,0-0.1,0-0.1h0C15.1,9.8,15,9.8,15,10c0,0,0,0,0,0V10c-0.1,0-0.1,0.1-0.2,0.1c0,0.1,0,0.1,0.1,0.1c0.1,0,0.1,0,0.2,0h0
	C15.2,10.2,15.2,10.2,15.2,10.1"/>
<path class="st4" d="M14.9,9.7C14.9,9.7,14.9,9.7,14.9,9.7C14.9,9.7,14.9,9.7,14.9,9.7l0.1,0c0,0,0,0,0,0c0,0,0,0,0,0
	c0,0,0.1-0.1,0.1-0.1c0,0-0.1-0.1-0.1-0.1c-0.1,0-0.1,0-0.1,0.1c-0.1,0-0.1,0.1-0.1,0.2C14.8,9.7,14.8,9.8,14.9,9.7"/>
<path class="st4" d="M15.3,9.4C15.3,9.4,15.3,9.4,15.3,9.4c0.1-0.1,0.1-0.1,0-0.2h0c0,0,0,0-0.1,0c0,0,0,0,0,0c0,0,0,0.1,0,0.1h0
	c0,0,0,0,0,0c0,0,0,0.1,0,0.1C15.2,9.5,15.2,9.4,15.3,9.4"/>
<path class="st4" d="M8.8,10.1C8.8,10.1,8.8,10,8.8,10.1C8.8,10,8.8,10,8.8,10.1C8.9,10,8.9,10,8.9,10c0,0,0,0,0,0C9,9.9,9,10,9,9.9
	c0,0,0-0.1,0-0.1c-0.1,0-0.1,0-0.1,0.1H8.8C8.8,9.9,8.7,10,8.6,10c0,0,0,0,0,0v0c0,0,0,0,0,0c0,0.1,0,0.1,0.1,0.1
	C8.7,10.2,8.7,10.1,8.8,10.1L8.8,10.1C8.7,10.1,8.8,10.1,8.8,10.1"/>
<path class="st4" d="M8.6,9.9C8.7,9.9,8.6,9.8,8.6,9.9L8.6,9.9C8.7,9.8,8.7,9.8,8.6,9.9c0.1-0.1,0.1-0.1,0.2-0.1c0,0,0-0.1,0-0.1
	c0-0.1,0-0.1,0-0.1v0c0,0-0.1-0.1-0.1-0.1c-0.1,0-0.1,0-0.2,0.1c0,0.1,0,0.2-0.1,0.2c0,0.1,0,0.1-0.1,0.2c0,0,0,0.1,0.1,0.1
	C8.5,9.9,8.5,9.9,8.6,9.9C8.6,9.9,8.6,9.9,8.6,9.9L8.6,9.9z"/>
<path class="st4" d="M8.2,10.1c0.1,0,0.1-0.1,0.2-0.1V9.9C8.3,9.8,8.2,9.7,8.2,9.7c-0.1,0-0.1,0.1,0,0.2C8.2,10,8.1,10,8.2,10.1
	C8.2,10,8.2,10.1,8.2,10.1"/>
<path class="st4" d="M8.1,10.5c0.1,0,0.1-0.1,0.2-0.2v-0.1c0,0-0.1-0.1-0.1,0C8.2,10.3,8,10.4,8,10.5C8,10.5,8.1,10.5,8.1,10.5
	L8.1,10.5z"/>
<path class="st4" d="M7.6,10.5C7.7,10.5,7.7,10.5,7.6,10.5C7.7,10.5,7.7,10.5,7.6,10.5c0.1-0.1,0.1-0.1,0.1-0.2c0,0,0,0,0,0
	c0,0-0.1,0-0.1,0c0,0,0,0-0.1,0c-0.1,0.1-0.1,0.1-0.2,0.2c-0.1,0-0.1,0.1-0.2,0.2c0,0,0,0.1,0,0.1c0,0,0,0,0,0v-0.1c0,0,0,0,0,0l0,0
	c0,0,0.1-0.1,0.1-0.1h0c0,0,0.1,0,0.1-0.1v0C7.6,10.5,7.6,10.5,7.6,10.5"/>
<path class="st4" d="M7.8,10.1c0.1,0,0.1-0.1,0.1-0.2c0-0.1-0.1-0.1-0.1,0l0,0C7.6,9.9,7.6,10,7.5,10.1c0,0,0,0.1,0.1,0.1h0
	c0,0,0.1-0.1,0.1-0.1l0,0c0,0,0,0,0,0C7.7,10.1,7.7,10.1,7.8,10.1C7.8,10.1,7.8,10.1,7.8,10.1"/>
<path class="st4" d="M7,10.6C7,10.6,7,10.5,7,10.6c-0.1-0.1-0.1-0.1-0.2,0v0c0,0,0,0,0,0C6.9,10.6,6.9,10.6,7,10.6"/>
<polygon class="st4" points="5,10.9 5,10.9 5,10.9 "/>
<path class="st4" d="M3.7,10.2C3.8,10.2,3.8,10.2,3.7,10.2c0-0.1,0-0.1,0-0.1c-0.1,0-0.1,0.1-0.1,0.2c0,0,0,0,0.1,0.1
	C3.7,10.4,3.7,10.3,3.7,10.2C3.7,10.3,3.7,10.3,3.7,10.2"/>
<path class="st4" d="M4.5,9.6c0-0.1,0.1-0.1,0.2-0.2c0,0,0-0.1,0-0.1h0c0,0,0,0.1,0,0.1C4.5,9.4,4.5,9.5,4.4,9.5c0,0,0,0.1,0,0.1
	c0,0,0,0,0.1,0.1L4.5,9.6C4.5,9.6,4.5,9.6,4.5,9.6"/>
<path class="st4" d="M5.1,9.1c0.1,0,0-0.1,0-0.1C5,8.9,5,9,5,9.1C5,9.1,5.1,9.1,5.1,9.1"/>
<path class="st4" d="M5.4,8.9C5.4,8.9,5.4,8.8,5.4,8.9c0-0.1-0.1-0.1-0.1-0.1c-0.1,0-0.1,0.1,0,0.1C5.3,8.9,5.3,8.9,5.4,8.9"/>
<path class="st4" d="M5.5,8.7C5.5,8.7,5.5,8.7,5.5,8.7L5.5,8.7c-0.1-0.1-0.2,0-0.1,0.1L5.5,8.7C5.5,8.8,5.5,8.7,5.5,8.7"/>
<path class="st4" d="M5.6,8.6c0-0.1-0.1,0-0.1,0c0,0-0.1,0,0,0.1C5.5,8.6,5.5,8.7,5.6,8.6L5.6,8.6C5.6,8.7,5.6,8.6,5.6,8.6"/>
<path class="st4" d="M5.8,8.4C5.8,8.4,5.8,8.4,5.8,8.4C5.9,8.4,6,8.3,6,8.3c0,0,0-0.1,0-0.1c0,0,0,0,0,0c0,0,0,0-0.1,0.1H5.9
	C5.8,8.3,5.7,8.4,5.6,8.5v0c0,0,0,0.1,0.1,0.1C5.7,8.6,5.8,8.5,5.8,8.4C5.8,8.5,5.8,8.5,5.8,8.4"/>
<path class="st1" d="M2.5,12.5C2.5,12.5,2.4,12.5,2.5,12.5c-0.1,0-0.1,0.1-0.1,0.1h0c-0.1,0,0-0.1-0.1-0.1
	C2.3,12.5,2.4,12.5,2.5,12.5c-0.1-0.1-0.1-0.1,0-0.1v0h0c0,0,0-0.1,0.1-0.1c0.1,0,0.1,0.1,0.1,0.2H2.5z"/>
<path class="st1" d="M2.2,12.4c0,0-0.1,0.1-0.1,0.1c0,0,0-0.1,0-0.1c0.1,0,0.1-0.1,0.1-0.2c0.1,0,0.1,0,0.1,0
	C2.3,12.3,2.2,12.3,2.2,12.4"/>
<polygon class="st1" points="6.3,14.8 6.3,14.8 6.4,14.8 "/>
<path class="st1" d="M16.5,9.2L16.5,9.2c0.1,0,0.1-0.1,0.1-0.1c-0.1,0-0.1,0-0.2,0.1C16.4,9.2,16.4,9.2,16.5,9.2
	C16.4,9.2,16.5,9.3,16.5,9.2"/>
<path class="st1" d="M15.6,7.9c-0.1,0-0.1,0.1,0,0.1c0,0,0.1,0.1,0.1,0V7.9c0,0,0,0,0,0c0,0,0-0.1,0-0.1C15.6,7.8,15.6,7.8,15.6,7.9
	"/>
<path class="st1" d="M13.7,8.5c0,0.1,0.1,0,0.1,0c0,0,0-0.1,0-0.1C13.8,8.4,13.7,8.4,13.7,8.5L13.7,8.5z"/>
<path class="st1" d="M11.7,8.4C11.7,8.4,11.7,8.4,11.7,8.4C11.7,8.4,11.7,8.4,11.7,8.4c0.1-0.1,0-0.1,0-0.1c-0.1,0-0.1,0.1-0.1,0.1
	C11.6,8.5,11.6,8.5,11.7,8.4"/>
<path class="st1" d="M11.4,8.6L11.4,8.6C11.4,8.6,11.4,8.6,11.4,8.6C11.4,8.6,11.4,8.6,11.4,8.6"/>
<path class="st1" d="M11.2,8.8c0-0.1,0.1-0.1,0-0.2c-0.1,0.1-0.1,0.1-0.2,0.1C11.1,8.8,11.1,8.8,11.2,8.8
	C11.2,8.8,11.2,8.8,11.2,8.8"/>
<path class="st1" d="M7.8,7.4C7.8,7.4,7.8,7.5,7.8,7.4L7.7,7.5c0,0.1,0.1,0.1,0.2,0c0,0,0,0,0-0.1h0c0,0,0,0,0,0c0,0,0-0.1,0-0.1
	C7.9,7.3,7.9,7.3,7.8,7.4L7.8,7.4C7.8,7.4,7.8,7.4,7.8,7.4"/>
<path class="st1" d="M8.2,7L8.2,7C8.2,7,8.2,7,8.2,7c0.1-0.1,0.1-0.1,0.2-0.2c0,0,0-0.1-0.1-0.1C8.2,6.8,8.2,6.9,8.2,7
	C8.1,7,8.1,7,8.2,7"/>
<path class="st1" d="M8.4,6.8c0,0,0.1,0,0.1-0.1c0,0,0-0.1-0.1-0.1c0,0,0,0,0,0c0,0-0.1,0-0.1,0V6.8C8.4,6.7,8.4,6.7,8.4,6.8
	C8.4,6.8,8.4,6.8,8.4,6.8"/>
<path class="st1" d="M6.7,9.6C6.7,9.6,6.7,9.6,6.7,9.6c0.1-0.1,0.1-0.1,0.1-0.1l0,0c0,0,0,0,0.1,0c0,0,0-0.1,0-0.1
	C7,9.4,7,9.4,7,9.4v0l0,0c0,0,0.1,0,0.1-0.1c0,0,0.1,0,0.1,0V9.2c0,0,0,0,0,0V9.1C7.3,9.1,7.3,9,7.4,9c0,0,0,0,0,0.1h0c0,0,0,0,0,0
	v0c0,0,0.1,0,0.1,0c0,0,0-0.1,0-0.1c0,0,0-0.1,0.1-0.1h0c0,0,0,0,0,0h0c0.1,0,0.1-0.1,0.1-0.1c0.1,0,0.1-0.1,0.2-0.1
	c0,0,0-0.1,0-0.1c0,0,0,0,0,0c0.1,0,0.1,0,0.1,0V8.4c0-0.1,0.1,0,0.1,0c0,0,0.1,0,0.1-0.1c0,0,0.1,0.1,0.1,0.1c0.1,0,0.1,0,0.1-0.1
	c0.1,0,0.1-0.1,0.2-0.1c0,0,0,0,0.1,0C8.8,8.1,8.9,8,9,8l0,0c0,0,0-0.1,0.1-0.1h0c0,0,0,0,0,0c0-0.1,0-0.1,0-0.1v0h0.1
	c0.1-0.1,0.1-0.1,0.2-0.1c0,0,0.1,0.1,0.1,0c0.1,0,0.1-0.1,0.1-0.1h0c0,0,0,0,0,0h0c0,0,0.1,0,0.1-0.1l0,0c0,0,0,0,0,0h0
	c0,0,0,0,0,0h0c0.1-0.1,0.1-0.1,0.2-0.2v0h0c0.1,0,0.1-0.1,0.1-0.1c0,0,0.1,0,0.1,0h0.1c0-0.1,0.1-0.1,0.1-0.1c0,0-0.1-0.1-0.1-0.1
	c0,0-0.1,0.1-0.1,0.1v0c0,0-0.1,0.1-0.1,0.1c0,0-0.1,0-0.1,0c0,0,0,0.1,0,0.1H10c0,0,0,0.1-0.1,0.1c0,0-0.1,0-0.1,0v0
	c0,0.1-0.1,0.1-0.1,0.1c0,0,0,0,0,0h0c0,0.1-0.1,0.1-0.2,0.1c0,0,0,0,0,0c-0.1,0-0.1,0-0.2,0.1c0,0-0.1,0-0.1,0H9.1
	C9.1,7.6,9,7.7,8.9,7.7l0,0l0,0l0,0c0,0,0,0,0,0c0,0,0,0,0,0C8.7,7.8,8.7,7.8,8.7,7.9c-0.1,0-0.1,0-0.2,0.1v0H8.4c0,0,0,0.1-0.1,0.1
	c-0.1,0-0.1,0.1-0.2,0.1h0c0,0,0,0,0,0.1c0,0,0,0,0,0v0C8,8.3,8,8.3,8,8.3v0c-0.1,0-0.1,0.1-0.2,0.1c0,0-0.1,0.1-0.1,0.1
	c0,0,0,0,0,0c0,0-0.1,0.1-0.1,0.1h0c-0.1,0,0,0.1-0.1,0.1C7.4,8.8,7.3,8.9,7.2,8.8c0,0,0,0,0,0.1c0,0-0.1,0-0.1,0v0
	C7,9,7,9.1,6.9,9.1c0,0,0,0,0,0c0,0,0,0,0,0v0C6.8,9.3,6.7,9.2,6.6,9.3c0,0,0,0.1,0,0.1c0,0-0.1,0-0.1,0v0c-0.1,0-0.1,0.1-0.1,0.2
	c0,0,0-0.1-0.1-0.1c0,0-0.1,0-0.1,0.1v0c-0.1,0-0.1,0-0.2,0.1c0,0-0.1,0-0.1,0C6,9.7,5.9,9.8,5.9,9.8h0c-0.1,0.1-0.1,0.2,0,0.3
	c0,0,0,0,0,0c0.1,0,0.1-0.1,0.2-0.2V9.9c0,0,0.1-0.1,0.1-0.1c0,0,0,0,0,0c0,0,0.1,0,0.1,0c0,0,0.1,0,0.1,0c0,0,0.1-0.1,0.1-0.1
	c0,0,0,0,0.1-0.1C6.6,9.6,6.7,9.7,6.7,9.6"/>
<path class="st1" d="M6.3,9.4C6.3,9.4,6.4,9.4,6.3,9.4c0.1-0.1,0.1,0,0.1,0c0,0,0,0,0,0v0c0-0.1-0.1-0.1-0.2-0.1
	c-0.1,0-0.1,0.1-0.2,0.1c0,0-0.1,0-0.1,0l0,0c0,0,0,0,0,0c-0.1,0-0.1,0.1-0.2,0.2c0.1,0.1,0.1,0,0.2,0.1c0,0,0,0,0-0.1
	C6.1,9.6,6.2,9.5,6.3,9.4"/>
<path class="st1" d="M10.5,7.7c0-0.1,0.1-0.1,0.1-0.1h0c0,0,0-0.1,0-0.1l0,0c0,0,0,0,0,0h0c0,0,0.1-0.1,0.1-0.1
	c0-0.1,0.2-0.1,0.1-0.2c0.1,0,0.1,0,0.1,0v0c0,0,0.1-0.1,0.1-0.1c0,0-0.1-0.1-0.1,0c-0.1,0-0.2,0-0.2,0.1v0c0,0-0.1,0-0.1,0.1h0
	c0,0-0.1,0.1-0.1,0.1c0,0,0,0-0.1,0c0,0,0,0,0,0.1l0,0c0,0-0.1,0.1-0.1,0.1c-0.1,0-0.1,0-0.1,0.1c0,0.1-0.1,0.1-0.1,0.1
	c0,0-0.1,0-0.1,0c0,0,0,0-0.1,0.1c0,0,0,0.1,0,0.1C10.3,7.8,10.3,7.8,10.5,7.7L10.5,7.7C10.4,7.8,10.4,7.7,10.5,7.7"/>
<path class="st1" d="M10.1,8.7L10.1,8.7C10.1,8.6,10.1,8.6,10.1,8.7c0.2-0.1,0.2-0.2,0.3-0.2v0c0,0-0.1,0-0.1,0c0,0,0,0.1-0.1,0.1
	h-0.1c0,0,0,0,0,0c-0.1,0-0.1,0-0.1,0.1H10C9.9,8.6,9.9,8.6,9.8,8.7c0,0,0,0,0,0c-0.1,0-0.1,0-0.1,0.1c0,0,0.1,0,0.1,0c0,0,0,0,0,0
	c0,0,0.1,0,0.1,0h0C10,8.8,10.1,8.7,10.1,8.7"/>
<path class="st1" d="M8.9,7c0.1,0,0.1-0.1,0.1-0.2c0,0-0.1,0-0.1-0.1h0c0,0-0.1,0.1-0.1,0.1c0,0,0,0.1,0.1,0.1C8.8,7,8.9,6.9,8.9,7"
	/>
<path class="st1" d="M10.3,5.8C10.3,5.8,10.3,5.8,10.3,5.8c0.1,0,0.1,0,0.1-0.1v0c0.1,0,0.1-0.1,0.2-0.1c0.1,0,0.1-0.1,0.2-0.1
	c0-0.1-0.1-0.1-0.2-0.1c0,0,0,0.1-0.1,0.1c0,0-0.1,0-0.1,0c-0.1,0.1-0.1,0.1-0.2,0.1c0,0,0,0,0,0C10.2,5.7,10.2,5.7,10.3,5.8
	c-0.1-0.1-0.2-0.1-0.2,0c0,0,0,0.1,0.1,0.1C10.2,5.9,10.2,5.9,10.3,5.8C10.2,5.9,10.2,5.8,10.3,5.8"/>
<path class="st1" d="M12.9,3.9C12.9,3.9,12.9,3.9,12.9,3.9L12.9,3.9C12.8,3.9,12.8,4,12.8,4c0,0-0.1,0-0.1,0c0,0,0,0.1,0,0.1
	c0,0-0.1,0-0.1,0c-0.1,0.1-0.1,0.1-0.2,0.1c0,0,0,0.1-0.1,0.1c-0.1,0-0.1,0-0.1,0c0,0-0.1,0.1-0.1,0.1h0c-0.1,0.1-0.1,0.1-0.2,0.1
	c-0.1,0,0,0.1-0.1,0.1c-0.1,0-0.2,0-0.2,0.1v0l0,0c-0.1,0-0.1,0.1-0.2,0.2l0,0c0,0-0.1,0.1-0.1,0c0,0.1-0.1,0.1-0.2,0.2h0
	c0,0,0,0,0,0c-0.1,0-0.1,0-0.1,0.1v0.1c0,0,0,0.1,0.1,0.1c0.1,0,0.1,0,0.2-0.1c0,0,0,0,0,0c0,0,0.1,0,0.1-0.1h0.1
	C11.3,5.1,11.4,5,11.4,5c0,0,0.1,0,0.1,0c0,0,0.1-0.1,0.1-0.1h0.1c0,0,0.1-0.1,0.1-0.1c0,0,0.1,0,0.1,0v0c0.1,0,0.1-0.1,0.1-0.1H12
	c0.1,0,0.1-0.1,0.1-0.1c0,0,0.1,0,0.1,0c0,0,0-0.1,0-0.1h0.1c0,0,0,0,0,0h0.1c0.1,0,0.1-0.1,0.2-0.1c0,0,0,0,0,0c0,0,0.1,0,0.1,0
	l0,0c0,0,0,0,0,0v0c0,0,0.1,0,0.1,0c0,0,0-0.1,0.1-0.1c0.1,0,0.1-0.1,0.1-0.1C13,4,13,4,13.1,3.9v0c0,0,0.1,0,0.1-0.1
	C13.1,3.8,13.1,3.8,12.9,3.9C13,3.8,13,3.8,12.9,3.9C13,3.8,13,3.9,12.9,3.9"/>
<path class="st1" d="M17.8,7.5C17.8,7.6,17.8,7.6,17.8,7.5L17.8,7.5C17.8,7.5,17.8,7.5,17.8,7.5C17.8,7.5,17.8,7.5,17.8,7.5
	L17.8,7.5c-0.1,0-0.1,0-0.1,0c0,0,0,0,0,0.1c0,0,0,0,0,0l0,0c0,0,0,0.1-0.1,0.1l0,0c0,0,0,0,0,0c0,0,0,0,0.1,0l0,0c0,0,0,0,0,0
	c-0.1-0.1,0-0.1,0-0.1H17.8C17.8,7.5,17.8,7.5,17.8,7.5C17.8,7.5,17.9,7.5,17.8,7.5L18,7.4c0,0,0-0.1,0-0.1H18c0,0,0,0.1-0.1,0.1
	C18,7.5,17.9,7.4,17.8,7.5L17.8,7.5c0.1,0,0.1,0,0.1,0c0,0,0,0,0,0L17.8,7.5C17.9,7.5,17.9,7.5,17.8,7.5C17.9,7.5,17.9,7.5,17.8,7.5
	C17.9,7.5,17.8,7.5,17.8,7.5"/>
<path class="st1" d="M18,7.1c0.1,0,0.1,0,0.2,0c0,0.1,0,0.1,0,0.2c0,0,0,0.1,0.1,0.1c0.1,0,0.1-0.1,0.2-0.2c0,0,0.1,0.1,0.1,0.1
	c0-0.1-0.1-0.1-0.1-0.2c0-0.1,0-0.1-0.1-0.1c0,0,0-0.1,0-0.1c0,0-0.1,0.1-0.1,0.1c0-0.1-0.1-0.1-0.1,0c0,0-0.1,0.1-0.1,0.1v0
	C18,7,18,7,17.9,7.1h-0.1c-0.1,0-0.1,0.1-0.2,0.1c0,0,0,0-0.1,0.1c0,0,0,0.1,0,0.1c0,0,0.1,0,0.1,0c0.1,0,0.1,0,0.2,0
	C17.9,7.3,17.9,7.2,18,7.1C17.9,7.2,17.9,7.2,18,7.1C17.9,7.1,18,7.1,18,7.1"/>
<path class="st1" d="M12.1,7.9c0.1-0.1,0.1-0.2,0.2-0.2c0.1,0,0.1-0.1,0.1-0.1s0,0,0.1,0c0.1-0.1,0.2-0.2,0.3-0.2
	c0.1-0.1,0.2,0,0.1,0c-0.1,0.1-0.3,0.1-0.2,0.2c0,0.1,0.1,0,0.1,0c0.1,0,0.2,0,0.1,0.1c-0.1,0.1-0.3,0.1-0.3,0.2
	c-0.1,0,0.1-0.1,0.1-0.1c0,0-0.1-0.1-0.1,0c-0.1,0-0.2,0.1-0.3,0.1C12.2,7.9,12.1,8,12.1,7.9L12.1,7.9z"/>
<path class="st1" d="M17.6,8.9c0.1,0,0.2-0.2,0.3-0.2c0.1,0,0.3-0.1,0.3-0.1c0,0,0.2-0.2,0.1-0.1c-0.1,0.1-0.1,0.1-0.1,0.2
	c0,0.1,0.1,0.1,0,0.1c-0.1,0-0.1-0.1-0.2-0.1c-0.1,0-0.1,0-0.2,0.1C17.8,8.8,17.7,8.9,17.6,8.9C17.7,8.9,17.6,8.9,17.6,8.9"/>
<path class="st1" d="M9.8,8c0.1-0.1,0.3-0.2,0.3-0.2c0,0,0.2,0,0,0.1C9.9,8,9.9,8.1,9.8,8.1c-0.1,0.1-0.1,0-0.1,0L9.8,8z"/>
<polygon class="st5" points="37.4,6.7 30.7,6.7 30.7,1.7 30.1,1 22.9,1 22.9,18.2 23.5,18.9 30.7,18.9 30.7,12.9 35.7,12.9 
	35.7,8.8 38,7.5 "/>
<path class="st5" d="M72.5,7.5h-8.2v6.6l-2.5,3.8c-0.2,0.2,0.7,1,0.7,1h5.2l2.8-3.9V9.2l2.9-1L72.5,7.5z"/>
<polygon class="st5" points="55.9,1.3 39.5,1.3 39.5,6.2 40.1,7 54.2,7 54.2,3.2 56.7,2 "/>
<path class="st5" d="M53.7,7.7H39.5v5.6l0.6,0.7h6.4l-2,3.5c-0.3,0.5,0.2,1,0.6,1.3h6.6l2.4-4.1l0.1-6.2L53.7,7.7z"/>
<polygon class="st5" points="60.1,8 57.9,8 57.9,12.2 58.5,12.9 60.6,12.9 60.6,8.7 "/>
<polygon class="st5" points="61.7,12.9 63.9,12.9 63.9,8.7 63.2,8 61,8 61,12.2 "/>
<path class="st5" d="M93.7,1.4H76.1v5.1v0.1v1.7l0,0.1l-1.8,3.1c-0.3,0.3,0.2,0.8,0.7,1.3h4.1L81.4,9V7.3h2.8V14L82,17.4
	c-0.3,0.3,0,0.9,0.6,1.4H89l2.5-3.8V7.3V3.4l2.8-1.2L93.7,1.4z"/>
<path class="st5" d="M115.3,6.9v-4l-0.6-0.7h-6.2V1.3l-0.7-0.7h-4.6v1.5h-6.7v4l0.6,0.7h6.2v0.4h-2.2h-4.6v3.6v7.2l0.6,0.7h4.6v-7.2
	h1.6V18l0.6,0.7h4.6v-7.1h1.4v2.2l-1.3,3.5c-0.2,0.4,0.2,0.8,0.6,1.3h4.4l1.7-4.1v-2.9V8l-0.6-0.7h-4.9h-1.4V6.9H115.3z"/>
<polygon class="st5" points="30.1,6.7 30.1,1 22.9,1 22.9,18.2 30.1,18.2 30.1,12.2 35.2,12.2 35.2,7.9 37.4,6.7 "/>
<path class="st5" d="M64.2,14.1V7.5h8.2l-2.7,1.3v5.6L67,18.2h-5.2c0,0-0.3,0-0.2-0.3L64.2,14.1z"/>
<polygon class="st5" points="53.7,2.5 53.7,6.2 39.5,6.2 39.5,1.3 55.9,1.3 "/>
<path class="st5" d="M47,13.3h-7.4V7.7h14.1l-0.1,6.2l-2.4,4.2h-6.6c-0.4,0-0.3-0.3-0.1-0.6L47,13.3z"/>
<rect x="57.9" y="8" class="st5" width="2.2" height="4.2"/>
<rect x="61" y="8" class="st5" width="2.2" height="4.2"/>
<path class="st5" d="M76.1,1.4v5.1v0.1v1.7l0,0.1l-1.8,3.1c-0.3,0.3,0,0.7,0.3,0.7h3.9l2.4-3.9V6.6h3.5V14L82,17.4
	c-0.3,0.3-0.2,0.6,0.2,0.6h6.2L91,14V6.6V2.7l2.8-1.3H76.1z"/>
<path class="st5" d="M114.7,6.2v-4h-6.9V0.6h-4.6v1.5h-6.7v4h6.7v1.1h-2.2h-4.6v3.6v7.2h4.6v-7.2h2.2V18h4.6v-7.1h1.9v2.9l-1.3,3.5
	c-0.2,0.4,0.1,0.6,0.5,0.6h3.9l1.7-4.1v-2.9V7.3h-4.9h-1.9V6.2H114.7z"/>
<polygon class="st1" points="37.4,6.7 30.7,6.7 30.7,1.7 30.1,1 22.9,1 22.9,18.2 23.5,18.9 30.7,18.9 30.7,12.9 35.7,12.9 
	35.7,8.8 38,7.5 "/>
<path class="st1" d="M72.5,7.5h-8.2v6.6l-2.5,3.8c-0.2,0.2,0.7,1,0.7,1h5.2l2.8-3.9V9.2l2.9-1L72.5,7.5z"/>
<polygon class="st1" points="55.9,1.3 39.5,1.3 39.5,6.2 40.1,7 54.2,7 54.2,3.2 56.7,2 "/>
<path class="st1" d="M53.7,7.7H39.5v5.6l0.6,0.7h6.4l-2,3.5c-0.3,0.5,0.2,1,0.6,1.3h6.6l2.4-4.1l0.1-6.2L53.7,7.7z"/>
<polygon class="st1" points="60.1,8 57.9,8 57.9,12.2 58.5,12.9 60.6,12.9 60.6,8.7 "/>
<polygon class="st1" points="61.7,12.9 63.9,12.9 63.9,8.7 63.2,8 61,8 61,12.2 "/>
<path class="st1" d="M93.7,1.4H76.1v5.1v0.1v1.7l0,0.1l-1.8,3.1c-0.3,0.3,0.2,0.8,0.7,1.3h4.1L81.4,9V7.3h2.8V14L82,17.4
	c-0.3,0.3,0,0.9,0.6,1.4H89l2.5-3.8V7.3V3.4l2.8-1.2L93.7,1.4z"/>
<path class="st1" d="M115.3,6.9v-4l-0.6-0.7h-6.2V1.3l-0.7-0.7h-4.6v1.5h-6.7v4l0.6,0.7h6.2v0.4h-2.2h-4.6v3.6v7.2l0.6,0.7h4.6v-7.2
	h1.6V18l0.6,0.7h4.6v-7.1h1.4v2.2l-1.3,3.5c-0.2,0.4,0.2,0.8,0.6,1.3h4.4l1.7-4.1v-2.9V8l-0.6-0.7h-4.9h-1.4V6.9H115.3z"/>
<polygon class="st6" points="30.1,6.7 30.1,1 22.9,1 22.9,18.2 30.1,18.2 30.1,12.2 35.2,12.2 35.2,7.9 37.4,6.7 "/>
<path class="st6" d="M64.2,14.1V7.5h8.2l-2.7,1.3v5.6L67,18.2h-5.2c0,0-0.3,0-0.2-0.3L64.2,14.1z"/>
<polygon class="st6" points="53.7,2.5 53.7,6.2 39.5,6.2 39.5,1.3 55.9,1.3 "/>
<path class="st6" d="M47,13.3h-7.4V7.7h14.1l-0.1,6.2l-2.4,4.2h-6.6c-0.4,0-0.3-0.3-0.1-0.6L47,13.3z"/>
<rect x="57.9" y="8" class="st6" width="2.2" height="4.2"/>
<rect x="61" y="8" class="st6" width="2.2" height="4.2"/>
<path class="st6" d="M76.1,1.4v5.1v0.1v1.7l0,0.1l-1.8,3.1c-0.3,0.3,0,0.7,0.3,0.7h3.9l2.4-3.9V6.6h3.5V14L82,17.4
	c-0.3,0.3-0.2,0.6,0.2,0.6h6.2L91,14V6.6V2.7l2.8-1.3H76.1z"/>
<path class="st6" d="M114.7,6.2v-4h-6.9V0.6h-4.6v1.5h-6.7v4h6.7v1.1h-2.2h-4.6v3.6v7.2h4.6v-7.2h2.2V18h4.6v-7.1h1.9v2.9l-1.3,3.5
	c-0.2,0.4,0.1,0.6,0.5,0.6h3.9l1.7-4.1v-2.9V7.3h-4.9h-1.9V6.2H114.7z"/>
</svg>
